<?xml version="1.0" encoding="utf-8" standalone="no"?>
<!DOCTYPE svg PUBLIC "-//W3C//DTD SVG 1.1//EN"
  "http://www.w3.org/Graphics/SVG/1.1/DTD/svg11.dtd">
<!-- Created with matplotlib (https://matplotlib.org/) -->
<svg height="432pt" version="1.1" viewBox="0 0 1008 432" width="1008pt" xmlns="http://www.w3.org/2000/svg" xmlns:xlink="http://www.w3.org/1999/xlink">
 <defs>
  <style type="text/css">
*{stroke-linecap:butt;stroke-linejoin:round;}
  </style>
 </defs>
 <g id="figure_1">
  <g id="patch_1">
   <path d="M 0 432 
L 1008 432 
L 1008 0 
L 0 0 
z
" style="fill:#ffffff;"/>
  </g>
  <g id="axes_1">
   <g id="patch_2">
    <path d="M 126 378 
L 907.2 378 
L 907.2 51.84 
L 126 51.84 
z
" style="fill:#eaeaf2;"/>
   </g>
   <g id="matplotlib.axis_1">
    <g id="xtick_1">
     <g id="text_1">
      <!-- 0 -->
      <defs>
       <path d="M 4.15625 35.296875 
Q 4.15625 48 6.765625 55.734375 
Q 9.375 63.484375 14.515625 67.671875 
Q 19.671875 71.875 27.484375 71.875 
Q 33.25 71.875 37.59375 69.546875 
Q 41.9375 67.234375 44.765625 62.859375 
Q 47.609375 58.5 49.21875 52.21875 
Q 50.828125 45.953125 50.828125 35.296875 
Q 50.828125 22.703125 48.234375 14.96875 
Q 45.65625 7.234375 40.5 3 
Q 35.359375 -1.21875 27.484375 -1.21875 
Q 17.140625 -1.21875 11.234375 6.203125 
Q 4.15625 15.140625 4.15625 35.296875 
z
M 13.1875 35.296875 
Q 13.1875 17.671875 17.3125 11.828125 
Q 21.4375 6 27.484375 6 
Q 33.546875 6 37.671875 11.859375 
Q 41.796875 17.71875 41.796875 35.296875 
Q 41.796875 52.984375 37.671875 58.78125 
Q 33.546875 64.59375 27.390625 64.59375 
Q 21.34375 64.59375 17.71875 59.46875 
Q 13.1875 52.9375 13.1875 35.296875 
z
" id="ArialMT-48"/>
      </defs>
      <g style="fill:#262626;" transform="translate(152.987638 395.373594)scale(0.11 -0.11)">
       <use xlink:href="#ArialMT-48"/>
      </g>
     </g>
    </g>
    <g id="xtick_2">
     <g id="text_2">
      <!-- 1 -->
      <defs>
       <path d="M 37.25 0 
L 28.46875 0 
L 28.46875 56 
Q 25.296875 52.984375 20.140625 49.953125 
Q 14.984375 46.921875 10.890625 45.40625 
L 10.890625 53.90625 
Q 18.265625 57.375 23.78125 62.296875 
Q 29.296875 67.234375 31.59375 71.875 
L 37.25 71.875 
z
" id="ArialMT-49"/>
      </defs>
      <g style="fill:#262626;" transform="translate(213.079946 395.373594)scale(0.11 -0.11)">
       <use xlink:href="#ArialMT-49"/>
      </g>
     </g>
    </g>
    <g id="xtick_3">
     <g id="text_3">
      <!-- 2 -->
      <defs>
       <path d="M 50.34375 8.453125 
L 50.34375 0 
L 3.03125 0 
Q 2.9375 3.171875 4.046875 6.109375 
Q 5.859375 10.9375 9.828125 15.625 
Q 13.8125 20.3125 21.34375 26.46875 
Q 33.015625 36.03125 37.109375 41.625 
Q 41.21875 47.21875 41.21875 52.203125 
Q 41.21875 57.421875 37.46875 61 
Q 33.734375 64.59375 27.734375 64.59375 
Q 21.390625 64.59375 17.578125 60.78125 
Q 13.765625 56.984375 13.71875 50.25 
L 4.6875 51.171875 
Q 5.609375 61.28125 11.65625 66.578125 
Q 17.71875 71.875 27.9375 71.875 
Q 38.234375 71.875 44.234375 66.15625 
Q 50.25 60.453125 50.25 52 
Q 50.25 47.703125 48.484375 43.546875 
Q 46.734375 39.40625 42.65625 34.8125 
Q 38.578125 30.21875 29.109375 22.21875 
Q 21.1875 15.578125 18.9375 13.203125 
Q 16.703125 10.84375 15.234375 8.453125 
z
" id="ArialMT-50"/>
      </defs>
      <g style="fill:#262626;" transform="translate(273.172254 395.373594)scale(0.11 -0.11)">
       <use xlink:href="#ArialMT-50"/>
      </g>
     </g>
    </g>
    <g id="xtick_4">
     <g id="text_4">
      <!-- 3 -->
      <defs>
       <path d="M 4.203125 18.890625 
L 12.984375 20.0625 
Q 14.5 12.59375 18.140625 9.296875 
Q 21.78125 6 27 6 
Q 33.203125 6 37.46875 10.296875 
Q 41.75 14.59375 41.75 20.953125 
Q 41.75 27 37.796875 30.921875 
Q 33.84375 34.859375 27.734375 34.859375 
Q 25.25 34.859375 21.53125 33.890625 
L 22.515625 41.609375 
Q 23.390625 41.5 23.921875 41.5 
Q 29.546875 41.5 34.03125 44.421875 
Q 38.53125 47.359375 38.53125 53.46875 
Q 38.53125 58.296875 35.25 61.46875 
Q 31.984375 64.65625 26.8125 64.65625 
Q 21.6875 64.65625 18.265625 61.421875 
Q 14.84375 58.203125 13.875 51.765625 
L 5.078125 53.328125 
Q 6.6875 62.15625 12.390625 67.015625 
Q 18.109375 71.875 26.609375 71.875 
Q 32.46875 71.875 37.390625 69.359375 
Q 42.328125 66.84375 44.9375 62.5 
Q 47.5625 58.15625 47.5625 53.265625 
Q 47.5625 48.640625 45.0625 44.828125 
Q 42.578125 41.015625 37.703125 38.765625 
Q 44.046875 37.3125 47.5625 32.6875 
Q 51.078125 28.078125 51.078125 21.140625 
Q 51.078125 11.765625 44.234375 5.25 
Q 37.40625 -1.265625 26.953125 -1.265625 
Q 17.53125 -1.265625 11.296875 4.34375 
Q 5.078125 9.96875 4.203125 18.890625 
z
" id="ArialMT-51"/>
      </defs>
      <g style="fill:#262626;" transform="translate(333.264561 395.373594)scale(0.11 -0.11)">
       <use xlink:href="#ArialMT-51"/>
      </g>
     </g>
    </g>
    <g id="xtick_5">
     <g id="text_5">
      <!-- 4 -->
      <defs>
       <path d="M 32.328125 0 
L 32.328125 17.140625 
L 1.265625 17.140625 
L 1.265625 25.203125 
L 33.9375 71.578125 
L 41.109375 71.578125 
L 41.109375 25.203125 
L 50.78125 25.203125 
L 50.78125 17.140625 
L 41.109375 17.140625 
L 41.109375 0 
z
M 32.328125 25.203125 
L 32.328125 57.46875 
L 9.90625 25.203125 
z
" id="ArialMT-52"/>
      </defs>
      <g style="fill:#262626;" transform="translate(393.356869 395.373594)scale(0.11 -0.11)">
       <use xlink:href="#ArialMT-52"/>
      </g>
     </g>
    </g>
    <g id="xtick_6">
     <g id="text_6">
      <!-- 5 -->
      <defs>
       <path d="M 4.15625 18.75 
L 13.375 19.53125 
Q 14.40625 12.796875 18.140625 9.390625 
Q 21.875 6 27.15625 6 
Q 33.5 6 37.890625 10.78125 
Q 42.28125 15.578125 42.28125 23.484375 
Q 42.28125 31 38.0625 35.34375 
Q 33.84375 39.703125 27 39.703125 
Q 22.75 39.703125 19.328125 37.765625 
Q 15.921875 35.84375 13.96875 32.765625 
L 5.71875 33.84375 
L 12.640625 70.609375 
L 48.25 70.609375 
L 48.25 62.203125 
L 19.671875 62.203125 
L 15.828125 42.96875 
Q 22.265625 47.46875 29.34375 47.46875 
Q 38.71875 47.46875 45.15625 40.96875 
Q 51.609375 34.46875 51.609375 24.265625 
Q 51.609375 14.546875 45.953125 7.46875 
Q 39.0625 -1.21875 27.15625 -1.21875 
Q 17.390625 -1.21875 11.203125 4.25 
Q 5.03125 9.71875 4.15625 18.75 
z
" id="ArialMT-53"/>
      </defs>
      <g style="fill:#262626;" transform="translate(453.449177 395.373594)scale(0.11 -0.11)">
       <use xlink:href="#ArialMT-53"/>
      </g>
     </g>
    </g>
    <g id="xtick_7">
     <g id="text_7">
      <!-- 6 -->
      <defs>
       <path d="M 49.75 54.046875 
L 41.015625 53.375 
Q 39.84375 58.546875 37.703125 60.890625 
Q 34.125 64.65625 28.90625 64.65625 
Q 24.703125 64.65625 21.53125 62.3125 
Q 17.390625 59.28125 14.984375 53.46875 
Q 12.59375 47.65625 12.5 36.921875 
Q 15.671875 41.75 20.265625 44.09375 
Q 24.859375 46.4375 29.890625 46.4375 
Q 38.671875 46.4375 44.84375 39.96875 
Q 51.03125 33.5 51.03125 23.25 
Q 51.03125 16.5 48.125 10.71875 
Q 45.21875 4.9375 40.140625 1.859375 
Q 35.0625 -1.21875 28.609375 -1.21875 
Q 17.625 -1.21875 10.6875 6.859375 
Q 3.765625 14.9375 3.765625 33.5 
Q 3.765625 54.25 11.421875 63.671875 
Q 18.109375 71.875 29.4375 71.875 
Q 37.890625 71.875 43.28125 67.140625 
Q 48.6875 62.40625 49.75 54.046875 
z
M 13.875 23.1875 
Q 13.875 18.65625 15.796875 14.5 
Q 17.71875 10.359375 21.1875 8.171875 
Q 24.65625 6 28.46875 6 
Q 34.03125 6 38.03125 10.484375 
Q 42.046875 14.984375 42.046875 22.703125 
Q 42.046875 30.125 38.078125 34.390625 
Q 34.125 38.671875 28.125 38.671875 
Q 22.171875 38.671875 18.015625 34.390625 
Q 13.875 30.125 13.875 23.1875 
z
" id="ArialMT-54"/>
      </defs>
      <g style="fill:#262626;" transform="translate(513.541484 395.373594)scale(0.11 -0.11)">
       <use xlink:href="#ArialMT-54"/>
      </g>
     </g>
    </g>
    <g id="xtick_8">
     <g id="text_8">
      <!-- 7 -->
      <defs>
       <path d="M 4.734375 62.203125 
L 4.734375 70.65625 
L 51.078125 70.65625 
L 51.078125 63.8125 
Q 44.234375 56.546875 37.515625 44.484375 
Q 30.8125 32.421875 27.15625 19.671875 
Q 24.515625 10.6875 23.78125 0 
L 14.75 0 
Q 14.890625 8.453125 18.0625 20.40625 
Q 21.234375 32.375 27.171875 43.484375 
Q 33.109375 54.59375 39.796875 62.203125 
z
" id="ArialMT-55"/>
      </defs>
      <g style="fill:#262626;" transform="translate(573.633792 395.373594)scale(0.11 -0.11)">
       <use xlink:href="#ArialMT-55"/>
      </g>
     </g>
    </g>
    <g id="xtick_9">
     <g id="text_9">
      <!-- 8 -->
      <defs>
       <path d="M 17.671875 38.8125 
Q 12.203125 40.828125 9.5625 44.53125 
Q 6.9375 48.25 6.9375 53.421875 
Q 6.9375 61.234375 12.546875 66.546875 
Q 18.171875 71.875 27.484375 71.875 
Q 36.859375 71.875 42.578125 66.421875 
Q 48.296875 60.984375 48.296875 53.171875 
Q 48.296875 48.1875 45.671875 44.5 
Q 43.0625 40.828125 37.75 38.8125 
Q 44.34375 36.671875 47.78125 31.875 
Q 51.21875 27.09375 51.21875 20.453125 
Q 51.21875 11.28125 44.71875 5.03125 
Q 38.234375 -1.21875 27.640625 -1.21875 
Q 17.046875 -1.21875 10.546875 5.046875 
Q 4.046875 11.328125 4.046875 20.703125 
Q 4.046875 27.6875 7.59375 32.390625 
Q 11.140625 37.109375 17.671875 38.8125 
z
M 15.921875 53.71875 
Q 15.921875 48.640625 19.1875 45.40625 
Q 22.46875 42.1875 27.6875 42.1875 
Q 32.765625 42.1875 36.015625 45.375 
Q 39.265625 48.578125 39.265625 53.21875 
Q 39.265625 58.0625 35.90625 61.359375 
Q 32.5625 64.65625 27.59375 64.65625 
Q 22.5625 64.65625 19.234375 61.421875 
Q 15.921875 58.203125 15.921875 53.71875 
z
M 13.09375 20.65625 
Q 13.09375 16.890625 14.875 13.375 
Q 16.65625 9.859375 20.171875 7.921875 
Q 23.6875 6 27.734375 6 
Q 34.03125 6 38.125 10.046875 
Q 42.234375 14.109375 42.234375 20.359375 
Q 42.234375 26.703125 38.015625 30.859375 
Q 33.796875 35.015625 27.4375 35.015625 
Q 21.234375 35.015625 17.15625 30.90625 
Q 13.09375 26.8125 13.09375 20.65625 
z
" id="ArialMT-56"/>
      </defs>
      <g style="fill:#262626;" transform="translate(633.7261 395.373594)scale(0.11 -0.11)">
       <use xlink:href="#ArialMT-56"/>
      </g>
     </g>
    </g>
    <g id="xtick_10">
     <g id="text_10">
      <!-- 9 -->
      <defs>
       <path d="M 5.46875 16.546875 
L 13.921875 17.328125 
Q 14.984375 11.375 18.015625 8.6875 
Q 21.046875 6 25.78125 6 
Q 29.828125 6 32.875 7.859375 
Q 35.9375 9.71875 37.890625 12.8125 
Q 39.84375 15.921875 41.15625 21.1875 
Q 42.484375 26.46875 42.484375 31.9375 
Q 42.484375 32.515625 42.4375 33.6875 
Q 39.796875 29.5 35.234375 26.875 
Q 30.671875 24.265625 25.34375 24.265625 
Q 16.453125 24.265625 10.296875 30.703125 
Q 4.15625 37.15625 4.15625 47.703125 
Q 4.15625 58.59375 10.578125 65.234375 
Q 17 71.875 26.65625 71.875 
Q 33.640625 71.875 39.421875 68.109375 
Q 45.21875 64.359375 48.21875 57.390625 
Q 51.21875 50.4375 51.21875 37.25 
Q 51.21875 23.53125 48.234375 15.40625 
Q 45.265625 7.28125 39.375 3.03125 
Q 33.5 -1.21875 25.59375 -1.21875 
Q 17.1875 -1.21875 11.859375 3.4375 
Q 6.546875 8.109375 5.46875 16.546875 
z
M 41.453125 48.140625 
Q 41.453125 55.71875 37.421875 60.15625 
Q 33.40625 64.59375 27.734375 64.59375 
Q 21.875 64.59375 17.53125 59.8125 
Q 13.1875 55.03125 13.1875 47.40625 
Q 13.1875 40.578125 17.3125 36.296875 
Q 21.4375 32.03125 27.484375 32.03125 
Q 33.59375 32.03125 37.515625 36.296875 
Q 41.453125 40.578125 41.453125 48.140625 
z
" id="ArialMT-57"/>
      </defs>
      <g style="fill:#262626;" transform="translate(693.818407 395.373594)scale(0.11 -0.11)">
       <use xlink:href="#ArialMT-57"/>
      </g>
     </g>
    </g>
    <g id="xtick_11">
     <g id="text_11">
      <!-- 10 -->
      <g style="fill:#262626;" transform="translate(750.8522 395.373594)scale(0.11 -0.11)">
       <use xlink:href="#ArialMT-49"/>
       <use x="55.615234" xlink:href="#ArialMT-48"/>
      </g>
     </g>
    </g>
    <g id="xtick_12">
     <g id="text_12">
      <!-- 11 -->
      <g style="fill:#262626;" transform="translate(810.950523 395.373594)scale(0.11 -0.11)">
       <use xlink:href="#ArialMT-49"/>
       <use x="55.505859" xlink:href="#ArialMT-49"/>
      </g>
     </g>
    </g>
    <g id="xtick_13">
     <g id="text_13">
      <!-- 12 -->
      <g style="fill:#262626;" transform="translate(871.036815 395.373594)scale(0.11 -0.11)">
       <use xlink:href="#ArialMT-49"/>
       <use x="55.615234" xlink:href="#ArialMT-50"/>
      </g>
     </g>
    </g>
    <g id="text_14">
     <!-- gen -->
     <defs>
      <path d="M 4.984375 -4.296875 
L 13.53125 -5.5625 
Q 14.0625 -9.515625 16.5 -11.328125 
Q 19.78125 -13.765625 25.4375 -13.765625 
Q 31.546875 -13.765625 34.859375 -11.328125 
Q 38.1875 -8.890625 39.359375 -4.5 
Q 40.046875 -1.8125 39.984375 6.78125 
Q 34.234375 0 25.640625 0 
Q 14.9375 0 9.078125 7.71875 
Q 3.21875 15.4375 3.21875 26.21875 
Q 3.21875 33.640625 5.90625 39.90625 
Q 8.59375 46.1875 13.6875 49.609375 
Q 18.796875 53.03125 25.6875 53.03125 
Q 34.859375 53.03125 40.828125 45.609375 
L 40.828125 51.859375 
L 48.921875 51.859375 
L 48.921875 7.03125 
Q 48.921875 -5.078125 46.453125 -10.125 
Q 44 -15.1875 38.640625 -18.109375 
Q 33.296875 -21.046875 25.484375 -21.046875 
Q 16.21875 -21.046875 10.5 -16.875 
Q 4.78125 -12.703125 4.984375 -4.296875 
z
M 12.25 26.859375 
Q 12.25 16.65625 16.296875 11.96875 
Q 20.359375 7.28125 26.46875 7.28125 
Q 32.515625 7.28125 36.609375 11.9375 
Q 40.71875 16.609375 40.71875 26.5625 
Q 40.71875 36.078125 36.5 40.90625 
Q 32.28125 45.75 26.3125 45.75 
Q 20.453125 45.75 16.34375 40.984375 
Q 12.25 36.234375 12.25 26.859375 
z
" id="ArialMT-103"/>
      <path d="M 42.09375 16.703125 
L 51.171875 15.578125 
Q 49.03125 7.625 43.21875 3.21875 
Q 37.40625 -1.171875 28.375 -1.171875 
Q 17 -1.171875 10.328125 5.828125 
Q 3.65625 12.84375 3.65625 25.484375 
Q 3.65625 38.578125 10.390625 45.796875 
Q 17.140625 53.03125 27.875 53.03125 
Q 38.28125 53.03125 44.875 45.953125 
Q 51.46875 38.875 51.46875 26.03125 
Q 51.46875 25.25 51.421875 23.6875 
L 12.75 23.6875 
Q 13.234375 15.140625 17.578125 10.59375 
Q 21.921875 6.0625 28.421875 6.0625 
Q 33.25 6.0625 36.671875 8.59375 
Q 40.09375 11.140625 42.09375 16.703125 
z
M 13.234375 30.90625 
L 42.1875 30.90625 
Q 41.609375 37.453125 38.875 40.71875 
Q 34.671875 45.796875 27.984375 45.796875 
Q 21.921875 45.796875 17.796875 41.75 
Q 13.671875 37.703125 13.234375 30.90625 
z
" id="ArialMT-101"/>
      <path d="M 6.59375 0 
L 6.59375 51.859375 
L 14.5 51.859375 
L 14.5 44.484375 
Q 20.21875 53.03125 31 53.03125 
Q 35.6875 53.03125 39.625 51.34375 
Q 43.5625 49.65625 45.515625 46.921875 
Q 47.46875 44.1875 48.25 40.4375 
Q 48.734375 37.984375 48.734375 31.890625 
L 48.734375 0 
L 39.9375 0 
L 39.9375 31.546875 
Q 39.9375 36.921875 38.90625 39.578125 
Q 37.890625 42.234375 35.28125 43.8125 
Q 32.671875 45.40625 29.15625 45.40625 
Q 23.53125 45.40625 19.453125 41.84375 
Q 15.375 38.28125 15.375 28.328125 
L 15.375 0 
z
" id="ArialMT-110"/>
     </defs>
     <g style="fill:#262626;" transform="translate(506.590313 410.008594)scale(0.12 -0.12)">
      <use xlink:href="#ArialMT-103"/>
      <use x="55.615234" xlink:href="#ArialMT-101"/>
      <use x="111.230469" xlink:href="#ArialMT-110"/>
     </g>
    </g>
   </g>
   <g id="matplotlib.axis_2">
    <g id="ytick_1">
     <g id="line2d_1">
      <path clip-path="url(#p9f31cb4ea2)" d="M 126 332.501191 
L 907.2 332.501191 
" style="fill:none;stroke:#ffffff;stroke-linecap:round;"/>
     </g>
     <g id="text_15">
      <!-- −13 -->
      <defs>
       <path d="M 52.828125 31.203125 
L 5.5625 31.203125 
L 5.5625 39.40625 
L 52.828125 39.40625 
z
" id="ArialMT-8722"/>
      </defs>
      <g style="fill:#262626;" transform="translate(97.84125 336.437988)scale(0.11 -0.11)">
       <use xlink:href="#ArialMT-8722"/>
       <use x="58.398438" xlink:href="#ArialMT-49"/>
       <use x="114.013672" xlink:href="#ArialMT-51"/>
      </g>
     </g>
    </g>
    <g id="ytick_2">
     <g id="line2d_2">
      <path clip-path="url(#p9f31cb4ea2)" d="M 126 281.378934 
L 907.2 281.378934 
" style="fill:none;stroke:#ffffff;stroke-linecap:round;"/>
     </g>
     <g id="text_16">
      <!-- −12 -->
      <g style="fill:#262626;" transform="translate(97.84125 285.315731)scale(0.11 -0.11)">
       <use xlink:href="#ArialMT-8722"/>
       <use x="58.398438" xlink:href="#ArialMT-49"/>
       <use x="114.013672" xlink:href="#ArialMT-50"/>
      </g>
     </g>
    </g>
    <g id="ytick_3">
     <g id="line2d_3">
      <path clip-path="url(#p9f31cb4ea2)" d="M 126 230.256677 
L 907.2 230.256677 
" style="fill:none;stroke:#ffffff;stroke-linecap:round;"/>
     </g>
     <g id="text_17">
      <!-- −11 -->
      <g style="fill:#262626;" transform="translate(97.853281 234.193474)scale(0.11 -0.11)">
       <use xlink:href="#ArialMT-8722"/>
       <use x="58.398438" xlink:href="#ArialMT-49"/>
       <use x="113.904297" xlink:href="#ArialMT-49"/>
      </g>
     </g>
    </g>
    <g id="ytick_4">
     <g id="line2d_4">
      <path clip-path="url(#p9f31cb4ea2)" d="M 126 179.13442 
L 907.2 179.13442 
" style="fill:none;stroke:#ffffff;stroke-linecap:round;"/>
     </g>
     <g id="text_18">
      <!-- −10 -->
      <g style="fill:#262626;" transform="translate(97.84125 183.071217)scale(0.11 -0.11)">
       <use xlink:href="#ArialMT-8722"/>
       <use x="58.398438" xlink:href="#ArialMT-49"/>
       <use x="114.013672" xlink:href="#ArialMT-48"/>
      </g>
     </g>
    </g>
    <g id="ytick_5">
     <g id="line2d_5">
      <path clip-path="url(#p9f31cb4ea2)" d="M 126 128.012163 
L 907.2 128.012163 
" style="fill:none;stroke:#ffffff;stroke-linecap:round;"/>
     </g>
     <g id="text_19">
      <!-- −9 -->
      <g style="fill:#262626;" transform="translate(103.958281 131.94896)scale(0.11 -0.11)">
       <use xlink:href="#ArialMT-8722"/>
       <use x="58.398438" xlink:href="#ArialMT-57"/>
      </g>
     </g>
    </g>
    <g id="ytick_6">
     <g id="line2d_6">
      <path clip-path="url(#p9f31cb4ea2)" d="M 126 76.889906 
L 907.2 76.889906 
" style="fill:none;stroke:#ffffff;stroke-linecap:round;"/>
     </g>
     <g id="text_20">
      <!-- −8 -->
      <g style="fill:#262626;" transform="translate(103.958281 80.826703)scale(0.11 -0.11)">
       <use xlink:href="#ArialMT-8722"/>
       <use x="58.398438" xlink:href="#ArialMT-56"/>
      </g>
     </g>
    </g>
    <g id="text_21">
     <!-- score -->
     <defs>
      <path d="M 3.078125 15.484375 
L 11.765625 16.84375 
Q 12.5 11.625 15.84375 8.84375 
Q 19.1875 6.0625 25.203125 6.0625 
Q 31.25 6.0625 34.171875 8.515625 
Q 37.109375 10.984375 37.109375 14.3125 
Q 37.109375 17.28125 34.515625 19 
Q 32.71875 20.171875 25.53125 21.96875 
Q 15.875 24.421875 12.140625 26.203125 
Q 8.40625 27.984375 6.46875 31.125 
Q 4.546875 34.28125 4.546875 38.09375 
Q 4.546875 41.546875 6.125 44.5 
Q 7.71875 47.46875 10.453125 49.421875 
Q 12.5 50.921875 16.03125 51.96875 
Q 19.578125 53.03125 23.640625 53.03125 
Q 29.734375 53.03125 34.34375 51.265625 
Q 38.96875 49.515625 41.15625 46.5 
Q 43.359375 43.5 44.1875 38.484375 
L 35.59375 37.3125 
Q 35.015625 41.3125 32.203125 43.546875 
Q 29.390625 45.796875 24.265625 45.796875 
Q 18.21875 45.796875 15.625 43.796875 
Q 13.03125 41.796875 13.03125 39.109375 
Q 13.03125 37.40625 14.109375 36.03125 
Q 15.1875 34.625 17.484375 33.6875 
Q 18.796875 33.203125 25.25 31.453125 
Q 34.578125 28.953125 38.25 27.359375 
Q 41.9375 25.78125 44.03125 22.75 
Q 46.140625 19.734375 46.140625 15.234375 
Q 46.140625 10.84375 43.578125 6.953125 
Q 41.015625 3.078125 36.171875 0.953125 
Q 31.34375 -1.171875 25.25 -1.171875 
Q 15.140625 -1.171875 9.84375 3.03125 
Q 4.546875 7.234375 3.078125 15.484375 
z
" id="ArialMT-115"/>
      <path d="M 40.4375 19 
L 49.078125 17.875 
Q 47.65625 8.9375 41.8125 3.875 
Q 35.984375 -1.171875 27.484375 -1.171875 
Q 16.84375 -1.171875 10.375 5.78125 
Q 3.90625 12.75 3.90625 25.734375 
Q 3.90625 34.125 6.6875 40.421875 
Q 9.46875 46.734375 15.15625 49.875 
Q 20.84375 53.03125 27.546875 53.03125 
Q 35.984375 53.03125 41.359375 48.75 
Q 46.734375 44.484375 48.25 36.625 
L 39.703125 35.296875 
Q 38.484375 40.53125 35.375 43.15625 
Q 32.28125 45.796875 27.875 45.796875 
Q 21.234375 45.796875 17.078125 41.03125 
Q 12.9375 36.28125 12.9375 25.984375 
Q 12.9375 15.53125 16.9375 10.796875 
Q 20.953125 6.0625 27.390625 6.0625 
Q 32.5625 6.0625 36.03125 9.234375 
Q 39.5 12.40625 40.4375 19 
z
" id="ArialMT-99"/>
      <path d="M 3.328125 25.921875 
Q 3.328125 40.328125 11.328125 47.265625 
Q 18.015625 53.03125 27.640625 53.03125 
Q 38.328125 53.03125 45.109375 46.015625 
Q 51.90625 39.015625 51.90625 26.65625 
Q 51.90625 16.65625 48.90625 10.90625 
Q 45.90625 5.171875 40.15625 2 
Q 34.421875 -1.171875 27.640625 -1.171875 
Q 16.75 -1.171875 10.03125 5.8125 
Q 3.328125 12.796875 3.328125 25.921875 
z
M 12.359375 25.921875 
Q 12.359375 15.96875 16.703125 11.015625 
Q 21.046875 6.0625 27.640625 6.0625 
Q 34.1875 6.0625 38.53125 11.03125 
Q 42.875 16.015625 42.875 26.21875 
Q 42.875 35.84375 38.5 40.796875 
Q 34.125 45.75 27.640625 45.75 
Q 21.046875 45.75 16.703125 40.8125 
Q 12.359375 35.890625 12.359375 25.921875 
z
" id="ArialMT-111"/>
      <path d="M 6.5 0 
L 6.5 51.859375 
L 14.40625 51.859375 
L 14.40625 44 
Q 17.4375 49.515625 20 51.265625 
Q 22.5625 53.03125 25.640625 53.03125 
Q 30.078125 53.03125 34.671875 50.203125 
L 31.640625 42.046875 
Q 28.421875 43.953125 25.203125 43.953125 
Q 22.3125 43.953125 20.015625 42.21875 
Q 17.71875 40.484375 16.75 37.40625 
Q 15.28125 32.71875 15.28125 27.15625 
L 15.28125 0 
z
" id="ArialMT-114"/>
     </defs>
     <g style="fill:#262626;" transform="translate(91.45625 229.590937)rotate(-90)scale(0.12 -0.12)">
      <use xlink:href="#ArialMT-115"/>
      <use x="50" xlink:href="#ArialMT-99"/>
      <use x="100" xlink:href="#ArialMT-111"/>
      <use x="155.615234" xlink:href="#ArialMT-114"/>
      <use x="188.916016" xlink:href="#ArialMT-101"/>
     </g>
    </g>
   </g>
   <g id="patch_3">
    <path clip-path="url(#p9f31cb4ea2)" d="M 132.009231 115.231599 
L 180.083077 115.231599 
L 180.083077 87.114357 
L 132.009231 87.114357 
L 132.009231 115.231599 
z
" style="fill:#ea96a3;stroke:#454545;stroke-linejoin:miter;stroke-width:1.5;"/>
   </g>
   <g id="patch_4">
    <path clip-path="url(#p9f31cb4ea2)" d="M 192.101538 92.226583 
L 240.175385 92.226583 
L 240.175385 71.77768 
L 192.101538 71.77768 
L 192.101538 92.226583 
z
" style="fill:#e39361;stroke:#454545;stroke-linejoin:miter;stroke-width:1.5;"/>
   </g>
   <g id="patch_5">
    <path clip-path="url(#p9f31cb4ea2)" d="M 252.193846 92.226583 
L 300.267692 92.226583 
L 300.267692 66.665455 
L 252.193846 66.665455 
L 252.193846 92.226583 
z
" style="fill:#be9b4a;stroke:#454545;stroke-linejoin:miter;stroke-width:1.5;"/>
   </g>
   <g id="patch_6">
    <path clip-path="url(#p9f31cb4ea2)" d="M 312.286154 102.451034 
L 360.36 102.451034 
L 360.36 71.77768 
L 312.286154 71.77768 
L 312.286154 102.451034 
z
" style="fill:#9fa045;stroke:#454545;stroke-linejoin:miter;stroke-width:1.5;"/>
   </g>
   <g id="patch_7">
    <path clip-path="url(#p9f31cb4ea2)" d="M 372.378462 115.231599 
L 420.452308 115.231599 
L 420.452308 71.77768 
L 372.378462 71.77768 
L 372.378462 115.231599 
z
" style="fill:#7aaa47;stroke:#454545;stroke-linejoin:miter;stroke-width:1.5;"/>
   </g>
   <g id="patch_8">
    <path clip-path="url(#p9f31cb4ea2)" d="M 432.470769 117.787712 
L 480.544615 117.787712 
L 480.544615 78.167962 
L 432.470769 78.167962 
L 432.470769 117.787712 
z
" style="fill:#49af79;stroke:#454545;stroke-linejoin:miter;stroke-width:1.5;"/>
   </g>
   <g id="patch_9">
    <path clip-path="url(#p9f31cb4ea2)" d="M 492.563077 133.124389 
L 540.636923 133.124389 
L 540.636923 82.002132 
L 492.563077 82.002132 
L 492.563077 133.124389 
z
" style="fill:#4aac9a;stroke:#454545;stroke-linejoin:miter;stroke-width:1.5;"/>
   </g>
   <g id="patch_10">
    <path clip-path="url(#p9f31cb4ea2)" d="M 552.655385 158.685517 
L 600.729231 158.685517 
L 600.729231 87.114357 
L 552.655385 87.114357 
L 552.655385 158.685517 
z
" style="fill:#4cabae;stroke:#454545;stroke-linejoin:miter;stroke-width:1.5;"/>
   </g>
   <g id="patch_11">
    <path clip-path="url(#p9f31cb4ea2)" d="M 612.747692 145.904953 
L 660.821538 145.904953 
L 660.821538 84.558245 
L 612.747692 84.558245 
L 612.747692 145.904953 
z
" style="fill:#52acc9;stroke:#454545;stroke-linejoin:miter;stroke-width:1.5;"/>
   </g>
   <g id="patch_12">
    <path clip-path="url(#p9f31cb4ea2)" d="M 672.84 122.899937 
L 720.913846 122.899937 
L 720.913846 82.002132 
L 672.84 82.002132 
L 672.84 122.899937 
z
" style="fill:#8daee7;stroke:#454545;stroke-linejoin:miter;stroke-width:1.5;"/>
   </g>
   <g id="patch_13">
    <path clip-path="url(#p9f31cb4ea2)" d="M 732.932308 117.787712 
L 781.006154 117.787712 
L 781.006154 87.114357 
L 732.932308 87.114357 
L 732.932308 117.787712 
z
" style="fill:#bfa3ea;stroke:#454545;stroke-linejoin:miter;stroke-width:1.5;"/>
   </g>
   <g id="patch_14">
    <path clip-path="url(#p9f31cb4ea2)" d="M 793.024615 189.358871 
L 841.098462 189.358871 
L 841.098462 117.787712 
L 793.024615 117.787712 
L 793.024615 189.358871 
z
" style="fill:#e689e6;stroke:#454545;stroke-linejoin:miter;stroke-width:1.5;"/>
   </g>
   <g id="patch_15">
    <path clip-path="url(#p9f31cb4ea2)" d="M 853.116923 220.032226 
L 901.190769 220.032226 
L 901.190769 138.236614 
L 853.116923 138.236614 
L 853.116923 220.032226 
z
" style="fill:#e891c3;stroke:#454545;stroke-linejoin:miter;stroke-width:1.5;"/>
   </g>
   <g id="line2d_7">
    <path clip-path="url(#p9f31cb4ea2)" d="M 156.046154 115.231599 
L 156.046154 148.461066 
" style="fill:none;stroke:#454545;stroke-linecap:round;stroke-width:1.5;"/>
   </g>
   <g id="line2d_8">
    <path clip-path="url(#p9f31cb4ea2)" d="M 156.046154 87.114357 
L 156.046154 66.665455 
" style="fill:none;stroke:#454545;stroke-linecap:round;stroke-width:1.5;"/>
   </g>
   <g id="line2d_9">
    <path clip-path="url(#p9f31cb4ea2)" d="M 144.027692 148.461066 
L 168.064615 148.461066 
" style="fill:none;stroke:#454545;stroke-linecap:round;stroke-width:1.5;"/>
   </g>
   <g id="line2d_10">
    <path clip-path="url(#p9f31cb4ea2)" d="M 144.027692 66.665455 
L 168.064615 66.665455 
" style="fill:none;stroke:#454545;stroke-linecap:round;stroke-width:1.5;"/>
   </g>
   <g id="line2d_11">
    <defs>
     <path d="M 0 3.535534 
L 2.12132 0 
L 0 -3.535534 
L -2.12132 0 
z
" id="m2fde27717a" style="stroke:#454545;stroke-linejoin:miter;"/>
    </defs>
    <g clip-path="url(#p9f31cb4ea2)">
     <use style="fill:#454545;stroke:#454545;stroke-linejoin:miter;" x="156.046154" xlink:href="#m2fde27717a" y="184.246646"/>
     <use style="fill:#454545;stroke:#454545;stroke-linejoin:miter;" x="156.046154" xlink:href="#m2fde27717a" y="174.022194"/>
    </g>
   </g>
   <g id="line2d_12">
    <path clip-path="url(#p9f31cb4ea2)" d="M 216.138462 92.226583 
L 216.138462 122.899937 
" style="fill:none;stroke:#454545;stroke-linecap:round;stroke-width:1.5;"/>
   </g>
   <g id="line2d_13">
    <path clip-path="url(#p9f31cb4ea2)" d="M 216.138462 71.77768 
L 216.138462 66.665455 
" style="fill:none;stroke:#454545;stroke-linecap:round;stroke-width:1.5;"/>
   </g>
   <g id="line2d_14">
    <path clip-path="url(#p9f31cb4ea2)" d="M 204.12 122.899937 
L 228.156923 122.899937 
" style="fill:none;stroke:#454545;stroke-linecap:round;stroke-width:1.5;"/>
   </g>
   <g id="line2d_15">
    <path clip-path="url(#p9f31cb4ea2)" d="M 204.12 66.665455 
L 228.156923 66.665455 
" style="fill:none;stroke:#454545;stroke-linecap:round;stroke-width:1.5;"/>
   </g>
   <g id="line2d_16">
    <g clip-path="url(#p9f31cb4ea2)">
     <use style="fill:#454545;stroke:#454545;stroke-linejoin:miter;" x="216.138462" xlink:href="#m2fde27717a" y="148.461066"/>
     <use style="fill:#454545;stroke:#454545;stroke-linejoin:miter;" x="216.138462" xlink:href="#m2fde27717a" y="138.236614"/>
     <use style="fill:#454545;stroke:#454545;stroke-linejoin:miter;" x="216.138462" xlink:href="#m2fde27717a" y="128.012163"/>
    </g>
   </g>
   <g id="line2d_17">
    <path clip-path="url(#p9f31cb4ea2)" d="M 276.230769 92.226583 
L 276.230769 112.675486 
" style="fill:none;stroke:#454545;stroke-linecap:round;stroke-width:1.5;"/>
   </g>
   <g id="line2d_18">
    <path clip-path="url(#p9f31cb4ea2)" d="M 276.230769 66.665455 
L 276.230769 66.665455 
" style="fill:none;stroke:#454545;stroke-linecap:round;stroke-width:1.5;"/>
   </g>
   <g id="line2d_19">
    <path clip-path="url(#p9f31cb4ea2)" d="M 264.212308 112.675486 
L 288.249231 112.675486 
" style="fill:none;stroke:#454545;stroke-linecap:round;stroke-width:1.5;"/>
   </g>
   <g id="line2d_20">
    <path clip-path="url(#p9f31cb4ea2)" d="M 264.212308 66.665455 
L 288.249231 66.665455 
" style="fill:none;stroke:#454545;stroke-linecap:round;stroke-width:1.5;"/>
   </g>
   <g id="line2d_21">
    <g clip-path="url(#p9f31cb4ea2)">
     <use style="fill:#454545;stroke:#454545;stroke-linejoin:miter;" x="276.230769" xlink:href="#m2fde27717a" y="240.481129"/>
     <use style="fill:#454545;stroke:#454545;stroke-linejoin:miter;" x="276.230769" xlink:href="#m2fde27717a" y="158.685517"/>
    </g>
   </g>
   <g id="line2d_22">
    <path clip-path="url(#p9f31cb4ea2)" d="M 336.323077 102.451034 
L 336.323077 143.34884 
" style="fill:none;stroke:#454545;stroke-linecap:round;stroke-width:1.5;"/>
   </g>
   <g id="line2d_23">
    <path clip-path="url(#p9f31cb4ea2)" d="M 336.323077 71.77768 
L 336.323077 66.665455 
" style="fill:none;stroke:#454545;stroke-linecap:round;stroke-width:1.5;"/>
   </g>
   <g id="line2d_24">
    <path clip-path="url(#p9f31cb4ea2)" d="M 324.304615 143.34884 
L 348.341538 143.34884 
" style="fill:none;stroke:#454545;stroke-linecap:round;stroke-width:1.5;"/>
   </g>
   <g id="line2d_25">
    <path clip-path="url(#p9f31cb4ea2)" d="M 324.304615 66.665455 
L 348.341538 66.665455 
" style="fill:none;stroke:#454545;stroke-linecap:round;stroke-width:1.5;"/>
   </g>
   <g id="line2d_26">
    <g clip-path="url(#p9f31cb4ea2)">
     <use style="fill:#454545;stroke:#454545;stroke-linejoin:miter;" x="336.323077" xlink:href="#m2fde27717a" y="148.461066"/>
    </g>
   </g>
   <g id="line2d_27">
    <path clip-path="url(#p9f31cb4ea2)" d="M 396.415385 115.231599 
L 396.415385 153.573292 
" style="fill:none;stroke:#454545;stroke-linecap:round;stroke-width:1.5;"/>
   </g>
   <g id="line2d_28">
    <path clip-path="url(#p9f31cb4ea2)" d="M 396.415385 71.77768 
L 396.415385 66.665455 
" style="fill:none;stroke:#454545;stroke-linecap:round;stroke-width:1.5;"/>
   </g>
   <g id="line2d_29">
    <path clip-path="url(#p9f31cb4ea2)" d="M 384.396923 153.573292 
L 408.433846 153.573292 
" style="fill:none;stroke:#454545;stroke-linecap:round;stroke-width:1.5;"/>
   </g>
   <g id="line2d_30">
    <path clip-path="url(#p9f31cb4ea2)" d="M 384.396923 66.665455 
L 408.433846 66.665455 
" style="fill:none;stroke:#454545;stroke-linecap:round;stroke-width:1.5;"/>
   </g>
   <g id="line2d_31">
    <g clip-path="url(#p9f31cb4ea2)">
     <use style="fill:#454545;stroke:#454545;stroke-linejoin:miter;" x="396.415385" xlink:href="#m2fde27717a" y="240.481129"/>
    </g>
   </g>
   <g id="line2d_32">
    <path clip-path="url(#p9f31cb4ea2)" d="M 456.507692 117.787712 
L 456.507692 174.022194 
" style="fill:none;stroke:#454545;stroke-linecap:round;stroke-width:1.5;"/>
   </g>
   <g id="line2d_33">
    <path clip-path="url(#p9f31cb4ea2)" d="M 456.507692 78.167962 
L 456.507692 66.665455 
" style="fill:none;stroke:#454545;stroke-linecap:round;stroke-width:1.5;"/>
   </g>
   <g id="line2d_34">
    <path clip-path="url(#p9f31cb4ea2)" d="M 444.489231 174.022194 
L 468.526154 174.022194 
" style="fill:none;stroke:#454545;stroke-linecap:round;stroke-width:1.5;"/>
   </g>
   <g id="line2d_35">
    <path clip-path="url(#p9f31cb4ea2)" d="M 444.489231 66.665455 
L 468.526154 66.665455 
" style="fill:none;stroke:#454545;stroke-linecap:round;stroke-width:1.5;"/>
   </g>
   <g id="line2d_36">
    <g clip-path="url(#p9f31cb4ea2)">
     <use style="fill:#454545;stroke:#454545;stroke-linejoin:miter;" x="456.507692" xlink:href="#m2fde27717a" y="209.807774"/>
     <use style="fill:#454545;stroke:#454545;stroke-linejoin:miter;" x="456.507692" xlink:href="#m2fde27717a" y="199.583323"/>
     <use style="fill:#454545;stroke:#454545;stroke-linejoin:miter;" x="456.507692" xlink:href="#m2fde27717a" y="184.246646"/>
     <use style="fill:#454545;stroke:#454545;stroke-linejoin:miter;" x="456.507692" xlink:href="#m2fde27717a" y="184.246646"/>
     <use style="fill:#454545;stroke:#454545;stroke-linejoin:miter;" x="456.507692" xlink:href="#m2fde27717a" y="184.246646"/>
     <use style="fill:#454545;stroke:#454545;stroke-linejoin:miter;" x="456.507692" xlink:href="#m2fde27717a" y="179.13442"/>
    </g>
   </g>
   <g id="line2d_37">
    <path clip-path="url(#p9f31cb4ea2)" d="M 516.6 133.124389 
L 516.6 209.807774 
" style="fill:none;stroke:#454545;stroke-linecap:round;stroke-width:1.5;"/>
   </g>
   <g id="line2d_38">
    <path clip-path="url(#p9f31cb4ea2)" d="M 516.6 82.002132 
L 516.6 66.665455 
" style="fill:none;stroke:#454545;stroke-linecap:round;stroke-width:1.5;"/>
   </g>
   <g id="line2d_39">
    <path clip-path="url(#p9f31cb4ea2)" d="M 504.581538 209.807774 
L 528.618462 209.807774 
" style="fill:none;stroke:#454545;stroke-linecap:round;stroke-width:1.5;"/>
   </g>
   <g id="line2d_40">
    <path clip-path="url(#p9f31cb4ea2)" d="M 504.581538 66.665455 
L 528.618462 66.665455 
" style="fill:none;stroke:#454545;stroke-linecap:round;stroke-width:1.5;"/>
   </g>
   <g id="line2d_41">
    <g clip-path="url(#p9f31cb4ea2)">
     <use style="fill:#454545;stroke:#454545;stroke-linejoin:miter;" x="516.6" xlink:href="#m2fde27717a" y="245.593354"/>
     <use style="fill:#454545;stroke:#454545;stroke-linejoin:miter;" x="516.6" xlink:href="#m2fde27717a" y="235.368903"/>
     <use style="fill:#454545;stroke:#454545;stroke-linejoin:miter;" x="516.6" xlink:href="#m2fde27717a" y="235.368903"/>
     <use style="fill:#454545;stroke:#454545;stroke-linejoin:miter;" x="516.6" xlink:href="#m2fde27717a" y="230.256677"/>
     <use style="fill:#454545;stroke:#454545;stroke-linejoin:miter;" x="516.6" xlink:href="#m2fde27717a" y="230.256677"/>
     <use style="fill:#454545;stroke:#454545;stroke-linejoin:miter;" x="516.6" xlink:href="#m2fde27717a" y="225.144451"/>
     <use style="fill:#454545;stroke:#454545;stroke-linejoin:miter;" x="516.6" xlink:href="#m2fde27717a" y="225.144451"/>
     <use style="fill:#454545;stroke:#454545;stroke-linejoin:miter;" x="516.6" xlink:href="#m2fde27717a" y="220.032226"/>
     <use style="fill:#454545;stroke:#454545;stroke-linejoin:miter;" x="516.6" xlink:href="#m2fde27717a" y="214.92"/>
     <use style="fill:#454545;stroke:#454545;stroke-linejoin:miter;" x="516.6" xlink:href="#m2fde27717a" y="214.92"/>
    </g>
   </g>
   <g id="line2d_42">
    <path clip-path="url(#p9f31cb4ea2)" d="M 576.692308 158.685517 
L 576.692308 240.481129 
" style="fill:none;stroke:#454545;stroke-linecap:round;stroke-width:1.5;"/>
   </g>
   <g id="line2d_43">
    <path clip-path="url(#p9f31cb4ea2)" d="M 576.692308 87.114357 
L 576.692308 71.77768 
" style="fill:none;stroke:#454545;stroke-linecap:round;stroke-width:1.5;"/>
   </g>
   <g id="line2d_44">
    <path clip-path="url(#p9f31cb4ea2)" d="M 564.673846 240.481129 
L 588.710769 240.481129 
" style="fill:none;stroke:#454545;stroke-linecap:round;stroke-width:1.5;"/>
   </g>
   <g id="line2d_45">
    <path clip-path="url(#p9f31cb4ea2)" d="M 564.673846 71.77768 
L 588.710769 71.77768 
" style="fill:none;stroke:#454545;stroke-linecap:round;stroke-width:1.5;"/>
   </g>
   <g id="line2d_46"/>
   <g id="line2d_47">
    <path clip-path="url(#p9f31cb4ea2)" d="M 636.784615 145.904953 
L 636.784615 220.032226 
" style="fill:none;stroke:#454545;stroke-linecap:round;stroke-width:1.5;"/>
   </g>
   <g id="line2d_48">
    <path clip-path="url(#p9f31cb4ea2)" d="M 636.784615 84.558245 
L 636.784615 66.665455 
" style="fill:none;stroke:#454545;stroke-linecap:round;stroke-width:1.5;"/>
   </g>
   <g id="line2d_49">
    <path clip-path="url(#p9f31cb4ea2)" d="M 624.766154 220.032226 
L 648.803077 220.032226 
" style="fill:none;stroke:#454545;stroke-linecap:round;stroke-width:1.5;"/>
   </g>
   <g id="line2d_50">
    <path clip-path="url(#p9f31cb4ea2)" d="M 624.766154 66.665455 
L 648.803077 66.665455 
" style="fill:none;stroke:#454545;stroke-linecap:round;stroke-width:1.5;"/>
   </g>
   <g id="line2d_51">
    <g clip-path="url(#p9f31cb4ea2)">
     <use style="fill:#454545;stroke:#454545;stroke-linejoin:miter;" x="636.784615" xlink:href="#m2fde27717a" y="255.817806"/>
    </g>
   </g>
   <g id="line2d_52">
    <path clip-path="url(#p9f31cb4ea2)" d="M 696.876923 122.899937 
L 696.876923 174.022194 
" style="fill:none;stroke:#454545;stroke-linecap:round;stroke-width:1.5;"/>
   </g>
   <g id="line2d_53">
    <path clip-path="url(#p9f31cb4ea2)" d="M 696.876923 82.002132 
L 696.876923 66.665455 
" style="fill:none;stroke:#454545;stroke-linecap:round;stroke-width:1.5;"/>
   </g>
   <g id="line2d_54">
    <path clip-path="url(#p9f31cb4ea2)" d="M 684.858462 174.022194 
L 708.895385 174.022194 
" style="fill:none;stroke:#454545;stroke-linecap:round;stroke-width:1.5;"/>
   </g>
   <g id="line2d_55">
    <path clip-path="url(#p9f31cb4ea2)" d="M 684.858462 66.665455 
L 708.895385 66.665455 
" style="fill:none;stroke:#454545;stroke-linecap:round;stroke-width:1.5;"/>
   </g>
   <g id="line2d_56">
    <g clip-path="url(#p9f31cb4ea2)">
     <use style="fill:#454545;stroke:#454545;stroke-linejoin:miter;" x="696.876923" xlink:href="#m2fde27717a" y="189.358871"/>
    </g>
   </g>
   <g id="line2d_57">
    <path clip-path="url(#p9f31cb4ea2)" d="M 756.969231 117.787712 
L 756.969231 153.573292 
" style="fill:none;stroke:#454545;stroke-linecap:round;stroke-width:1.5;"/>
   </g>
   <g id="line2d_58">
    <path clip-path="url(#p9f31cb4ea2)" d="M 756.969231 87.114357 
L 756.969231 76.889906 
" style="fill:none;stroke:#454545;stroke-linecap:round;stroke-width:1.5;"/>
   </g>
   <g id="line2d_59">
    <path clip-path="url(#p9f31cb4ea2)" d="M 744.950769 153.573292 
L 768.987692 153.573292 
" style="fill:none;stroke:#454545;stroke-linecap:round;stroke-width:1.5;"/>
   </g>
   <g id="line2d_60">
    <path clip-path="url(#p9f31cb4ea2)" d="M 744.950769 76.889906 
L 768.987692 76.889906 
" style="fill:none;stroke:#454545;stroke-linecap:round;stroke-width:1.5;"/>
   </g>
   <g id="line2d_61">
    <g clip-path="url(#p9f31cb4ea2)">
     <use style="fill:#454545;stroke:#454545;stroke-linejoin:miter;" x="756.969231" xlink:href="#m2fde27717a" y="199.583323"/>
    </g>
   </g>
   <g id="line2d_62">
    <path clip-path="url(#p9f31cb4ea2)" d="M 817.061538 189.358871 
L 817.061538 291.603386 
" style="fill:none;stroke:#454545;stroke-linecap:round;stroke-width:1.5;"/>
   </g>
   <g id="line2d_63">
    <path clip-path="url(#p9f31cb4ea2)" d="M 817.061538 117.787712 
L 817.061538 66.665455 
" style="fill:none;stroke:#454545;stroke-linecap:round;stroke-width:1.5;"/>
   </g>
   <g id="line2d_64">
    <path clip-path="url(#p9f31cb4ea2)" d="M 805.043077 291.603386 
L 829.08 291.603386 
" style="fill:none;stroke:#454545;stroke-linecap:round;stroke-width:1.5;"/>
   </g>
   <g id="line2d_65">
    <path clip-path="url(#p9f31cb4ea2)" d="M 805.043077 66.665455 
L 829.08 66.665455 
" style="fill:none;stroke:#454545;stroke-linecap:round;stroke-width:1.5;"/>
   </g>
   <g id="line2d_66">
    <g clip-path="url(#p9f31cb4ea2)">
     <use style="fill:#454545;stroke:#454545;stroke-linejoin:miter;" x="817.061538" xlink:href="#m2fde27717a" y="322.27674"/>
     <use style="fill:#454545;stroke:#454545;stroke-linejoin:miter;" x="817.061538" xlink:href="#m2fde27717a" y="322.27674"/>
     <use style="fill:#454545;stroke:#454545;stroke-linejoin:miter;" x="817.061538" xlink:href="#m2fde27717a" y="296.715611"/>
     <use style="fill:#454545;stroke:#454545;stroke-linejoin:miter;" x="817.061538" xlink:href="#m2fde27717a" y="296.715611"/>
    </g>
   </g>
   <g id="line2d_67">
    <path clip-path="url(#p9f31cb4ea2)" d="M 877.153846 220.032226 
L 877.153846 337.613417 
" style="fill:none;stroke:#454545;stroke-linecap:round;stroke-width:1.5;"/>
   </g>
   <g id="line2d_68">
    <path clip-path="url(#p9f31cb4ea2)" d="M 877.153846 138.236614 
L 877.153846 66.665455 
" style="fill:none;stroke:#454545;stroke-linecap:round;stroke-width:1.5;"/>
   </g>
   <g id="line2d_69">
    <path clip-path="url(#p9f31cb4ea2)" d="M 865.135385 337.613417 
L 889.172308 337.613417 
" style="fill:none;stroke:#454545;stroke-linecap:round;stroke-width:1.5;"/>
   </g>
   <g id="line2d_70">
    <path clip-path="url(#p9f31cb4ea2)" d="M 865.135385 66.665455 
L 889.172308 66.665455 
" style="fill:none;stroke:#454545;stroke-linecap:round;stroke-width:1.5;"/>
   </g>
   <g id="line2d_71">
    <g clip-path="url(#p9f31cb4ea2)">
     <use style="fill:#454545;stroke:#454545;stroke-linejoin:miter;" x="877.153846" xlink:href="#m2fde27717a" y="363.174545"/>
     <use style="fill:#454545;stroke:#454545;stroke-linejoin:miter;" x="877.153846" xlink:href="#m2fde27717a" y="347.837868"/>
    </g>
   </g>
   <g id="line2d_72">
    <path clip-path="url(#p9f31cb4ea2)" d="M 132.009231 97.338809 
L 180.083077 97.338809 
" style="fill:none;stroke:#454545;stroke-linecap:round;stroke-width:1.5;"/>
   </g>
   <g id="line2d_73">
    <path clip-path="url(#p9f31cb4ea2)" d="M 192.101538 82.002132 
L 240.175385 82.002132 
" style="fill:none;stroke:#454545;stroke-linecap:round;stroke-width:1.5;"/>
   </g>
   <g id="line2d_74">
    <path clip-path="url(#p9f31cb4ea2)" d="M 252.193846 71.77768 
L 300.267692 71.77768 
" style="fill:none;stroke:#454545;stroke-linecap:round;stroke-width:1.5;"/>
   </g>
   <g id="line2d_75">
    <path clip-path="url(#p9f31cb4ea2)" d="M 312.286154 92.226583 
L 360.36 92.226583 
" style="fill:none;stroke:#454545;stroke-linecap:round;stroke-width:1.5;"/>
   </g>
   <g id="line2d_76">
    <path clip-path="url(#p9f31cb4ea2)" d="M 372.378462 97.338809 
L 420.452308 97.338809 
" style="fill:none;stroke:#454545;stroke-linecap:round;stroke-width:1.5;"/>
   </g>
   <g id="line2d_77">
    <path clip-path="url(#p9f31cb4ea2)" d="M 432.470769 92.226583 
L 480.544615 92.226583 
" style="fill:none;stroke:#454545;stroke-linecap:round;stroke-width:1.5;"/>
   </g>
   <g id="line2d_78">
    <path clip-path="url(#p9f31cb4ea2)" d="M 492.563077 107.56326 
L 540.636923 107.56326 
" style="fill:none;stroke:#454545;stroke-linecap:round;stroke-width:1.5;"/>
   </g>
   <g id="line2d_79">
    <path clip-path="url(#p9f31cb4ea2)" d="M 552.655385 112.675486 
L 600.729231 112.675486 
" style="fill:none;stroke:#454545;stroke-linecap:round;stroke-width:1.5;"/>
   </g>
   <g id="line2d_80">
    <path clip-path="url(#p9f31cb4ea2)" d="M 612.747692 112.675486 
L 660.821538 112.675486 
" style="fill:none;stroke:#454545;stroke-linecap:round;stroke-width:1.5;"/>
   </g>
   <g id="line2d_81">
    <path clip-path="url(#p9f31cb4ea2)" d="M 672.84 97.338809 
L 720.913846 97.338809 
" style="fill:none;stroke:#454545;stroke-linecap:round;stroke-width:1.5;"/>
   </g>
   <g id="line2d_82">
    <path clip-path="url(#p9f31cb4ea2)" d="M 732.932308 97.338809 
L 781.006154 97.338809 
" style="fill:none;stroke:#454545;stroke-linecap:round;stroke-width:1.5;"/>
   </g>
   <g id="line2d_83">
    <path clip-path="url(#p9f31cb4ea2)" d="M 793.024615 153.573292 
L 841.098462 153.573292 
" style="fill:none;stroke:#454545;stroke-linecap:round;stroke-width:1.5;"/>
   </g>
   <g id="line2d_84">
    <path clip-path="url(#p9f31cb4ea2)" d="M 853.116923 179.13442 
L 901.190769 179.13442 
" style="fill:none;stroke:#454545;stroke-linecap:round;stroke-width:1.5;"/>
   </g>
   <g id="patch_16">
    <path d="M 126 378 
L 126 51.84 
" style="fill:none;stroke:#ffffff;stroke-linecap:square;stroke-linejoin:miter;stroke-width:1.25;"/>
   </g>
   <g id="patch_17">
    <path d="M 907.2 378 
L 907.2 51.84 
" style="fill:none;stroke:#ffffff;stroke-linecap:square;stroke-linejoin:miter;stroke-width:1.25;"/>
   </g>
   <g id="patch_18">
    <path d="M 126 378 
L 907.2 378 
" style="fill:none;stroke:#ffffff;stroke-linecap:square;stroke-linejoin:miter;stroke-width:1.25;"/>
   </g>
   <g id="patch_19">
    <path d="M 126 51.84 
L 907.2 51.84 
" style="fill:none;stroke:#ffffff;stroke-linecap:square;stroke-linejoin:miter;stroke-width:1.25;"/>
   </g>
  </g>
 </g>
 <defs>
  <clipPath id="p9f31cb4ea2">
   <rect height="326.16" width="781.2" x="126" y="51.84"/>
  </clipPath>
 </defs>
</svg>
