<?xml version="1.0" encoding="utf-8" standalone="no"?>
<!DOCTYPE svg PUBLIC "-//W3C//DTD SVG 1.1//EN"
  "http://www.w3.org/Graphics/SVG/1.1/DTD/svg11.dtd">
<!-- Created with matplotlib (https://matplotlib.org/) -->
<svg height="432pt" version="1.1" viewBox="0 0 1008 432" width="1008pt" xmlns="http://www.w3.org/2000/svg" xmlns:xlink="http://www.w3.org/1999/xlink">
 <defs>
  <style type="text/css">
*{stroke-linecap:butt;stroke-linejoin:round;}
  </style>
 </defs>
 <g id="figure_1">
  <g id="patch_1">
   <path d="M 0 432 
L 1008 432 
L 1008 0 
L 0 0 
z
" style="fill:#ffffff;"/>
  </g>
  <g id="axes_1">
   <g id="patch_2">
    <path d="M 126 378 
L 907.2 378 
L 907.2 51.84 
L 126 51.84 
z
" style="fill:#eaeaf2;"/>
   </g>
   <g id="matplotlib.axis_1">
    <g id="xtick_1">
     <g id="text_1">
      <!-- 0 -->
      <defs>
       <path d="M 4.15625 35.296875 
Q 4.15625 48 6.765625 55.734375 
Q 9.375 63.484375 14.515625 67.671875 
Q 19.671875 71.875 27.484375 71.875 
Q 33.25 71.875 37.59375 69.546875 
Q 41.9375 67.234375 44.765625 62.859375 
Q 47.609375 58.5 49.21875 52.21875 
Q 50.828125 45.953125 50.828125 35.296875 
Q 50.828125 22.703125 48.234375 14.96875 
Q 45.65625 7.234375 40.5 3 
Q 35.359375 -1.21875 27.484375 -1.21875 
Q 17.140625 -1.21875 11.234375 6.203125 
Q 4.15625 15.140625 4.15625 35.296875 
z
M 13.1875 35.296875 
Q 13.1875 17.671875 17.3125 11.828125 
Q 21.4375 6 27.484375 6 
Q 33.546875 6 37.671875 11.859375 
Q 41.796875 17.71875 41.796875 35.296875 
Q 41.796875 52.984375 37.671875 58.78125 
Q 33.546875 64.59375 27.390625 64.59375 
Q 21.34375 64.59375 17.71875 59.46875 
Q 13.1875 52.9375 13.1875 35.296875 
z
" id="ArialMT-48"/>
      </defs>
      <g style="fill:#262626;" transform="translate(147.353984 395.373594)scale(0.11 -0.11)">
       <use xlink:href="#ArialMT-48"/>
      </g>
     </g>
    </g>
    <g id="xtick_2">
     <g id="text_2">
      <!-- 1 -->
      <defs>
       <path d="M 37.25 0 
L 28.46875 0 
L 28.46875 56 
Q 25.296875 52.984375 20.140625 49.953125 
Q 14.984375 46.921875 10.890625 45.40625 
L 10.890625 53.90625 
Q 18.265625 57.375 23.78125 62.296875 
Q 29.296875 67.234375 31.59375 71.875 
L 37.25 71.875 
z
" id="ArialMT-49"/>
      </defs>
      <g style="fill:#262626;" transform="translate(196.178984 395.373594)scale(0.11 -0.11)">
       <use xlink:href="#ArialMT-49"/>
      </g>
     </g>
    </g>
    <g id="xtick_3">
     <g id="text_3">
      <!-- 2 -->
      <defs>
       <path d="M 50.34375 8.453125 
L 50.34375 0 
L 3.03125 0 
Q 2.9375 3.171875 4.046875 6.109375 
Q 5.859375 10.9375 9.828125 15.625 
Q 13.8125 20.3125 21.34375 26.46875 
Q 33.015625 36.03125 37.109375 41.625 
Q 41.21875 47.21875 41.21875 52.203125 
Q 41.21875 57.421875 37.46875 61 
Q 33.734375 64.59375 27.734375 64.59375 
Q 21.390625 64.59375 17.578125 60.78125 
Q 13.765625 56.984375 13.71875 50.25 
L 4.6875 51.171875 
Q 5.609375 61.28125 11.65625 66.578125 
Q 17.71875 71.875 27.9375 71.875 
Q 38.234375 71.875 44.234375 66.15625 
Q 50.25 60.453125 50.25 52 
Q 50.25 47.703125 48.484375 43.546875 
Q 46.734375 39.40625 42.65625 34.8125 
Q 38.578125 30.21875 29.109375 22.21875 
Q 21.1875 15.578125 18.9375 13.203125 
Q 16.703125 10.84375 15.234375 8.453125 
z
" id="ArialMT-50"/>
      </defs>
      <g style="fill:#262626;" transform="translate(245.003984 395.373594)scale(0.11 -0.11)">
       <use xlink:href="#ArialMT-50"/>
      </g>
     </g>
    </g>
    <g id="xtick_4">
     <g id="text_4">
      <!-- 3 -->
      <defs>
       <path d="M 4.203125 18.890625 
L 12.984375 20.0625 
Q 14.5 12.59375 18.140625 9.296875 
Q 21.78125 6 27 6 
Q 33.203125 6 37.46875 10.296875 
Q 41.75 14.59375 41.75 20.953125 
Q 41.75 27 37.796875 30.921875 
Q 33.84375 34.859375 27.734375 34.859375 
Q 25.25 34.859375 21.53125 33.890625 
L 22.515625 41.609375 
Q 23.390625 41.5 23.921875 41.5 
Q 29.546875 41.5 34.03125 44.421875 
Q 38.53125 47.359375 38.53125 53.46875 
Q 38.53125 58.296875 35.25 61.46875 
Q 31.984375 64.65625 26.8125 64.65625 
Q 21.6875 64.65625 18.265625 61.421875 
Q 14.84375 58.203125 13.875 51.765625 
L 5.078125 53.328125 
Q 6.6875 62.15625 12.390625 67.015625 
Q 18.109375 71.875 26.609375 71.875 
Q 32.46875 71.875 37.390625 69.359375 
Q 42.328125 66.84375 44.9375 62.5 
Q 47.5625 58.15625 47.5625 53.265625 
Q 47.5625 48.640625 45.0625 44.828125 
Q 42.578125 41.015625 37.703125 38.765625 
Q 44.046875 37.3125 47.5625 32.6875 
Q 51.078125 28.078125 51.078125 21.140625 
Q 51.078125 11.765625 44.234375 5.25 
Q 37.40625 -1.265625 26.953125 -1.265625 
Q 17.53125 -1.265625 11.296875 4.34375 
Q 5.078125 9.96875 4.203125 18.890625 
z
" id="ArialMT-51"/>
      </defs>
      <g style="fill:#262626;" transform="translate(293.828984 395.373594)scale(0.11 -0.11)">
       <use xlink:href="#ArialMT-51"/>
      </g>
     </g>
    </g>
    <g id="xtick_5">
     <g id="text_5">
      <!-- 4 -->
      <defs>
       <path d="M 32.328125 0 
L 32.328125 17.140625 
L 1.265625 17.140625 
L 1.265625 25.203125 
L 33.9375 71.578125 
L 41.109375 71.578125 
L 41.109375 25.203125 
L 50.78125 25.203125 
L 50.78125 17.140625 
L 41.109375 17.140625 
L 41.109375 0 
z
M 32.328125 25.203125 
L 32.328125 57.46875 
L 9.90625 25.203125 
z
" id="ArialMT-52"/>
      </defs>
      <g style="fill:#262626;" transform="translate(342.653984 395.373594)scale(0.11 -0.11)">
       <use xlink:href="#ArialMT-52"/>
      </g>
     </g>
    </g>
    <g id="xtick_6">
     <g id="text_6">
      <!-- 5 -->
      <defs>
       <path d="M 4.15625 18.75 
L 13.375 19.53125 
Q 14.40625 12.796875 18.140625 9.390625 
Q 21.875 6 27.15625 6 
Q 33.5 6 37.890625 10.78125 
Q 42.28125 15.578125 42.28125 23.484375 
Q 42.28125 31 38.0625 35.34375 
Q 33.84375 39.703125 27 39.703125 
Q 22.75 39.703125 19.328125 37.765625 
Q 15.921875 35.84375 13.96875 32.765625 
L 5.71875 33.84375 
L 12.640625 70.609375 
L 48.25 70.609375 
L 48.25 62.203125 
L 19.671875 62.203125 
L 15.828125 42.96875 
Q 22.265625 47.46875 29.34375 47.46875 
Q 38.71875 47.46875 45.15625 40.96875 
Q 51.609375 34.46875 51.609375 24.265625 
Q 51.609375 14.546875 45.953125 7.46875 
Q 39.0625 -1.21875 27.15625 -1.21875 
Q 17.390625 -1.21875 11.203125 4.25 
Q 5.03125 9.71875 4.15625 18.75 
z
" id="ArialMT-53"/>
      </defs>
      <g style="fill:#262626;" transform="translate(391.478984 395.373594)scale(0.11 -0.11)">
       <use xlink:href="#ArialMT-53"/>
      </g>
     </g>
    </g>
    <g id="xtick_7">
     <g id="text_7">
      <!-- 6 -->
      <defs>
       <path d="M 49.75 54.046875 
L 41.015625 53.375 
Q 39.84375 58.546875 37.703125 60.890625 
Q 34.125 64.65625 28.90625 64.65625 
Q 24.703125 64.65625 21.53125 62.3125 
Q 17.390625 59.28125 14.984375 53.46875 
Q 12.59375 47.65625 12.5 36.921875 
Q 15.671875 41.75 20.265625 44.09375 
Q 24.859375 46.4375 29.890625 46.4375 
Q 38.671875 46.4375 44.84375 39.96875 
Q 51.03125 33.5 51.03125 23.25 
Q 51.03125 16.5 48.125 10.71875 
Q 45.21875 4.9375 40.140625 1.859375 
Q 35.0625 -1.21875 28.609375 -1.21875 
Q 17.625 -1.21875 10.6875 6.859375 
Q 3.765625 14.9375 3.765625 33.5 
Q 3.765625 54.25 11.421875 63.671875 
Q 18.109375 71.875 29.4375 71.875 
Q 37.890625 71.875 43.28125 67.140625 
Q 48.6875 62.40625 49.75 54.046875 
z
M 13.875 23.1875 
Q 13.875 18.65625 15.796875 14.5 
Q 17.71875 10.359375 21.1875 8.171875 
Q 24.65625 6 28.46875 6 
Q 34.03125 6 38.03125 10.484375 
Q 42.046875 14.984375 42.046875 22.703125 
Q 42.046875 30.125 38.078125 34.390625 
Q 34.125 38.671875 28.125 38.671875 
Q 22.171875 38.671875 18.015625 34.390625 
Q 13.875 30.125 13.875 23.1875 
z
" id="ArialMT-54"/>
      </defs>
      <g style="fill:#262626;" transform="translate(440.303984 395.373594)scale(0.11 -0.11)">
       <use xlink:href="#ArialMT-54"/>
      </g>
     </g>
    </g>
    <g id="xtick_8">
     <g id="text_8">
      <!-- 7 -->
      <defs>
       <path d="M 4.734375 62.203125 
L 4.734375 70.65625 
L 51.078125 70.65625 
L 51.078125 63.8125 
Q 44.234375 56.546875 37.515625 44.484375 
Q 30.8125 32.421875 27.15625 19.671875 
Q 24.515625 10.6875 23.78125 0 
L 14.75 0 
Q 14.890625 8.453125 18.0625 20.40625 
Q 21.234375 32.375 27.171875 43.484375 
Q 33.109375 54.59375 39.796875 62.203125 
z
" id="ArialMT-55"/>
      </defs>
      <g style="fill:#262626;" transform="translate(489.128984 395.373594)scale(0.11 -0.11)">
       <use xlink:href="#ArialMT-55"/>
      </g>
     </g>
    </g>
    <g id="xtick_9">
     <g id="text_9">
      <!-- 8 -->
      <defs>
       <path d="M 17.671875 38.8125 
Q 12.203125 40.828125 9.5625 44.53125 
Q 6.9375 48.25 6.9375 53.421875 
Q 6.9375 61.234375 12.546875 66.546875 
Q 18.171875 71.875 27.484375 71.875 
Q 36.859375 71.875 42.578125 66.421875 
Q 48.296875 60.984375 48.296875 53.171875 
Q 48.296875 48.1875 45.671875 44.5 
Q 43.0625 40.828125 37.75 38.8125 
Q 44.34375 36.671875 47.78125 31.875 
Q 51.21875 27.09375 51.21875 20.453125 
Q 51.21875 11.28125 44.71875 5.03125 
Q 38.234375 -1.21875 27.640625 -1.21875 
Q 17.046875 -1.21875 10.546875 5.046875 
Q 4.046875 11.328125 4.046875 20.703125 
Q 4.046875 27.6875 7.59375 32.390625 
Q 11.140625 37.109375 17.671875 38.8125 
z
M 15.921875 53.71875 
Q 15.921875 48.640625 19.1875 45.40625 
Q 22.46875 42.1875 27.6875 42.1875 
Q 32.765625 42.1875 36.015625 45.375 
Q 39.265625 48.578125 39.265625 53.21875 
Q 39.265625 58.0625 35.90625 61.359375 
Q 32.5625 64.65625 27.59375 64.65625 
Q 22.5625 64.65625 19.234375 61.421875 
Q 15.921875 58.203125 15.921875 53.71875 
z
M 13.09375 20.65625 
Q 13.09375 16.890625 14.875 13.375 
Q 16.65625 9.859375 20.171875 7.921875 
Q 23.6875 6 27.734375 6 
Q 34.03125 6 38.125 10.046875 
Q 42.234375 14.109375 42.234375 20.359375 
Q 42.234375 26.703125 38.015625 30.859375 
Q 33.796875 35.015625 27.4375 35.015625 
Q 21.234375 35.015625 17.15625 30.90625 
Q 13.09375 26.8125 13.09375 20.65625 
z
" id="ArialMT-56"/>
      </defs>
      <g style="fill:#262626;" transform="translate(537.953984 395.373594)scale(0.11 -0.11)">
       <use xlink:href="#ArialMT-56"/>
      </g>
     </g>
    </g>
    <g id="xtick_10">
     <g id="text_10">
      <!-- 9 -->
      <defs>
       <path d="M 5.46875 16.546875 
L 13.921875 17.328125 
Q 14.984375 11.375 18.015625 8.6875 
Q 21.046875 6 25.78125 6 
Q 29.828125 6 32.875 7.859375 
Q 35.9375 9.71875 37.890625 12.8125 
Q 39.84375 15.921875 41.15625 21.1875 
Q 42.484375 26.46875 42.484375 31.9375 
Q 42.484375 32.515625 42.4375 33.6875 
Q 39.796875 29.5 35.234375 26.875 
Q 30.671875 24.265625 25.34375 24.265625 
Q 16.453125 24.265625 10.296875 30.703125 
Q 4.15625 37.15625 4.15625 47.703125 
Q 4.15625 58.59375 10.578125 65.234375 
Q 17 71.875 26.65625 71.875 
Q 33.640625 71.875 39.421875 68.109375 
Q 45.21875 64.359375 48.21875 57.390625 
Q 51.21875 50.4375 51.21875 37.25 
Q 51.21875 23.53125 48.234375 15.40625 
Q 45.265625 7.28125 39.375 3.03125 
Q 33.5 -1.21875 25.59375 -1.21875 
Q 17.1875 -1.21875 11.859375 3.4375 
Q 6.546875 8.109375 5.46875 16.546875 
z
M 41.453125 48.140625 
Q 41.453125 55.71875 37.421875 60.15625 
Q 33.40625 64.59375 27.734375 64.59375 
Q 21.875 64.59375 17.53125 59.8125 
Q 13.1875 55.03125 13.1875 47.40625 
Q 13.1875 40.578125 17.3125 36.296875 
Q 21.4375 32.03125 27.484375 32.03125 
Q 33.59375 32.03125 37.515625 36.296875 
Q 41.453125 40.578125 41.453125 48.140625 
z
" id="ArialMT-57"/>
      </defs>
      <g style="fill:#262626;" transform="translate(586.778984 395.373594)scale(0.11 -0.11)">
       <use xlink:href="#ArialMT-57"/>
      </g>
     </g>
    </g>
    <g id="xtick_11">
     <g id="text_11">
      <!-- 10 -->
      <g style="fill:#262626;" transform="translate(632.545469 395.373594)scale(0.11 -0.11)">
       <use xlink:href="#ArialMT-49"/>
       <use x="55.615234" xlink:href="#ArialMT-48"/>
      </g>
     </g>
    </g>
    <g id="xtick_12">
     <g id="text_12">
      <!-- 11 -->
      <g style="fill:#262626;" transform="translate(681.376484 395.373594)scale(0.11 -0.11)">
       <use xlink:href="#ArialMT-49"/>
       <use x="55.505859" xlink:href="#ArialMT-49"/>
      </g>
     </g>
    </g>
    <g id="xtick_13">
     <g id="text_13">
      <!-- 12 -->
      <g style="fill:#262626;" transform="translate(730.195469 395.373594)scale(0.11 -0.11)">
       <use xlink:href="#ArialMT-49"/>
       <use x="55.615234" xlink:href="#ArialMT-50"/>
      </g>
     </g>
    </g>
    <g id="xtick_14">
     <g id="text_14">
      <!-- 13 -->
      <g style="fill:#262626;" transform="translate(779.020469 395.373594)scale(0.11 -0.11)">
       <use xlink:href="#ArialMT-49"/>
       <use x="55.615234" xlink:href="#ArialMT-51"/>
      </g>
     </g>
    </g>
    <g id="xtick_15">
     <g id="text_15">
      <!-- 14 -->
      <g style="fill:#262626;" transform="translate(827.845469 395.373594)scale(0.11 -0.11)">
       <use xlink:href="#ArialMT-49"/>
       <use x="55.615234" xlink:href="#ArialMT-52"/>
      </g>
     </g>
    </g>
    <g id="xtick_16">
     <g id="text_16">
      <!-- 15 -->
      <g style="fill:#262626;" transform="translate(876.670469 395.373594)scale(0.11 -0.11)">
       <use xlink:href="#ArialMT-49"/>
       <use x="55.615234" xlink:href="#ArialMT-53"/>
      </g>
     </g>
    </g>
    <g id="text_17">
     <!-- gen -->
     <defs>
      <path d="M 4.984375 -4.296875 
L 13.53125 -5.5625 
Q 14.0625 -9.515625 16.5 -11.328125 
Q 19.78125 -13.765625 25.4375 -13.765625 
Q 31.546875 -13.765625 34.859375 -11.328125 
Q 38.1875 -8.890625 39.359375 -4.5 
Q 40.046875 -1.8125 39.984375 6.78125 
Q 34.234375 0 25.640625 0 
Q 14.9375 0 9.078125 7.71875 
Q 3.21875 15.4375 3.21875 26.21875 
Q 3.21875 33.640625 5.90625 39.90625 
Q 8.59375 46.1875 13.6875 49.609375 
Q 18.796875 53.03125 25.6875 53.03125 
Q 34.859375 53.03125 40.828125 45.609375 
L 40.828125 51.859375 
L 48.921875 51.859375 
L 48.921875 7.03125 
Q 48.921875 -5.078125 46.453125 -10.125 
Q 44 -15.1875 38.640625 -18.109375 
Q 33.296875 -21.046875 25.484375 -21.046875 
Q 16.21875 -21.046875 10.5 -16.875 
Q 4.78125 -12.703125 4.984375 -4.296875 
z
M 12.25 26.859375 
Q 12.25 16.65625 16.296875 11.96875 
Q 20.359375 7.28125 26.46875 7.28125 
Q 32.515625 7.28125 36.609375 11.9375 
Q 40.71875 16.609375 40.71875 26.5625 
Q 40.71875 36.078125 36.5 40.90625 
Q 32.28125 45.75 26.3125 45.75 
Q 20.453125 45.75 16.34375 40.984375 
Q 12.25 36.234375 12.25 26.859375 
z
" id="ArialMT-103"/>
      <path d="M 42.09375 16.703125 
L 51.171875 15.578125 
Q 49.03125 7.625 43.21875 3.21875 
Q 37.40625 -1.171875 28.375 -1.171875 
Q 17 -1.171875 10.328125 5.828125 
Q 3.65625 12.84375 3.65625 25.484375 
Q 3.65625 38.578125 10.390625 45.796875 
Q 17.140625 53.03125 27.875 53.03125 
Q 38.28125 53.03125 44.875 45.953125 
Q 51.46875 38.875 51.46875 26.03125 
Q 51.46875 25.25 51.421875 23.6875 
L 12.75 23.6875 
Q 13.234375 15.140625 17.578125 10.59375 
Q 21.921875 6.0625 28.421875 6.0625 
Q 33.25 6.0625 36.671875 8.59375 
Q 40.09375 11.140625 42.09375 16.703125 
z
M 13.234375 30.90625 
L 42.1875 30.90625 
Q 41.609375 37.453125 38.875 40.71875 
Q 34.671875 45.796875 27.984375 45.796875 
Q 21.921875 45.796875 17.796875 41.75 
Q 13.671875 37.703125 13.234375 30.90625 
z
" id="ArialMT-101"/>
      <path d="M 6.59375 0 
L 6.59375 51.859375 
L 14.5 51.859375 
L 14.5 44.484375 
Q 20.21875 53.03125 31 53.03125 
Q 35.6875 53.03125 39.625 51.34375 
Q 43.5625 49.65625 45.515625 46.921875 
Q 47.46875 44.1875 48.25 40.4375 
Q 48.734375 37.984375 48.734375 31.890625 
L 48.734375 0 
L 39.9375 0 
L 39.9375 31.546875 
Q 39.9375 36.921875 38.90625 39.578125 
Q 37.890625 42.234375 35.28125 43.8125 
Q 32.671875 45.40625 29.15625 45.40625 
Q 23.53125 45.40625 19.453125 41.84375 
Q 15.375 38.28125 15.375 28.328125 
L 15.375 0 
z
" id="ArialMT-110"/>
     </defs>
     <g style="fill:#262626;" transform="translate(506.590313 410.008594)scale(0.12 -0.12)">
      <use xlink:href="#ArialMT-103"/>
      <use x="55.615234" xlink:href="#ArialMT-101"/>
      <use x="111.230469" xlink:href="#ArialMT-110"/>
     </g>
    </g>
   </g>
   <g id="matplotlib.axis_2">
    <g id="ytick_1">
     <g id="line2d_1">
      <path clip-path="url(#pe071c6c5a8)" d="M 126 346.586907 
L 907.2 346.586907 
" style="fill:none;stroke:#ffffff;stroke-linecap:round;"/>
     </g>
     <g id="text_18">
      <!-- −4 -->
      <defs>
       <path d="M 52.828125 31.203125 
L 5.5625 31.203125 
L 5.5625 39.40625 
L 52.828125 39.40625 
z
" id="ArialMT-8722"/>
      </defs>
      <g style="fill:#262626;" transform="translate(103.958281 350.523704)scale(0.11 -0.11)">
       <use xlink:href="#ArialMT-8722"/>
       <use x="58.398438" xlink:href="#ArialMT-52"/>
      </g>
     </g>
    </g>
    <g id="ytick_2">
     <g id="line2d_2">
      <path clip-path="url(#pe071c6c5a8)" d="M 126 284.379375 
L 907.2 284.379375 
" style="fill:none;stroke:#ffffff;stroke-linecap:round;"/>
     </g>
     <g id="text_19">
      <!-- −2 -->
      <g style="fill:#262626;" transform="translate(103.958281 288.316172)scale(0.11 -0.11)">
       <use xlink:href="#ArialMT-8722"/>
       <use x="58.398438" xlink:href="#ArialMT-50"/>
      </g>
     </g>
    </g>
    <g id="ytick_3">
     <g id="line2d_3">
      <path clip-path="url(#pe071c6c5a8)" d="M 126 222.171843 
L 907.2 222.171843 
" style="fill:none;stroke:#ffffff;stroke-linecap:round;"/>
     </g>
     <g id="text_20">
      <!-- 0 -->
      <g style="fill:#262626;" transform="translate(110.382969 226.10864)scale(0.11 -0.11)">
       <use xlink:href="#ArialMT-48"/>
      </g>
     </g>
    </g>
    <g id="ytick_4">
     <g id="line2d_4">
      <path clip-path="url(#pe071c6c5a8)" d="M 126 159.964311 
L 907.2 159.964311 
" style="fill:none;stroke:#ffffff;stroke-linecap:round;"/>
     </g>
     <g id="text_21">
      <!-- 2 -->
      <g style="fill:#262626;" transform="translate(110.382969 163.901108)scale(0.11 -0.11)">
       <use xlink:href="#ArialMT-50"/>
      </g>
     </g>
    </g>
    <g id="ytick_5">
     <g id="line2d_5">
      <path clip-path="url(#pe071c6c5a8)" d="M 126 97.756779 
L 907.2 97.756779 
" style="fill:none;stroke:#ffffff;stroke-linecap:round;"/>
     </g>
     <g id="text_22">
      <!-- 4 -->
      <g style="fill:#262626;" transform="translate(110.382969 101.693576)scale(0.11 -0.11)">
       <use xlink:href="#ArialMT-52"/>
      </g>
     </g>
    </g>
    <g id="text_23">
     <!-- logp -->
     <defs>
      <path d="M 6.390625 0 
L 6.390625 71.578125 
L 15.1875 71.578125 
L 15.1875 0 
z
" id="ArialMT-108"/>
      <path d="M 3.328125 25.921875 
Q 3.328125 40.328125 11.328125 47.265625 
Q 18.015625 53.03125 27.640625 53.03125 
Q 38.328125 53.03125 45.109375 46.015625 
Q 51.90625 39.015625 51.90625 26.65625 
Q 51.90625 16.65625 48.90625 10.90625 
Q 45.90625 5.171875 40.15625 2 
Q 34.421875 -1.171875 27.640625 -1.171875 
Q 16.75 -1.171875 10.03125 5.8125 
Q 3.328125 12.796875 3.328125 25.921875 
z
M 12.359375 25.921875 
Q 12.359375 15.96875 16.703125 11.015625 
Q 21.046875 6.0625 27.640625 6.0625 
Q 34.1875 6.0625 38.53125 11.03125 
Q 42.875 16.015625 42.875 26.21875 
Q 42.875 35.84375 38.5 40.796875 
Q 34.125 45.75 27.640625 45.75 
Q 21.046875 45.75 16.703125 40.8125 
Q 12.359375 35.890625 12.359375 25.921875 
z
" id="ArialMT-111"/>
      <path d="M 6.59375 -19.875 
L 6.59375 51.859375 
L 14.59375 51.859375 
L 14.59375 45.125 
Q 17.4375 49.078125 21 51.046875 
Q 24.5625 53.03125 29.640625 53.03125 
Q 36.28125 53.03125 41.359375 49.609375 
Q 46.4375 46.1875 49.015625 39.953125 
Q 51.609375 33.734375 51.609375 26.3125 
Q 51.609375 18.359375 48.75 11.984375 
Q 45.90625 5.609375 40.453125 2.21875 
Q 35.015625 -1.171875 29 -1.171875 
Q 24.609375 -1.171875 21.109375 0.6875 
Q 17.625 2.546875 15.375 5.375 
L 15.375 -19.875 
z
M 14.546875 25.640625 
Q 14.546875 15.625 18.59375 10.84375 
Q 22.65625 6.0625 28.421875 6.0625 
Q 34.28125 6.0625 38.453125 11.015625 
Q 42.625 15.96875 42.625 26.375 
Q 42.625 36.28125 38.546875 41.203125 
Q 34.46875 46.140625 28.8125 46.140625 
Q 23.1875 46.140625 18.859375 40.890625 
Q 14.546875 35.640625 14.546875 25.640625 
z
" id="ArialMT-112"/>
     </defs>
     <g style="fill:#262626;" transform="translate(97.432656 226.262812)rotate(-90)scale(0.12 -0.12)">
      <use xlink:href="#ArialMT-108"/>
      <use x="22.216797" xlink:href="#ArialMT-111"/>
      <use x="77.832031" xlink:href="#ArialMT-103"/>
      <use x="133.447266" xlink:href="#ArialMT-112"/>
     </g>
    </g>
   </g>
   <g id="patch_3">
    <path clip-path="url(#pe071c6c5a8)" d="M 130.8825 130.414178 
L 169.9425 130.414178 
L 169.9425 88.899982 
L 130.8825 88.899982 
L 130.8825 130.414178 
z
" style="fill:#ea96a3;stroke:#464646;stroke-linejoin:miter;stroke-width:1.5;"/>
   </g>
   <g id="patch_4">
    <path clip-path="url(#pe071c6c5a8)" d="M 179.7075 153.849311 
L 218.7675 153.849311 
L 218.7675 91.010372 
L 179.7075 91.010372 
L 179.7075 153.849311 
z
" style="fill:#e69576;stroke:#464646;stroke-linejoin:miter;stroke-width:1.5;"/>
   </g>
   <g id="patch_5">
    <path clip-path="url(#pe071c6c5a8)" d="M 228.5325 154.966558 
L 267.5925 154.966558 
L 267.5925 86.065495 
L 228.5325 86.065495 
L 228.5325 154.966558 
z
" style="fill:#ca984c;stroke:#464646;stroke-linejoin:miter;stroke-width:1.5;"/>
   </g>
   <g id="patch_6">
    <path clip-path="url(#pe071c6c5a8)" d="M 277.3575 143.218043 
L 316.4175 143.218043 
L 316.4175 83.200217 
L 277.3575 83.200217 
L 277.3575 143.218043 
z
" style="fill:#b09d48;stroke:#464646;stroke-linejoin:miter;stroke-width:1.5;"/>
   </g>
   <g id="patch_7">
    <path clip-path="url(#pe071c6c5a8)" d="M 326.1825 151.555408 
L 365.2425 151.555408 
L 365.2425 108.137039 
L 326.1825 108.137039 
L 326.1825 151.555408 
z
" style="fill:#98a246;stroke:#464646;stroke-linejoin:miter;stroke-width:1.5;"/>
   </g>
   <g id="patch_8">
    <path clip-path="url(#pe071c6c5a8)" d="M 375.0075 186.628792 
L 414.0675 186.628792 
L 414.0675 105.562114 
L 375.0075 105.562114 
L 375.0075 186.628792 
z
" style="fill:#76ab47;stroke:#464646;stroke-linejoin:miter;stroke-width:1.5;"/>
   </g>
   <g id="patch_9">
    <path clip-path="url(#pe071c6c5a8)" d="M 423.8325 182.063537 
L 462.8925 182.063537 
L 462.8925 103.514708 
L 423.8325 103.514708 
L 423.8325 182.063537 
z
" style="fill:#49af72;stroke:#464646;stroke-linejoin:miter;stroke-width:1.5;"/>
   </g>
   <g id="patch_10">
    <path clip-path="url(#pe071c6c5a8)" d="M 472.6575 186.017292 
L 511.7175 186.017292 
L 511.7175 106.559922 
L 472.6575 106.559922 
L 472.6575 186.017292 
z
" style="fill:#4aad92;stroke:#464646;stroke-linejoin:miter;stroke-width:1.5;"/>
   </g>
   <g id="patch_11">
    <path clip-path="url(#pe071c6c5a8)" d="M 521.4825 184.642039 
L 560.5425 184.642039 
L 560.5425 97.879328 
L 521.4825 97.879328 
L 521.4825 184.642039 
z
" style="fill:#4baba4;stroke:#464646;stroke-linejoin:miter;stroke-width:1.5;"/>
   </g>
   <g id="patch_12">
    <path clip-path="url(#pe071c6c5a8)" d="M 570.3075 187.261598 
L 609.3675 187.261598 
L 609.3675 137.389198 
L 570.3075 137.389198 
L 570.3075 187.261598 
z
" style="fill:#4eabb6;stroke:#464646;stroke-linejoin:miter;stroke-width:1.5;"/>
   </g>
   <g id="patch_13">
    <path clip-path="url(#pe071c6c5a8)" d="M 619.1325 164.595662 
L 658.1925 164.595662 
L 658.1925 89.780529 
L 619.1325 89.780529 
L 619.1325 164.595662 
z
" style="fill:#53accd;stroke:#464646;stroke-linejoin:miter;stroke-width:1.5;"/>
   </g>
   <g id="patch_14">
    <path clip-path="url(#pe071c6c5a8)" d="M 667.9575 163.881053 
L 707.0175 163.881053 
L 707.0175 99.72487 
L 667.9575 99.72487 
L 667.9575 163.881053 
z
" style="fill:#88aee6;stroke:#464646;stroke-linejoin:miter;stroke-width:1.5;"/>
   </g>
   <g id="patch_15">
    <path clip-path="url(#pe071c6c5a8)" d="M 716.7825 230.77359 
L 755.8425 230.77359 
L 755.8425 131.757861 
L 716.7825 131.757861 
L 716.7825 230.77359 
z
" style="fill:#b6a8eb;stroke:#464646;stroke-linejoin:miter;stroke-width:1.5;"/>
   </g>
   <g id="patch_16">
    <path clip-path="url(#pe071c6c5a8)" d="M 765.6075 226.289982 
L 804.6675 226.289982 
L 804.6675 141.498005 
L 765.6075 141.498005 
L 765.6075 226.289982 
z
" style="fill:#d497e8;stroke:#464646;stroke-linejoin:miter;stroke-width:1.5;"/>
   </g>
   <g id="patch_17">
    <path clip-path="url(#pe071c6c5a8)" d="M 814.4325 236.971015 
L 853.4925 236.971015 
L 853.4925 184.324781 
L 814.4325 184.324781 
L 814.4325 236.971015 
z
" style="fill:#e78cd7;stroke:#464646;stroke-linejoin:miter;stroke-width:1.5;"/>
   </g>
   <g id="patch_18">
    <path clip-path="url(#pe071c6c5a8)" d="M 863.2575 189.267169 
L 902.3175 189.267169 
L 902.3175 169.206795 
L 863.2575 169.206795 
L 863.2575 189.267169 
z
" style="fill:#e992be;stroke:#464646;stroke-linejoin:miter;stroke-width:1.5;"/>
   </g>
   <g id="line2d_6">
    <path clip-path="url(#pe071c6c5a8)" d="M 150.4125 130.414178 
L 150.4125 156.614435 
" style="fill:none;stroke:#464646;stroke-linecap:round;stroke-width:1.5;"/>
   </g>
   <g id="line2d_7">
    <path clip-path="url(#pe071c6c5a8)" d="M 150.4125 88.899982 
L 150.4125 68.60633 
" style="fill:none;stroke:#464646;stroke-linecap:round;stroke-width:1.5;"/>
   </g>
   <g id="line2d_8">
    <path clip-path="url(#pe071c6c5a8)" d="M 140.6475 156.614435 
L 160.1775 156.614435 
" style="fill:none;stroke:#464646;stroke-linecap:round;stroke-width:1.5;"/>
   </g>
   <g id="line2d_9">
    <path clip-path="url(#pe071c6c5a8)" d="M 140.6475 68.60633 
L 160.1775 68.60633 
" style="fill:none;stroke:#464646;stroke-linecap:round;stroke-width:1.5;"/>
   </g>
   <g id="line2d_10">
    <defs>
     <path d="M 0 3.535534 
L 2.12132 0 
L 0 -3.535534 
L -2.12132 0 
z
" id="m1f63c281c9" style="stroke:#464646;stroke-linejoin:miter;"/>
    </defs>
    <g clip-path="url(#pe071c6c5a8)">
     <use style="fill:#464646;stroke:#464646;stroke-linejoin:miter;" x="150.4125" xlink:href="#m1f63c281c9" y="192.921861"/>
    </g>
   </g>
   <g id="line2d_11">
    <path clip-path="url(#pe071c6c5a8)" d="M 199.2375 153.849311 
L 199.2375 241.123368 
" style="fill:none;stroke:#464646;stroke-linecap:round;stroke-width:1.5;"/>
   </g>
   <g id="line2d_12">
    <path clip-path="url(#pe071c6c5a8)" d="M 199.2375 91.010372 
L 199.2375 66.842746 
" style="fill:none;stroke:#464646;stroke-linecap:round;stroke-width:1.5;"/>
   </g>
   <g id="line2d_13">
    <path clip-path="url(#pe071c6c5a8)" d="M 189.4725 241.123368 
L 209.0025 241.123368 
" style="fill:none;stroke:#464646;stroke-linecap:round;stroke-width:1.5;"/>
   </g>
   <g id="line2d_14">
    <path clip-path="url(#pe071c6c5a8)" d="M 189.4725 66.842746 
L 209.0025 66.842746 
" style="fill:none;stroke:#464646;stroke-linecap:round;stroke-width:1.5;"/>
   </g>
   <g id="line2d_15">
    <g clip-path="url(#pe071c6c5a8)">
     <use style="fill:#464646;stroke:#464646;stroke-linejoin:miter;" x="199.2375" xlink:href="#m1f63c281c9" y="322.90761"/>
     <use style="fill:#464646;stroke:#464646;stroke-linejoin:miter;" x="199.2375" xlink:href="#m1f63c281c9" y="363.174545"/>
    </g>
   </g>
   <g id="line2d_16">
    <path clip-path="url(#pe071c6c5a8)" d="M 248.0625 154.966558 
L 248.0625 208.389764 
" style="fill:none;stroke:#464646;stroke-linecap:round;stroke-width:1.5;"/>
   </g>
   <g id="line2d_17">
    <path clip-path="url(#pe071c6c5a8)" d="M 248.0625 86.065495 
L 248.0625 70.585151 
" style="fill:none;stroke:#464646;stroke-linecap:round;stroke-width:1.5;"/>
   </g>
   <g id="line2d_18">
    <path clip-path="url(#pe071c6c5a8)" d="M 238.2975 208.389764 
L 257.8275 208.389764 
" style="fill:none;stroke:#464646;stroke-linecap:round;stroke-width:1.5;"/>
   </g>
   <g id="line2d_19">
    <path clip-path="url(#pe071c6c5a8)" d="M 238.2975 70.585151 
L 257.8275 70.585151 
" style="fill:none;stroke:#464646;stroke-linecap:round;stroke-width:1.5;"/>
   </g>
   <g id="line2d_20"/>
   <g id="line2d_21">
    <path clip-path="url(#pe071c6c5a8)" d="M 296.8875 143.218043 
L 296.8875 210.815858 
" style="fill:none;stroke:#464646;stroke-linecap:round;stroke-width:1.5;"/>
   </g>
   <g id="line2d_22">
    <path clip-path="url(#pe071c6c5a8)" d="M 296.8875 83.200217 
L 296.8875 67.393283 
" style="fill:none;stroke:#464646;stroke-linecap:round;stroke-width:1.5;"/>
   </g>
   <g id="line2d_23">
    <path clip-path="url(#pe071c6c5a8)" d="M 287.1225 210.815858 
L 306.6525 210.815858 
" style="fill:none;stroke:#464646;stroke-linecap:round;stroke-width:1.5;"/>
   </g>
   <g id="line2d_24">
    <path clip-path="url(#pe071c6c5a8)" d="M 287.1225 67.393283 
L 306.6525 67.393283 
" style="fill:none;stroke:#464646;stroke-linecap:round;stroke-width:1.5;"/>
   </g>
   <g id="line2d_25"/>
   <g id="line2d_26">
    <path clip-path="url(#pe071c6c5a8)" d="M 345.7125 151.555408 
L 345.7125 214.862458 
" style="fill:none;stroke:#464646;stroke-linecap:round;stroke-width:1.5;"/>
   </g>
   <g id="line2d_27">
    <path clip-path="url(#pe071c6c5a8)" d="M 345.7125 108.137039 
L 345.7125 80.018301 
" style="fill:none;stroke:#464646;stroke-linecap:round;stroke-width:1.5;"/>
   </g>
   <g id="line2d_28">
    <path clip-path="url(#pe071c6c5a8)" d="M 335.9475 214.862458 
L 355.4775 214.862458 
" style="fill:none;stroke:#464646;stroke-linecap:round;stroke-width:1.5;"/>
   </g>
   <g id="line2d_29">
    <path clip-path="url(#pe071c6c5a8)" d="M 335.9475 80.018301 
L 355.4775 80.018301 
" style="fill:none;stroke:#464646;stroke-linecap:round;stroke-width:1.5;"/>
   </g>
   <g id="line2d_30">
    <g clip-path="url(#pe071c6c5a8)">
     <use style="fill:#464646;stroke:#464646;stroke-linejoin:miter;" x="345.7125" xlink:href="#m1f63c281c9" y="264.326777"/>
    </g>
   </g>
   <g id="line2d_31">
    <path clip-path="url(#pe071c6c5a8)" d="M 394.5375 186.628792 
L 394.5375 284.413589 
" style="fill:none;stroke:#464646;stroke-linecap:round;stroke-width:1.5;"/>
   </g>
   <g id="line2d_32">
    <path clip-path="url(#pe071c6c5a8)" d="M 394.5375 105.562114 
L 394.5375 66.867629 
" style="fill:none;stroke:#464646;stroke-linecap:round;stroke-width:1.5;"/>
   </g>
   <g id="line2d_33">
    <path clip-path="url(#pe071c6c5a8)" d="M 384.7725 284.413589 
L 404.3025 284.413589 
" style="fill:none;stroke:#464646;stroke-linecap:round;stroke-width:1.5;"/>
   </g>
   <g id="line2d_34">
    <path clip-path="url(#pe071c6c5a8)" d="M 384.7725 66.867629 
L 404.3025 66.867629 
" style="fill:none;stroke:#464646;stroke-linecap:round;stroke-width:1.5;"/>
   </g>
   <g id="line2d_35"/>
   <g id="line2d_36">
    <path clip-path="url(#pe071c6c5a8)" d="M 443.3625 182.063537 
L 443.3625 277.181964 
" style="fill:none;stroke:#464646;stroke-linecap:round;stroke-width:1.5;"/>
   </g>
   <g id="line2d_37">
    <path clip-path="url(#pe071c6c5a8)" d="M 443.3625 103.514708 
L 443.3625 67.234653 
" style="fill:none;stroke:#464646;stroke-linecap:round;stroke-width:1.5;"/>
   </g>
   <g id="line2d_38">
    <path clip-path="url(#pe071c6c5a8)" d="M 433.5975 277.181964 
L 453.1275 277.181964 
" style="fill:none;stroke:#464646;stroke-linecap:round;stroke-width:1.5;"/>
   </g>
   <g id="line2d_39">
    <path clip-path="url(#pe071c6c5a8)" d="M 433.5975 67.234653 
L 453.1275 67.234653 
" style="fill:none;stroke:#464646;stroke-linecap:round;stroke-width:1.5;"/>
   </g>
   <g id="line2d_40">
    <g clip-path="url(#pe071c6c5a8)">
     <use style="fill:#464646;stroke:#464646;stroke-linejoin:miter;" x="443.3625" xlink:href="#m1f63c281c9" y="315.772406"/>
    </g>
   </g>
   <g id="line2d_41">
    <path clip-path="url(#pe071c6c5a8)" d="M 492.1875 186.017292 
L 492.1875 290.649894 
" style="fill:none;stroke:#464646;stroke-linecap:round;stroke-width:1.5;"/>
   </g>
   <g id="line2d_42">
    <path clip-path="url(#pe071c6c5a8)" d="M 492.1875 106.559922 
L 492.1875 66.665455 
" style="fill:none;stroke:#464646;stroke-linecap:round;stroke-width:1.5;"/>
   </g>
   <g id="line2d_43">
    <path clip-path="url(#pe071c6c5a8)" d="M 482.4225 290.649894 
L 501.9525 290.649894 
" style="fill:none;stroke:#464646;stroke-linecap:round;stroke-width:1.5;"/>
   </g>
   <g id="line2d_44">
    <path clip-path="url(#pe071c6c5a8)" d="M 482.4225 66.665455 
L 501.9525 66.665455 
" style="fill:none;stroke:#464646;stroke-linecap:round;stroke-width:1.5;"/>
   </g>
   <g id="line2d_45"/>
   <g id="line2d_46">
    <path clip-path="url(#pe071c6c5a8)" d="M 541.0125 184.642039 
L 541.0125 299.156774 
" style="fill:none;stroke:#464646;stroke-linecap:round;stroke-width:1.5;"/>
   </g>
   <g id="line2d_47">
    <path clip-path="url(#pe071c6c5a8)" d="M 541.0125 97.879328 
L 541.0125 68.248636 
" style="fill:none;stroke:#464646;stroke-linecap:round;stroke-width:1.5;"/>
   </g>
   <g id="line2d_48">
    <path clip-path="url(#pe071c6c5a8)" d="M 531.2475 299.156774 
L 550.7775 299.156774 
" style="fill:none;stroke:#464646;stroke-linecap:round;stroke-width:1.5;"/>
   </g>
   <g id="line2d_49">
    <path clip-path="url(#pe071c6c5a8)" d="M 531.2475 68.248636 
L 550.7775 68.248636 
" style="fill:none;stroke:#464646;stroke-linecap:round;stroke-width:1.5;"/>
   </g>
   <g id="line2d_50"/>
   <g id="line2d_51">
    <path clip-path="url(#pe071c6c5a8)" d="M 589.8375 187.261598 
L 589.8375 259.869607 
" style="fill:none;stroke:#464646;stroke-linecap:round;stroke-width:1.5;"/>
   </g>
   <g id="line2d_52">
    <path clip-path="url(#pe071c6c5a8)" d="M 589.8375 137.389198 
L 589.8375 87.076368 
" style="fill:none;stroke:#464646;stroke-linecap:round;stroke-width:1.5;"/>
   </g>
   <g id="line2d_53">
    <path clip-path="url(#pe071c6c5a8)" d="M 580.0725 259.869607 
L 599.6025 259.869607 
" style="fill:none;stroke:#464646;stroke-linecap:round;stroke-width:1.5;"/>
   </g>
   <g id="line2d_54">
    <path clip-path="url(#pe071c6c5a8)" d="M 580.0725 87.076368 
L 599.6025 87.076368 
" style="fill:none;stroke:#464646;stroke-linecap:round;stroke-width:1.5;"/>
   </g>
   <g id="line2d_55">
    <g clip-path="url(#pe071c6c5a8)">
     <use style="fill:#464646;stroke:#464646;stroke-linejoin:miter;" x="589.8375" xlink:href="#m1f63c281c9" y="270.084084"/>
    </g>
   </g>
   <g id="line2d_56">
    <path clip-path="url(#pe071c6c5a8)" d="M 638.6625 164.595662 
L 638.6625 213.06466 
" style="fill:none;stroke:#464646;stroke-linecap:round;stroke-width:1.5;"/>
   </g>
   <g id="line2d_57">
    <path clip-path="url(#pe071c6c5a8)" d="M 638.6625 89.780529 
L 638.6625 69.660747 
" style="fill:none;stroke:#464646;stroke-linecap:round;stroke-width:1.5;"/>
   </g>
   <g id="line2d_58">
    <path clip-path="url(#pe071c6c5a8)" d="M 628.8975 213.06466 
L 648.4275 213.06466 
" style="fill:none;stroke:#464646;stroke-linecap:round;stroke-width:1.5;"/>
   </g>
   <g id="line2d_59">
    <path clip-path="url(#pe071c6c5a8)" d="M 628.8975 69.660747 
L 648.4275 69.660747 
" style="fill:none;stroke:#464646;stroke-linecap:round;stroke-width:1.5;"/>
   </g>
   <g id="line2d_60">
    <g clip-path="url(#pe071c6c5a8)">
     <use style="fill:#464646;stroke:#464646;stroke-linejoin:miter;" x="638.6625" xlink:href="#m1f63c281c9" y="312.889087"/>
    </g>
   </g>
   <g id="line2d_61">
    <path clip-path="url(#pe071c6c5a8)" d="M 687.4875 163.881053 
L 687.4875 255.51508 
" style="fill:none;stroke:#464646;stroke-linecap:round;stroke-width:1.5;"/>
   </g>
   <g id="line2d_62">
    <path clip-path="url(#pe071c6c5a8)" d="M 687.4875 99.72487 
L 687.4875 67.390172 
" style="fill:none;stroke:#464646;stroke-linecap:round;stroke-width:1.5;"/>
   </g>
   <g id="line2d_63">
    <path clip-path="url(#pe071c6c5a8)" d="M 677.7225 255.51508 
L 697.2525 255.51508 
" style="fill:none;stroke:#464646;stroke-linecap:round;stroke-width:1.5;"/>
   </g>
   <g id="line2d_64">
    <path clip-path="url(#pe071c6c5a8)" d="M 677.7225 67.390172 
L 697.2525 67.390172 
" style="fill:none;stroke:#464646;stroke-linecap:round;stroke-width:1.5;"/>
   </g>
   <g id="line2d_65">
    <g clip-path="url(#pe071c6c5a8)">
     <use style="fill:#464646;stroke:#464646;stroke-linejoin:miter;" x="687.4875" xlink:href="#m1f63c281c9" y="260.370378"/>
     <use style="fill:#464646;stroke:#464646;stroke-linejoin:miter;" x="687.4875" xlink:href="#m1f63c281c9" y="271.508637"/>
     <use style="fill:#464646;stroke:#464646;stroke-linejoin:miter;" x="687.4875" xlink:href="#m1f63c281c9" y="312.341661"/>
     <use style="fill:#464646;stroke:#464646;stroke-linejoin:miter;" x="687.4875" xlink:href="#m1f63c281c9" y="272.416867"/>
     <use style="fill:#464646;stroke:#464646;stroke-linejoin:miter;" x="687.4875" xlink:href="#m1f63c281c9" y="278.454108"/>
     <use style="fill:#464646;stroke:#464646;stroke-linejoin:miter;" x="687.4875" xlink:href="#m1f63c281c9" y="304.98562"/>
     <use style="fill:#464646;stroke:#464646;stroke-linejoin:miter;" x="687.4875" xlink:href="#m1f63c281c9" y="265.934842"/>
     <use style="fill:#464646;stroke:#464646;stroke-linejoin:miter;" x="687.4875" xlink:href="#m1f63c281c9" y="296.942186"/>
     <use style="fill:#464646;stroke:#464646;stroke-linejoin:miter;" x="687.4875" xlink:href="#m1f63c281c9" y="315.057019"/>
    </g>
   </g>
   <g id="line2d_66">
    <path clip-path="url(#pe071c6c5a8)" d="M 736.3125 230.77359 
L 736.3125 354.110908 
" style="fill:none;stroke:#464646;stroke-linecap:round;stroke-width:1.5;"/>
   </g>
   <g id="line2d_67">
    <path clip-path="url(#pe071c6c5a8)" d="M 736.3125 131.757861 
L 736.3125 69.048003 
" style="fill:none;stroke:#464646;stroke-linecap:round;stroke-width:1.5;"/>
   </g>
   <g id="line2d_68">
    <path clip-path="url(#pe071c6c5a8)" d="M 726.5475 354.110908 
L 746.0775 354.110908 
" style="fill:none;stroke:#464646;stroke-linecap:round;stroke-width:1.5;"/>
   </g>
   <g id="line2d_69">
    <path clip-path="url(#pe071c6c5a8)" d="M 726.5475 69.048003 
L 746.0775 69.048003 
" style="fill:none;stroke:#464646;stroke-linecap:round;stroke-width:1.5;"/>
   </g>
   <g id="line2d_70"/>
   <g id="line2d_71">
    <path clip-path="url(#pe071c6c5a8)" d="M 785.1375 226.289982 
L 785.1375 319.122282 
" style="fill:none;stroke:#464646;stroke-linecap:round;stroke-width:1.5;"/>
   </g>
   <g id="line2d_72">
    <path clip-path="url(#pe071c6c5a8)" d="M 785.1375 141.498005 
L 785.1375 68.267298 
" style="fill:none;stroke:#464646;stroke-linecap:round;stroke-width:1.5;"/>
   </g>
   <g id="line2d_73">
    <path clip-path="url(#pe071c6c5a8)" d="M 775.3725 319.122282 
L 794.9025 319.122282 
" style="fill:none;stroke:#464646;stroke-linecap:round;stroke-width:1.5;"/>
   </g>
   <g id="line2d_74">
    <path clip-path="url(#pe071c6c5a8)" d="M 775.3725 68.267298 
L 794.9025 68.267298 
" style="fill:none;stroke:#464646;stroke-linecap:round;stroke-width:1.5;"/>
   </g>
   <g id="line2d_75"/>
   <g id="line2d_76">
    <path clip-path="url(#pe071c6c5a8)" d="M 833.9625 236.971015 
L 833.9625 294.027763 
" style="fill:none;stroke:#464646;stroke-linecap:round;stroke-width:1.5;"/>
   </g>
   <g id="line2d_77">
    <path clip-path="url(#pe071c6c5a8)" d="M 833.9625 184.324781 
L 833.9625 107.958814 
" style="fill:none;stroke:#464646;stroke-linecap:round;stroke-width:1.5;"/>
   </g>
   <g id="line2d_78">
    <path clip-path="url(#pe071c6c5a8)" d="M 824.1975 294.027763 
L 843.7275 294.027763 
" style="fill:none;stroke:#464646;stroke-linecap:round;stroke-width:1.5;"/>
   </g>
   <g id="line2d_79">
    <path clip-path="url(#pe071c6c5a8)" d="M 824.1975 107.958814 
L 843.7275 107.958814 
" style="fill:none;stroke:#464646;stroke-linecap:round;stroke-width:1.5;"/>
   </g>
   <g id="line2d_80">
    <g clip-path="url(#pe071c6c5a8)">
     <use style="fill:#464646;stroke:#464646;stroke-linejoin:miter;" x="833.9625" xlink:href="#m1f63c281c9" y="105.109709"/>
     <use style="fill:#464646;stroke:#464646;stroke-linejoin:miter;" x="833.9625" xlink:href="#m1f63c281c9" y="83.184665"/>
     <use style="fill:#464646;stroke:#464646;stroke-linejoin:miter;" x="833.9625" xlink:href="#m1f63c281c9" y="77.399364"/>
     <use style="fill:#464646;stroke:#464646;stroke-linejoin:miter;" x="833.9625" xlink:href="#m1f63c281c9" y="69.60165"/>
     <use style="fill:#464646;stroke:#464646;stroke-linejoin:miter;" x="833.9625" xlink:href="#m1f63c281c9" y="91.741311"/>
     <use style="fill:#464646;stroke:#464646;stroke-linejoin:miter;" x="833.9625" xlink:href="#m1f63c281c9" y="92.848605"/>
     <use style="fill:#464646;stroke:#464646;stroke-linejoin:miter;" x="833.9625" xlink:href="#m1f63c281c9" y="93.899912"/>
     <use style="fill:#464646;stroke:#464646;stroke-linejoin:miter;" x="833.9625" xlink:href="#m1f63c281c9" y="104.982184"/>
    </g>
   </g>
   <g id="line2d_81">
    <path clip-path="url(#pe071c6c5a8)" d="M 882.7875 189.267169 
L 882.7875 207.907656 
" style="fill:none;stroke:#464646;stroke-linecap:round;stroke-width:1.5;"/>
   </g>
   <g id="line2d_82">
    <path clip-path="url(#pe071c6c5a8)" d="M 882.7875 169.206795 
L 882.7875 167.786908 
" style="fill:none;stroke:#464646;stroke-linecap:round;stroke-width:1.5;"/>
   </g>
   <g id="line2d_83">
    <path clip-path="url(#pe071c6c5a8)" d="M 873.0225 207.907656 
L 892.5525 207.907656 
" style="fill:none;stroke:#464646;stroke-linecap:round;stroke-width:1.5;"/>
   </g>
   <g id="line2d_84">
    <path clip-path="url(#pe071c6c5a8)" d="M 873.0225 167.786908 
L 892.5525 167.786908 
" style="fill:none;stroke:#464646;stroke-linecap:round;stroke-width:1.5;"/>
   </g>
   <g id="line2d_85"/>
   <g id="line2d_86">
    <path clip-path="url(#pe071c6c5a8)" d="M 130.8825 105.784661 
L 169.9425 105.784661 
" style="fill:none;stroke:#464646;stroke-linecap:round;stroke-width:1.5;"/>
   </g>
   <g id="line2d_87">
    <path clip-path="url(#pe071c6c5a8)" d="M 179.7075 117.485898 
L 218.7675 117.485898 
" style="fill:none;stroke:#464646;stroke-linecap:round;stroke-width:1.5;"/>
   </g>
   <g id="line2d_88">
    <path clip-path="url(#pe071c6c5a8)" d="M 228.5325 128.201145 
L 267.5925 128.201145 
" style="fill:none;stroke:#464646;stroke-linecap:round;stroke-width:1.5;"/>
   </g>
   <g id="line2d_89">
    <path clip-path="url(#pe071c6c5a8)" d="M 277.3575 119.684934 
L 316.4175 119.684934 
" style="fill:none;stroke:#464646;stroke-linecap:round;stroke-width:1.5;"/>
   </g>
   <g id="line2d_90">
    <path clip-path="url(#pe071c6c5a8)" d="M 326.1825 126.944553 
L 365.2425 126.944553 
" style="fill:none;stroke:#464646;stroke-linecap:round;stroke-width:1.5;"/>
   </g>
   <g id="line2d_91">
    <path clip-path="url(#pe071c6c5a8)" d="M 375.0075 138.255438 
L 414.0675 138.255438 
" style="fill:none;stroke:#464646;stroke-linecap:round;stroke-width:1.5;"/>
   </g>
   <g id="line2d_92">
    <path clip-path="url(#pe071c6c5a8)" d="M 423.8325 144.721911 
L 462.8925 144.721911 
" style="fill:none;stroke:#464646;stroke-linecap:round;stroke-width:1.5;"/>
   </g>
   <g id="line2d_93">
    <path clip-path="url(#pe071c6c5a8)" d="M 472.6575 147.185329 
L 511.7175 147.185329 
" style="fill:none;stroke:#464646;stroke-linecap:round;stroke-width:1.5;"/>
   </g>
   <g id="line2d_94">
    <path clip-path="url(#pe071c6c5a8)" d="M 521.4825 129.012953 
L 560.5425 129.012953 
" style="fill:none;stroke:#464646;stroke-linecap:round;stroke-width:1.5;"/>
   </g>
   <g id="line2d_95">
    <path clip-path="url(#pe071c6c5a8)" d="M 570.3075 170.679558 
L 609.3675 170.679558 
" style="fill:none;stroke:#464646;stroke-linecap:round;stroke-width:1.5;"/>
   </g>
   <g id="line2d_96">
    <path clip-path="url(#pe071c6c5a8)" d="M 619.1325 129.672353 
L 658.1925 129.672353 
" style="fill:none;stroke:#464646;stroke-linecap:round;stroke-width:1.5;"/>
   </g>
   <g id="line2d_97">
    <path clip-path="url(#pe071c6c5a8)" d="M 667.9575 128.966764 
L 707.0175 128.966764 
" style="fill:none;stroke:#464646;stroke-linecap:round;stroke-width:1.5;"/>
   </g>
   <g id="line2d_98">
    <path clip-path="url(#pe071c6c5a8)" d="M 716.7825 180.383933 
L 755.8425 180.383933 
" style="fill:none;stroke:#464646;stroke-linecap:round;stroke-width:1.5;"/>
   </g>
   <g id="line2d_99">
    <path clip-path="url(#pe071c6c5a8)" d="M 765.6075 190.006817 
L 804.6675 190.006817 
" style="fill:none;stroke:#464646;stroke-linecap:round;stroke-width:1.5;"/>
   </g>
   <g id="line2d_100">
    <path clip-path="url(#pe071c6c5a8)" d="M 814.4325 216.762898 
L 853.4925 216.762898 
" style="fill:none;stroke:#464646;stroke-linecap:round;stroke-width:1.5;"/>
   </g>
   <g id="line2d_101">
    <path clip-path="url(#pe071c6c5a8)" d="M 863.2575 170.626682 
L 902.3175 170.626682 
" style="fill:none;stroke:#464646;stroke-linecap:round;stroke-width:1.5;"/>
   </g>
   <g id="patch_19">
    <path d="M 126 378 
L 126 51.84 
" style="fill:none;stroke:#ffffff;stroke-linecap:square;stroke-linejoin:miter;stroke-width:1.25;"/>
   </g>
   <g id="patch_20">
    <path d="M 907.2 378 
L 907.2 51.84 
" style="fill:none;stroke:#ffffff;stroke-linecap:square;stroke-linejoin:miter;stroke-width:1.25;"/>
   </g>
   <g id="patch_21">
    <path d="M 126 378 
L 907.2 378 
" style="fill:none;stroke:#ffffff;stroke-linecap:square;stroke-linejoin:miter;stroke-width:1.25;"/>
   </g>
   <g id="patch_22">
    <path d="M 126 51.84 
L 907.2 51.84 
" style="fill:none;stroke:#ffffff;stroke-linecap:square;stroke-linejoin:miter;stroke-width:1.25;"/>
   </g>
  </g>
 </g>
 <defs>
  <clipPath id="pe071c6c5a8">
   <rect height="326.16" width="781.2" x="126" y="51.84"/>
  </clipPath>
 </defs>
</svg>
