<?xml version="1.0" encoding="utf-8" standalone="no"?>
<!DOCTYPE svg PUBLIC "-//W3C//DTD SVG 1.1//EN"
  "http://www.w3.org/Graphics/SVG/1.1/DTD/svg11.dtd">
<!-- Created with matplotlib (https://matplotlib.org/) -->
<svg height="432pt" version="1.1" viewBox="0 0 1008 432" width="1008pt" xmlns="http://www.w3.org/2000/svg" xmlns:xlink="http://www.w3.org/1999/xlink">
 <defs>
  <style type="text/css">
*{stroke-linecap:butt;stroke-linejoin:round;}
  </style>
 </defs>
 <g id="figure_1">
  <g id="patch_1">
   <path d="M 0 432 
L 1008 432 
L 1008 0 
L 0 0 
z
" style="fill:#ffffff;"/>
  </g>
  <g id="axes_1">
   <g id="patch_2">
    <path d="M 126 378 
L 907.2 378 
L 907.2 51.84 
L 126 51.84 
z
" style="fill:#eaeaf2;"/>
   </g>
   <g id="matplotlib.axis_1">
    <g id="xtick_1">
     <g id="text_1">
      <!-- 0 -->
      <defs>
       <path d="M 4.15625 35.296875 
Q 4.15625 48 6.765625 55.734375 
Q 9.375 63.484375 14.515625 67.671875 
Q 19.671875 71.875 27.484375 71.875 
Q 33.25 71.875 37.59375 69.546875 
Q 41.9375 67.234375 44.765625 62.859375 
Q 47.609375 58.5 49.21875 52.21875 
Q 50.828125 45.953125 50.828125 35.296875 
Q 50.828125 22.703125 48.234375 14.96875 
Q 45.65625 7.234375 40.5 3 
Q 35.359375 -1.21875 27.484375 -1.21875 
Q 17.140625 -1.21875 11.234375 6.203125 
Q 4.15625 15.140625 4.15625 35.296875 
z
M 13.1875 35.296875 
Q 13.1875 17.671875 17.3125 11.828125 
Q 21.4375 6 27.484375 6 
Q 33.546875 6 37.671875 11.859375 
Q 41.796875 17.71875 41.796875 35.296875 
Q 41.796875 52.984375 37.671875 58.78125 
Q 33.546875 64.59375 27.390625 64.59375 
Q 21.34375 64.59375 17.71875 59.46875 
Q 13.1875 52.9375 13.1875 35.296875 
z
" id="ArialMT-48"/>
      </defs>
      <g style="fill:#262626;" transform="translate(144.641484 395.373594)scale(0.11 -0.11)">
       <use xlink:href="#ArialMT-48"/>
      </g>
     </g>
    </g>
    <g id="xtick_2">
     <g id="text_2">
      <!-- 1 -->
      <defs>
       <path d="M 37.25 0 
L 28.46875 0 
L 28.46875 56 
Q 25.296875 52.984375 20.140625 49.953125 
Q 14.984375 46.921875 10.890625 45.40625 
L 10.890625 53.90625 
Q 18.265625 57.375 23.78125 62.296875 
Q 29.296875 67.234375 31.59375 71.875 
L 37.25 71.875 
z
" id="ArialMT-49"/>
      </defs>
      <g style="fill:#262626;" transform="translate(188.041484 395.373594)scale(0.11 -0.11)">
       <use xlink:href="#ArialMT-49"/>
      </g>
     </g>
    </g>
    <g id="xtick_3">
     <g id="text_3">
      <!-- 2 -->
      <defs>
       <path d="M 50.34375 8.453125 
L 50.34375 0 
L 3.03125 0 
Q 2.9375 3.171875 4.046875 6.109375 
Q 5.859375 10.9375 9.828125 15.625 
Q 13.8125 20.3125 21.34375 26.46875 
Q 33.015625 36.03125 37.109375 41.625 
Q 41.21875 47.21875 41.21875 52.203125 
Q 41.21875 57.421875 37.46875 61 
Q 33.734375 64.59375 27.734375 64.59375 
Q 21.390625 64.59375 17.578125 60.78125 
Q 13.765625 56.984375 13.71875 50.25 
L 4.6875 51.171875 
Q 5.609375 61.28125 11.65625 66.578125 
Q 17.71875 71.875 27.9375 71.875 
Q 38.234375 71.875 44.234375 66.15625 
Q 50.25 60.453125 50.25 52 
Q 50.25 47.703125 48.484375 43.546875 
Q 46.734375 39.40625 42.65625 34.8125 
Q 38.578125 30.21875 29.109375 22.21875 
Q 21.1875 15.578125 18.9375 13.203125 
Q 16.703125 10.84375 15.234375 8.453125 
z
" id="ArialMT-50"/>
      </defs>
      <g style="fill:#262626;" transform="translate(231.441484 395.373594)scale(0.11 -0.11)">
       <use xlink:href="#ArialMT-50"/>
      </g>
     </g>
    </g>
    <g id="xtick_4">
     <g id="text_4">
      <!-- 3 -->
      <defs>
       <path d="M 4.203125 18.890625 
L 12.984375 20.0625 
Q 14.5 12.59375 18.140625 9.296875 
Q 21.78125 6 27 6 
Q 33.203125 6 37.46875 10.296875 
Q 41.75 14.59375 41.75 20.953125 
Q 41.75 27 37.796875 30.921875 
Q 33.84375 34.859375 27.734375 34.859375 
Q 25.25 34.859375 21.53125 33.890625 
L 22.515625 41.609375 
Q 23.390625 41.5 23.921875 41.5 
Q 29.546875 41.5 34.03125 44.421875 
Q 38.53125 47.359375 38.53125 53.46875 
Q 38.53125 58.296875 35.25 61.46875 
Q 31.984375 64.65625 26.8125 64.65625 
Q 21.6875 64.65625 18.265625 61.421875 
Q 14.84375 58.203125 13.875 51.765625 
L 5.078125 53.328125 
Q 6.6875 62.15625 12.390625 67.015625 
Q 18.109375 71.875 26.609375 71.875 
Q 32.46875 71.875 37.390625 69.359375 
Q 42.328125 66.84375 44.9375 62.5 
Q 47.5625 58.15625 47.5625 53.265625 
Q 47.5625 48.640625 45.0625 44.828125 
Q 42.578125 41.015625 37.703125 38.765625 
Q 44.046875 37.3125 47.5625 32.6875 
Q 51.078125 28.078125 51.078125 21.140625 
Q 51.078125 11.765625 44.234375 5.25 
Q 37.40625 -1.265625 26.953125 -1.265625 
Q 17.53125 -1.265625 11.296875 4.34375 
Q 5.078125 9.96875 4.203125 18.890625 
z
" id="ArialMT-51"/>
      </defs>
      <g style="fill:#262626;" transform="translate(274.841484 395.373594)scale(0.11 -0.11)">
       <use xlink:href="#ArialMT-51"/>
      </g>
     </g>
    </g>
    <g id="xtick_5">
     <g id="text_5">
      <!-- 4 -->
      <defs>
       <path d="M 32.328125 0 
L 32.328125 17.140625 
L 1.265625 17.140625 
L 1.265625 25.203125 
L 33.9375 71.578125 
L 41.109375 71.578125 
L 41.109375 25.203125 
L 50.78125 25.203125 
L 50.78125 17.140625 
L 41.109375 17.140625 
L 41.109375 0 
z
M 32.328125 25.203125 
L 32.328125 57.46875 
L 9.90625 25.203125 
z
" id="ArialMT-52"/>
      </defs>
      <g style="fill:#262626;" transform="translate(318.241484 395.373594)scale(0.11 -0.11)">
       <use xlink:href="#ArialMT-52"/>
      </g>
     </g>
    </g>
    <g id="xtick_6">
     <g id="text_6">
      <!-- 5 -->
      <defs>
       <path d="M 4.15625 18.75 
L 13.375 19.53125 
Q 14.40625 12.796875 18.140625 9.390625 
Q 21.875 6 27.15625 6 
Q 33.5 6 37.890625 10.78125 
Q 42.28125 15.578125 42.28125 23.484375 
Q 42.28125 31 38.0625 35.34375 
Q 33.84375 39.703125 27 39.703125 
Q 22.75 39.703125 19.328125 37.765625 
Q 15.921875 35.84375 13.96875 32.765625 
L 5.71875 33.84375 
L 12.640625 70.609375 
L 48.25 70.609375 
L 48.25 62.203125 
L 19.671875 62.203125 
L 15.828125 42.96875 
Q 22.265625 47.46875 29.34375 47.46875 
Q 38.71875 47.46875 45.15625 40.96875 
Q 51.609375 34.46875 51.609375 24.265625 
Q 51.609375 14.546875 45.953125 7.46875 
Q 39.0625 -1.21875 27.15625 -1.21875 
Q 17.390625 -1.21875 11.203125 4.25 
Q 5.03125 9.71875 4.15625 18.75 
z
" id="ArialMT-53"/>
      </defs>
      <g style="fill:#262626;" transform="translate(361.641484 395.373594)scale(0.11 -0.11)">
       <use xlink:href="#ArialMT-53"/>
      </g>
     </g>
    </g>
    <g id="xtick_7">
     <g id="text_7">
      <!-- 6 -->
      <defs>
       <path d="M 49.75 54.046875 
L 41.015625 53.375 
Q 39.84375 58.546875 37.703125 60.890625 
Q 34.125 64.65625 28.90625 64.65625 
Q 24.703125 64.65625 21.53125 62.3125 
Q 17.390625 59.28125 14.984375 53.46875 
Q 12.59375 47.65625 12.5 36.921875 
Q 15.671875 41.75 20.265625 44.09375 
Q 24.859375 46.4375 29.890625 46.4375 
Q 38.671875 46.4375 44.84375 39.96875 
Q 51.03125 33.5 51.03125 23.25 
Q 51.03125 16.5 48.125 10.71875 
Q 45.21875 4.9375 40.140625 1.859375 
Q 35.0625 -1.21875 28.609375 -1.21875 
Q 17.625 -1.21875 10.6875 6.859375 
Q 3.765625 14.9375 3.765625 33.5 
Q 3.765625 54.25 11.421875 63.671875 
Q 18.109375 71.875 29.4375 71.875 
Q 37.890625 71.875 43.28125 67.140625 
Q 48.6875 62.40625 49.75 54.046875 
z
M 13.875 23.1875 
Q 13.875 18.65625 15.796875 14.5 
Q 17.71875 10.359375 21.1875 8.171875 
Q 24.65625 6 28.46875 6 
Q 34.03125 6 38.03125 10.484375 
Q 42.046875 14.984375 42.046875 22.703125 
Q 42.046875 30.125 38.078125 34.390625 
Q 34.125 38.671875 28.125 38.671875 
Q 22.171875 38.671875 18.015625 34.390625 
Q 13.875 30.125 13.875 23.1875 
z
" id="ArialMT-54"/>
      </defs>
      <g style="fill:#262626;" transform="translate(405.041484 395.373594)scale(0.11 -0.11)">
       <use xlink:href="#ArialMT-54"/>
      </g>
     </g>
    </g>
    <g id="xtick_8">
     <g id="text_8">
      <!-- 7 -->
      <defs>
       <path d="M 4.734375 62.203125 
L 4.734375 70.65625 
L 51.078125 70.65625 
L 51.078125 63.8125 
Q 44.234375 56.546875 37.515625 44.484375 
Q 30.8125 32.421875 27.15625 19.671875 
Q 24.515625 10.6875 23.78125 0 
L 14.75 0 
Q 14.890625 8.453125 18.0625 20.40625 
Q 21.234375 32.375 27.171875 43.484375 
Q 33.109375 54.59375 39.796875 62.203125 
z
" id="ArialMT-55"/>
      </defs>
      <g style="fill:#262626;" transform="translate(448.441484 395.373594)scale(0.11 -0.11)">
       <use xlink:href="#ArialMT-55"/>
      </g>
     </g>
    </g>
    <g id="xtick_9">
     <g id="text_9">
      <!-- 8 -->
      <defs>
       <path d="M 17.671875 38.8125 
Q 12.203125 40.828125 9.5625 44.53125 
Q 6.9375 48.25 6.9375 53.421875 
Q 6.9375 61.234375 12.546875 66.546875 
Q 18.171875 71.875 27.484375 71.875 
Q 36.859375 71.875 42.578125 66.421875 
Q 48.296875 60.984375 48.296875 53.171875 
Q 48.296875 48.1875 45.671875 44.5 
Q 43.0625 40.828125 37.75 38.8125 
Q 44.34375 36.671875 47.78125 31.875 
Q 51.21875 27.09375 51.21875 20.453125 
Q 51.21875 11.28125 44.71875 5.03125 
Q 38.234375 -1.21875 27.640625 -1.21875 
Q 17.046875 -1.21875 10.546875 5.046875 
Q 4.046875 11.328125 4.046875 20.703125 
Q 4.046875 27.6875 7.59375 32.390625 
Q 11.140625 37.109375 17.671875 38.8125 
z
M 15.921875 53.71875 
Q 15.921875 48.640625 19.1875 45.40625 
Q 22.46875 42.1875 27.6875 42.1875 
Q 32.765625 42.1875 36.015625 45.375 
Q 39.265625 48.578125 39.265625 53.21875 
Q 39.265625 58.0625 35.90625 61.359375 
Q 32.5625 64.65625 27.59375 64.65625 
Q 22.5625 64.65625 19.234375 61.421875 
Q 15.921875 58.203125 15.921875 53.71875 
z
M 13.09375 20.65625 
Q 13.09375 16.890625 14.875 13.375 
Q 16.65625 9.859375 20.171875 7.921875 
Q 23.6875 6 27.734375 6 
Q 34.03125 6 38.125 10.046875 
Q 42.234375 14.109375 42.234375 20.359375 
Q 42.234375 26.703125 38.015625 30.859375 
Q 33.796875 35.015625 27.4375 35.015625 
Q 21.234375 35.015625 17.15625 30.90625 
Q 13.09375 26.8125 13.09375 20.65625 
z
" id="ArialMT-56"/>
      </defs>
      <g style="fill:#262626;" transform="translate(491.841484 395.373594)scale(0.11 -0.11)">
       <use xlink:href="#ArialMT-56"/>
      </g>
     </g>
    </g>
    <g id="xtick_10">
     <g id="text_10">
      <!-- 9 -->
      <defs>
       <path d="M 5.46875 16.546875 
L 13.921875 17.328125 
Q 14.984375 11.375 18.015625 8.6875 
Q 21.046875 6 25.78125 6 
Q 29.828125 6 32.875 7.859375 
Q 35.9375 9.71875 37.890625 12.8125 
Q 39.84375 15.921875 41.15625 21.1875 
Q 42.484375 26.46875 42.484375 31.9375 
Q 42.484375 32.515625 42.4375 33.6875 
Q 39.796875 29.5 35.234375 26.875 
Q 30.671875 24.265625 25.34375 24.265625 
Q 16.453125 24.265625 10.296875 30.703125 
Q 4.15625 37.15625 4.15625 47.703125 
Q 4.15625 58.59375 10.578125 65.234375 
Q 17 71.875 26.65625 71.875 
Q 33.640625 71.875 39.421875 68.109375 
Q 45.21875 64.359375 48.21875 57.390625 
Q 51.21875 50.4375 51.21875 37.25 
Q 51.21875 23.53125 48.234375 15.40625 
Q 45.265625 7.28125 39.375 3.03125 
Q 33.5 -1.21875 25.59375 -1.21875 
Q 17.1875 -1.21875 11.859375 3.4375 
Q 6.546875 8.109375 5.46875 16.546875 
z
M 41.453125 48.140625 
Q 41.453125 55.71875 37.421875 60.15625 
Q 33.40625 64.59375 27.734375 64.59375 
Q 21.875 64.59375 17.53125 59.8125 
Q 13.1875 55.03125 13.1875 47.40625 
Q 13.1875 40.578125 17.3125 36.296875 
Q 21.4375 32.03125 27.484375 32.03125 
Q 33.59375 32.03125 37.515625 36.296875 
Q 41.453125 40.578125 41.453125 48.140625 
z
" id="ArialMT-57"/>
      </defs>
      <g style="fill:#262626;" transform="translate(535.241484 395.373594)scale(0.11 -0.11)">
       <use xlink:href="#ArialMT-57"/>
      </g>
     </g>
    </g>
    <g id="xtick_11">
     <g id="text_11">
      <!-- 10 -->
      <g style="fill:#262626;" transform="translate(575.582969 395.373594)scale(0.11 -0.11)">
       <use xlink:href="#ArialMT-49"/>
       <use x="55.615234" xlink:href="#ArialMT-48"/>
      </g>
     </g>
    </g>
    <g id="xtick_12">
     <g id="text_12">
      <!-- 11 -->
      <g style="fill:#262626;" transform="translate(618.988984 395.373594)scale(0.11 -0.11)">
       <use xlink:href="#ArialMT-49"/>
       <use x="55.505859" xlink:href="#ArialMT-49"/>
      </g>
     </g>
    </g>
    <g id="xtick_13">
     <g id="text_13">
      <!-- 12 -->
      <g style="fill:#262626;" transform="translate(662.382969 395.373594)scale(0.11 -0.11)">
       <use xlink:href="#ArialMT-49"/>
       <use x="55.615234" xlink:href="#ArialMT-50"/>
      </g>
     </g>
    </g>
    <g id="xtick_14">
     <g id="text_14">
      <!-- 13 -->
      <g style="fill:#262626;" transform="translate(705.782969 395.373594)scale(0.11 -0.11)">
       <use xlink:href="#ArialMT-49"/>
       <use x="55.615234" xlink:href="#ArialMT-51"/>
      </g>
     </g>
    </g>
    <g id="xtick_15">
     <g id="text_15">
      <!-- 14 -->
      <g style="fill:#262626;" transform="translate(749.182969 395.373594)scale(0.11 -0.11)">
       <use xlink:href="#ArialMT-49"/>
       <use x="55.615234" xlink:href="#ArialMT-52"/>
      </g>
     </g>
    </g>
    <g id="xtick_16">
     <g id="text_16">
      <!-- 15 -->
      <g style="fill:#262626;" transform="translate(792.582969 395.373594)scale(0.11 -0.11)">
       <use xlink:href="#ArialMT-49"/>
       <use x="55.615234" xlink:href="#ArialMT-53"/>
      </g>
     </g>
    </g>
    <g id="xtick_17">
     <g id="text_17">
      <!-- 16 -->
      <g style="fill:#262626;" transform="translate(835.982969 395.373594)scale(0.11 -0.11)">
       <use xlink:href="#ArialMT-49"/>
       <use x="55.615234" xlink:href="#ArialMT-54"/>
      </g>
     </g>
    </g>
    <g id="xtick_18">
     <g id="text_18">
      <!-- 17 -->
      <g style="fill:#262626;" transform="translate(879.382969 395.373594)scale(0.11 -0.11)">
       <use xlink:href="#ArialMT-49"/>
       <use x="55.615234" xlink:href="#ArialMT-55"/>
      </g>
     </g>
    </g>
    <g id="text_19">
     <!-- gen -->
     <defs>
      <path d="M 4.984375 -4.296875 
L 13.53125 -5.5625 
Q 14.0625 -9.515625 16.5 -11.328125 
Q 19.78125 -13.765625 25.4375 -13.765625 
Q 31.546875 -13.765625 34.859375 -11.328125 
Q 38.1875 -8.890625 39.359375 -4.5 
Q 40.046875 -1.8125 39.984375 6.78125 
Q 34.234375 0 25.640625 0 
Q 14.9375 0 9.078125 7.71875 
Q 3.21875 15.4375 3.21875 26.21875 
Q 3.21875 33.640625 5.90625 39.90625 
Q 8.59375 46.1875 13.6875 49.609375 
Q 18.796875 53.03125 25.6875 53.03125 
Q 34.859375 53.03125 40.828125 45.609375 
L 40.828125 51.859375 
L 48.921875 51.859375 
L 48.921875 7.03125 
Q 48.921875 -5.078125 46.453125 -10.125 
Q 44 -15.1875 38.640625 -18.109375 
Q 33.296875 -21.046875 25.484375 -21.046875 
Q 16.21875 -21.046875 10.5 -16.875 
Q 4.78125 -12.703125 4.984375 -4.296875 
z
M 12.25 26.859375 
Q 12.25 16.65625 16.296875 11.96875 
Q 20.359375 7.28125 26.46875 7.28125 
Q 32.515625 7.28125 36.609375 11.9375 
Q 40.71875 16.609375 40.71875 26.5625 
Q 40.71875 36.078125 36.5 40.90625 
Q 32.28125 45.75 26.3125 45.75 
Q 20.453125 45.75 16.34375 40.984375 
Q 12.25 36.234375 12.25 26.859375 
z
" id="ArialMT-103"/>
      <path d="M 42.09375 16.703125 
L 51.171875 15.578125 
Q 49.03125 7.625 43.21875 3.21875 
Q 37.40625 -1.171875 28.375 -1.171875 
Q 17 -1.171875 10.328125 5.828125 
Q 3.65625 12.84375 3.65625 25.484375 
Q 3.65625 38.578125 10.390625 45.796875 
Q 17.140625 53.03125 27.875 53.03125 
Q 38.28125 53.03125 44.875 45.953125 
Q 51.46875 38.875 51.46875 26.03125 
Q 51.46875 25.25 51.421875 23.6875 
L 12.75 23.6875 
Q 13.234375 15.140625 17.578125 10.59375 
Q 21.921875 6.0625 28.421875 6.0625 
Q 33.25 6.0625 36.671875 8.59375 
Q 40.09375 11.140625 42.09375 16.703125 
z
M 13.234375 30.90625 
L 42.1875 30.90625 
Q 41.609375 37.453125 38.875 40.71875 
Q 34.671875 45.796875 27.984375 45.796875 
Q 21.921875 45.796875 17.796875 41.75 
Q 13.671875 37.703125 13.234375 30.90625 
z
" id="ArialMT-101"/>
      <path d="M 6.59375 0 
L 6.59375 51.859375 
L 14.5 51.859375 
L 14.5 44.484375 
Q 20.21875 53.03125 31 53.03125 
Q 35.6875 53.03125 39.625 51.34375 
Q 43.5625 49.65625 45.515625 46.921875 
Q 47.46875 44.1875 48.25 40.4375 
Q 48.734375 37.984375 48.734375 31.890625 
L 48.734375 0 
L 39.9375 0 
L 39.9375 31.546875 
Q 39.9375 36.921875 38.90625 39.578125 
Q 37.890625 42.234375 35.28125 43.8125 
Q 32.671875 45.40625 29.15625 45.40625 
Q 23.53125 45.40625 19.453125 41.84375 
Q 15.375 38.28125 15.375 28.328125 
L 15.375 0 
z
" id="ArialMT-110"/>
     </defs>
     <g style="fill:#262626;" transform="translate(506.590313 410.008594)scale(0.12 -0.12)">
      <use xlink:href="#ArialMT-103"/>
      <use x="55.615234" xlink:href="#ArialMT-101"/>
      <use x="111.230469" xlink:href="#ArialMT-110"/>
     </g>
    </g>
   </g>
   <g id="matplotlib.axis_2">
    <g id="ytick_1">
     <g id="line2d_1">
      <path clip-path="url(#p410facad0f)" d="M 126 342.958017 
L 907.2 342.958017 
" style="fill:none;stroke:#ffffff;stroke-linecap:round;"/>
     </g>
     <g id="text_20">
      <!-- −16 -->
      <defs>
       <path d="M 52.828125 31.203125 
L 5.5625 31.203125 
L 5.5625 39.40625 
L 52.828125 39.40625 
z
" id="ArialMT-8722"/>
      </defs>
      <g style="fill:#262626;" transform="translate(97.84125 346.894813)scale(0.11 -0.11)">
       <use xlink:href="#ArialMT-8722"/>
       <use x="58.398438" xlink:href="#ArialMT-49"/>
       <use x="114.013672" xlink:href="#ArialMT-54"/>
      </g>
     </g>
    </g>
    <g id="ytick_2">
     <g id="line2d_2">
      <path clip-path="url(#p410facad0f)" d="M 126 275.569587 
L 907.2 275.569587 
" style="fill:none;stroke:#ffffff;stroke-linecap:round;"/>
     </g>
     <g id="text_21">
      <!-- −14 -->
      <g style="fill:#262626;" transform="translate(97.84125 279.506384)scale(0.11 -0.11)">
       <use xlink:href="#ArialMT-8722"/>
       <use x="58.398438" xlink:href="#ArialMT-49"/>
       <use x="114.013672" xlink:href="#ArialMT-52"/>
      </g>
     </g>
    </g>
    <g id="ytick_3">
     <g id="line2d_3">
      <path clip-path="url(#p410facad0f)" d="M 126 208.181157 
L 907.2 208.181157 
" style="fill:none;stroke:#ffffff;stroke-linecap:round;"/>
     </g>
     <g id="text_22">
      <!-- −12 -->
      <g style="fill:#262626;" transform="translate(97.84125 212.117954)scale(0.11 -0.11)">
       <use xlink:href="#ArialMT-8722"/>
       <use x="58.398438" xlink:href="#ArialMT-49"/>
       <use x="114.013672" xlink:href="#ArialMT-50"/>
      </g>
     </g>
    </g>
    <g id="ytick_4">
     <g id="line2d_4">
      <path clip-path="url(#p410facad0f)" d="M 126 140.792727 
L 907.2 140.792727 
" style="fill:none;stroke:#ffffff;stroke-linecap:round;"/>
     </g>
     <g id="text_23">
      <!-- −10 -->
      <g style="fill:#262626;" transform="translate(97.84125 144.729524)scale(0.11 -0.11)">
       <use xlink:href="#ArialMT-8722"/>
       <use x="58.398438" xlink:href="#ArialMT-49"/>
       <use x="114.013672" xlink:href="#ArialMT-48"/>
      </g>
     </g>
    </g>
    <g id="ytick_5">
     <g id="line2d_5">
      <path clip-path="url(#p410facad0f)" d="M 126 73.404298 
L 907.2 73.404298 
" style="fill:none;stroke:#ffffff;stroke-linecap:round;"/>
     </g>
     <g id="text_24">
      <!-- −8 -->
      <g style="fill:#262626;" transform="translate(103.958281 77.341094)scale(0.11 -0.11)">
       <use xlink:href="#ArialMT-8722"/>
       <use x="58.398438" xlink:href="#ArialMT-56"/>
      </g>
     </g>
    </g>
    <g id="text_25">
     <!-- score -->
     <defs>
      <path d="M 3.078125 15.484375 
L 11.765625 16.84375 
Q 12.5 11.625 15.84375 8.84375 
Q 19.1875 6.0625 25.203125 6.0625 
Q 31.25 6.0625 34.171875 8.515625 
Q 37.109375 10.984375 37.109375 14.3125 
Q 37.109375 17.28125 34.515625 19 
Q 32.71875 20.171875 25.53125 21.96875 
Q 15.875 24.421875 12.140625 26.203125 
Q 8.40625 27.984375 6.46875 31.125 
Q 4.546875 34.28125 4.546875 38.09375 
Q 4.546875 41.546875 6.125 44.5 
Q 7.71875 47.46875 10.453125 49.421875 
Q 12.5 50.921875 16.03125 51.96875 
Q 19.578125 53.03125 23.640625 53.03125 
Q 29.734375 53.03125 34.34375 51.265625 
Q 38.96875 49.515625 41.15625 46.5 
Q 43.359375 43.5 44.1875 38.484375 
L 35.59375 37.3125 
Q 35.015625 41.3125 32.203125 43.546875 
Q 29.390625 45.796875 24.265625 45.796875 
Q 18.21875 45.796875 15.625 43.796875 
Q 13.03125 41.796875 13.03125 39.109375 
Q 13.03125 37.40625 14.109375 36.03125 
Q 15.1875 34.625 17.484375 33.6875 
Q 18.796875 33.203125 25.25 31.453125 
Q 34.578125 28.953125 38.25 27.359375 
Q 41.9375 25.78125 44.03125 22.75 
Q 46.140625 19.734375 46.140625 15.234375 
Q 46.140625 10.84375 43.578125 6.953125 
Q 41.015625 3.078125 36.171875 0.953125 
Q 31.34375 -1.171875 25.25 -1.171875 
Q 15.140625 -1.171875 9.84375 3.03125 
Q 4.546875 7.234375 3.078125 15.484375 
z
" id="ArialMT-115"/>
      <path d="M 40.4375 19 
L 49.078125 17.875 
Q 47.65625 8.9375 41.8125 3.875 
Q 35.984375 -1.171875 27.484375 -1.171875 
Q 16.84375 -1.171875 10.375 5.78125 
Q 3.90625 12.75 3.90625 25.734375 
Q 3.90625 34.125 6.6875 40.421875 
Q 9.46875 46.734375 15.15625 49.875 
Q 20.84375 53.03125 27.546875 53.03125 
Q 35.984375 53.03125 41.359375 48.75 
Q 46.734375 44.484375 48.25 36.625 
L 39.703125 35.296875 
Q 38.484375 40.53125 35.375 43.15625 
Q 32.28125 45.796875 27.875 45.796875 
Q 21.234375 45.796875 17.078125 41.03125 
Q 12.9375 36.28125 12.9375 25.984375 
Q 12.9375 15.53125 16.9375 10.796875 
Q 20.953125 6.0625 27.390625 6.0625 
Q 32.5625 6.0625 36.03125 9.234375 
Q 39.5 12.40625 40.4375 19 
z
" id="ArialMT-99"/>
      <path d="M 3.328125 25.921875 
Q 3.328125 40.328125 11.328125 47.265625 
Q 18.015625 53.03125 27.640625 53.03125 
Q 38.328125 53.03125 45.109375 46.015625 
Q 51.90625 39.015625 51.90625 26.65625 
Q 51.90625 16.65625 48.90625 10.90625 
Q 45.90625 5.171875 40.15625 2 
Q 34.421875 -1.171875 27.640625 -1.171875 
Q 16.75 -1.171875 10.03125 5.8125 
Q 3.328125 12.796875 3.328125 25.921875 
z
M 12.359375 25.921875 
Q 12.359375 15.96875 16.703125 11.015625 
Q 21.046875 6.0625 27.640625 6.0625 
Q 34.1875 6.0625 38.53125 11.03125 
Q 42.875 16.015625 42.875 26.21875 
Q 42.875 35.84375 38.5 40.796875 
Q 34.125 45.75 27.640625 45.75 
Q 21.046875 45.75 16.703125 40.8125 
Q 12.359375 35.890625 12.359375 25.921875 
z
" id="ArialMT-111"/>
      <path d="M 6.5 0 
L 6.5 51.859375 
L 14.40625 51.859375 
L 14.40625 44 
Q 17.4375 49.515625 20 51.265625 
Q 22.5625 53.03125 25.640625 53.03125 
Q 30.078125 53.03125 34.671875 50.203125 
L 31.640625 42.046875 
Q 28.421875 43.953125 25.203125 43.953125 
Q 22.3125 43.953125 20.015625 42.21875 
Q 17.71875 40.484375 16.75 37.40625 
Q 15.28125 32.71875 15.28125 27.15625 
L 15.28125 0 
z
" id="ArialMT-114"/>
     </defs>
     <g style="fill:#262626;" transform="translate(91.45625 229.590937)rotate(-90)scale(0.12 -0.12)">
      <use xlink:href="#ArialMT-115"/>
      <use x="50" xlink:href="#ArialMT-99"/>
      <use x="100" xlink:href="#ArialMT-111"/>
      <use x="155.615234" xlink:href="#ArialMT-114"/>
      <use x="188.916016" xlink:href="#ArialMT-101"/>
     </g>
    </g>
   </g>
   <g id="patch_3">
    <path clip-path="url(#p410facad0f)" d="M 130.34 98.674959 
L 165.06 98.674959 
L 165.06 80.14314 
L 130.34 80.14314 
L 130.34 98.674959 
z
" style="fill:#ea96a3;stroke:#464646;stroke-linejoin:miter;stroke-width:1.5;"/>
   </g>
   <g id="patch_4">
    <path clip-path="url(#p410facad0f)" d="M 173.74 83.512562 
L 208.46 83.512562 
L 208.46 70.034876 
L 173.74 70.034876 
L 173.74 83.512562 
z
" style="fill:#e7957e;stroke:#464646;stroke-linejoin:miter;stroke-width:1.5;"/>
   </g>
   <g id="patch_5">
    <path clip-path="url(#p410facad0f)" d="M 217.14 83.512562 
L 251.86 83.512562 
L 251.86 66.665455 
L 217.14 66.665455 
L 217.14 83.512562 
z
" style="fill:#d1964d;stroke:#464646;stroke-linejoin:miter;stroke-width:1.5;"/>
   </g>
   <g id="patch_6">
    <path clip-path="url(#p410facad0f)" d="M 260.54 90.251405 
L 295.26 90.251405 
L 295.26 70.034876 
L 260.54 70.034876 
L 260.54 90.251405 
z
" style="fill:#b89c49;stroke:#464646;stroke-linejoin:miter;stroke-width:1.5;"/>
   </g>
   <g id="patch_7">
    <path clip-path="url(#p410facad0f)" d="M 303.94 98.674959 
L 338.66 98.674959 
L 338.66 70.034876 
L 303.94 70.034876 
L 303.94 98.674959 
z
" style="fill:#a29f46;stroke:#464646;stroke-linejoin:miter;stroke-width:1.5;"/>
   </g>
   <g id="patch_8">
    <path clip-path="url(#p410facad0f)" d="M 347.34 100.359669 
L 382.06 100.359669 
L 382.06 74.246653 
L 347.34 74.246653 
L 347.34 100.359669 
z
" style="fill:#8ca646;stroke:#464646;stroke-linejoin:miter;stroke-width:1.5;"/>
   </g>
   <g id="patch_9">
    <path clip-path="url(#p410facad0f)" d="M 390.74 110.467934 
L 425.46 110.467934 
L 425.46 76.773719 
L 390.74 76.773719 
L 390.74 110.467934 
z
" style="fill:#60ae47;stroke:#464646;stroke-linejoin:miter;stroke-width:1.5;"/>
   </g>
   <g id="patch_10">
    <path clip-path="url(#p410facad0f)" d="M 434.14 127.315041 
L 468.86 127.315041 
L 468.86 80.985496 
L 434.14 80.985496 
L 434.14 127.315041 
z
" style="fill:#49af7c;stroke:#464646;stroke-linejoin:miter;stroke-width:1.5;"/>
   </g>
   <g id="patch_11">
    <path clip-path="url(#p410facad0f)" d="M 477.54 119.733843 
L 512.26 119.733843 
L 512.26 77.616074 
L 477.54 77.616074 
L 477.54 119.733843 
z
" style="fill:#4aad95;stroke:#464646;stroke-linejoin:miter;stroke-width:1.5;"/>
   </g>
   <g id="patch_12">
    <path clip-path="url(#p410facad0f)" d="M 520.94 103.729091 
L 555.66 103.729091 
L 555.66 76.773719 
L 520.94 76.773719 
L 520.94 103.729091 
z
" style="fill:#4baba4;stroke:#464646;stroke-linejoin:miter;stroke-width:1.5;"/>
   </g>
   <g id="patch_13">
    <path clip-path="url(#p410facad0f)" d="M 564.34 100.359669 
L 599.06 100.359669 
L 599.06 80.14314 
L 564.34 80.14314 
L 564.34 100.359669 
z
" style="fill:#4dabb3;stroke:#464646;stroke-linejoin:miter;stroke-width:1.5;"/>
   </g>
   <g id="patch_14">
    <path clip-path="url(#p410facad0f)" d="M 607.74 147.53157 
L 642.46 147.53157 
L 642.46 99.517314 
L 607.74 99.517314 
L 607.74 147.53157 
z
" style="fill:#51acc7;stroke:#464646;stroke-linejoin:miter;stroke-width:1.5;"/>
   </g>
   <g id="patch_15">
    <path clip-path="url(#p410facad0f)" d="M 651.14 157.639835 
L 685.86 157.639835 
L 685.86 107.098512 
L 651.14 107.098512 
L 651.14 157.639835 
z
" style="fill:#6daee2;stroke:#464646;stroke-linejoin:miter;stroke-width:1.5;"/>
   </g>
   <g id="patch_16">
    <path clip-path="url(#p410facad0f)" d="M 694.54 157.639835 
L 729.26 157.639835 
L 729.26 110.467934 
L 694.54 110.467934 
L 694.54 157.639835 
z
" style="fill:#a6acea;stroke:#464646;stroke-linejoin:miter;stroke-width:1.5;"/>
   </g>
   <g id="patch_17">
    <path clip-path="url(#p410facad0f)" d="M 737.94 161.009256 
L 772.66 161.009256 
L 772.66 117.206777 
L 737.94 117.206777 
L 737.94 161.009256 
z
" style="fill:#c4a1ea;stroke:#464646;stroke-linejoin:miter;stroke-width:1.5;"/>
   </g>
   <g id="patch_18">
    <path clip-path="url(#p410facad0f)" d="M 781.34 130.684463 
L 816.06 130.684463 
L 816.06 130.684463 
L 781.34 130.684463 
L 781.34 130.684463 
z
" style="fill:#df8fe7;stroke:#464646;stroke-linejoin:miter;stroke-width:1.5;"/>
   </g>
   <g id="patch_19">
    <path clip-path="url(#p410facad0f)" d="M 824.74 184.595207 
L 859.46 184.595207 
L 859.46 130.684463 
L 824.74 130.684463 
L 824.74 184.595207 
z
" style="fill:#e88ed1;stroke:#464646;stroke-linejoin:miter;stroke-width:1.5;"/>
   </g>
   <g id="patch_20">
    <path clip-path="url(#p410facad0f)" d="M 868.14 177.856364 
L 902.86 177.856364 
L 902.86 123.94562 
L 868.14 123.94562 
L 868.14 177.856364 
z
" style="fill:#e992bb;stroke:#464646;stroke-linejoin:miter;stroke-width:1.5;"/>
   </g>
   <g id="line2d_6">
    <path clip-path="url(#p410facad0f)" d="M 147.7 98.674959 
L 147.7 120.576198 
" style="fill:none;stroke:#464646;stroke-linecap:round;stroke-width:1.5;"/>
   </g>
   <g id="line2d_7">
    <path clip-path="url(#p410facad0f)" d="M 147.7 80.14314 
L 147.7 66.665455 
" style="fill:none;stroke:#464646;stroke-linecap:round;stroke-width:1.5;"/>
   </g>
   <g id="line2d_8">
    <path clip-path="url(#p410facad0f)" d="M 139.02 120.576198 
L 156.38 120.576198 
" style="fill:none;stroke:#464646;stroke-linecap:round;stroke-width:1.5;"/>
   </g>
   <g id="line2d_9">
    <path clip-path="url(#p410facad0f)" d="M 139.02 66.665455 
L 156.38 66.665455 
" style="fill:none;stroke:#464646;stroke-linecap:round;stroke-width:1.5;"/>
   </g>
   <g id="line2d_10">
    <defs>
     <path d="M 0 3.535534 
L 2.12132 0 
L 0 -3.535534 
L -2.12132 0 
z
" id="m4f768af4c0" style="stroke:#464646;stroke-linejoin:miter;"/>
    </defs>
    <g clip-path="url(#p410facad0f)">
     <use style="fill:#464646;stroke:#464646;stroke-linejoin:miter;" x="147.7" xlink:href="#m4f768af4c0" y="144.162149"/>
     <use style="fill:#464646;stroke:#464646;stroke-linejoin:miter;" x="147.7" xlink:href="#m4f768af4c0" y="137.423306"/>
    </g>
   </g>
   <g id="line2d_11">
    <path clip-path="url(#p410facad0f)" d="M 191.1 83.512562 
L 191.1 103.729091 
" style="fill:none;stroke:#464646;stroke-linecap:round;stroke-width:1.5;"/>
   </g>
   <g id="line2d_12">
    <path clip-path="url(#p410facad0f)" d="M 191.1 70.034876 
L 191.1 66.665455 
" style="fill:none;stroke:#464646;stroke-linecap:round;stroke-width:1.5;"/>
   </g>
   <g id="line2d_13">
    <path clip-path="url(#p410facad0f)" d="M 182.42 103.729091 
L 199.78 103.729091 
" style="fill:none;stroke:#464646;stroke-linecap:round;stroke-width:1.5;"/>
   </g>
   <g id="line2d_14">
    <path clip-path="url(#p410facad0f)" d="M 182.42 66.665455 
L 199.78 66.665455 
" style="fill:none;stroke:#464646;stroke-linecap:round;stroke-width:1.5;"/>
   </g>
   <g id="line2d_15">
    <g clip-path="url(#p410facad0f)">
     <use style="fill:#464646;stroke:#464646;stroke-linejoin:miter;" x="191.1" xlink:href="#m4f768af4c0" y="120.576198"/>
     <use style="fill:#464646;stroke:#464646;stroke-linejoin:miter;" x="191.1" xlink:href="#m4f768af4c0" y="113.837355"/>
     <use style="fill:#464646;stroke:#464646;stroke-linejoin:miter;" x="191.1" xlink:href="#m4f768af4c0" y="107.098512"/>
    </g>
   </g>
   <g id="line2d_16">
    <path clip-path="url(#p410facad0f)" d="M 234.5 83.512562 
L 234.5 96.990248 
" style="fill:none;stroke:#464646;stroke-linecap:round;stroke-width:1.5;"/>
   </g>
   <g id="line2d_17">
    <path clip-path="url(#p410facad0f)" d="M 234.5 66.665455 
L 234.5 66.665455 
" style="fill:none;stroke:#464646;stroke-linecap:round;stroke-width:1.5;"/>
   </g>
   <g id="line2d_18">
    <path clip-path="url(#p410facad0f)" d="M 225.82 96.990248 
L 243.18 96.990248 
" style="fill:none;stroke:#464646;stroke-linecap:round;stroke-width:1.5;"/>
   </g>
   <g id="line2d_19">
    <path clip-path="url(#p410facad0f)" d="M 225.82 66.665455 
L 243.18 66.665455 
" style="fill:none;stroke:#464646;stroke-linecap:round;stroke-width:1.5;"/>
   </g>
   <g id="line2d_20">
    <g clip-path="url(#p410facad0f)">
     <use style="fill:#464646;stroke:#464646;stroke-linejoin:miter;" x="234.5" xlink:href="#m4f768af4c0" y="181.225785"/>
     <use style="fill:#464646;stroke:#464646;stroke-linejoin:miter;" x="234.5" xlink:href="#m4f768af4c0" y="127.315041"/>
    </g>
   </g>
   <g id="line2d_21">
    <path clip-path="url(#p410facad0f)" d="M 277.9 90.251405 
L 277.9 117.206777 
" style="fill:none;stroke:#464646;stroke-linecap:round;stroke-width:1.5;"/>
   </g>
   <g id="line2d_22">
    <path clip-path="url(#p410facad0f)" d="M 277.9 70.034876 
L 277.9 66.665455 
" style="fill:none;stroke:#464646;stroke-linecap:round;stroke-width:1.5;"/>
   </g>
   <g id="line2d_23">
    <path clip-path="url(#p410facad0f)" d="M 269.22 117.206777 
L 286.58 117.206777 
" style="fill:none;stroke:#464646;stroke-linecap:round;stroke-width:1.5;"/>
   </g>
   <g id="line2d_24">
    <path clip-path="url(#p410facad0f)" d="M 269.22 66.665455 
L 286.58 66.665455 
" style="fill:none;stroke:#464646;stroke-linecap:round;stroke-width:1.5;"/>
   </g>
   <g id="line2d_25">
    <g clip-path="url(#p410facad0f)">
     <use style="fill:#464646;stroke:#464646;stroke-linejoin:miter;" x="277.9" xlink:href="#m4f768af4c0" y="120.576198"/>
    </g>
   </g>
   <g id="line2d_26">
    <path clip-path="url(#p410facad0f)" d="M 321.3 98.674959 
L 321.3 123.94562 
" style="fill:none;stroke:#464646;stroke-linecap:round;stroke-width:1.5;"/>
   </g>
   <g id="line2d_27">
    <path clip-path="url(#p410facad0f)" d="M 321.3 70.034876 
L 321.3 66.665455 
" style="fill:none;stroke:#464646;stroke-linecap:round;stroke-width:1.5;"/>
   </g>
   <g id="line2d_28">
    <path clip-path="url(#p410facad0f)" d="M 312.62 123.94562 
L 329.98 123.94562 
" style="fill:none;stroke:#464646;stroke-linecap:round;stroke-width:1.5;"/>
   </g>
   <g id="line2d_29">
    <path clip-path="url(#p410facad0f)" d="M 312.62 66.665455 
L 329.98 66.665455 
" style="fill:none;stroke:#464646;stroke-linecap:round;stroke-width:1.5;"/>
   </g>
   <g id="line2d_30">
    <g clip-path="url(#p410facad0f)">
     <use style="fill:#464646;stroke:#464646;stroke-linejoin:miter;" x="321.3" xlink:href="#m4f768af4c0" y="181.225785"/>
    </g>
   </g>
   <g id="line2d_31">
    <path clip-path="url(#p410facad0f)" d="M 364.7 100.359669 
L 364.7 137.423306 
" style="fill:none;stroke:#464646;stroke-linecap:round;stroke-width:1.5;"/>
   </g>
   <g id="line2d_32">
    <path clip-path="url(#p410facad0f)" d="M 364.7 74.246653 
L 364.7 66.665455 
" style="fill:none;stroke:#464646;stroke-linecap:round;stroke-width:1.5;"/>
   </g>
   <g id="line2d_33">
    <path clip-path="url(#p410facad0f)" d="M 356.02 137.423306 
L 373.38 137.423306 
" style="fill:none;stroke:#464646;stroke-linecap:round;stroke-width:1.5;"/>
   </g>
   <g id="line2d_34">
    <path clip-path="url(#p410facad0f)" d="M 356.02 66.665455 
L 373.38 66.665455 
" style="fill:none;stroke:#464646;stroke-linecap:round;stroke-width:1.5;"/>
   </g>
   <g id="line2d_35">
    <g clip-path="url(#p410facad0f)">
     <use style="fill:#464646;stroke:#464646;stroke-linejoin:miter;" x="364.7" xlink:href="#m4f768af4c0" y="161.009256"/>
     <use style="fill:#464646;stroke:#464646;stroke-linejoin:miter;" x="364.7" xlink:href="#m4f768af4c0" y="154.270413"/>
     <use style="fill:#464646;stroke:#464646;stroke-linejoin:miter;" x="364.7" xlink:href="#m4f768af4c0" y="144.162149"/>
     <use style="fill:#464646;stroke:#464646;stroke-linejoin:miter;" x="364.7" xlink:href="#m4f768af4c0" y="144.162149"/>
     <use style="fill:#464646;stroke:#464646;stroke-linejoin:miter;" x="364.7" xlink:href="#m4f768af4c0" y="144.162149"/>
     <use style="fill:#464646;stroke:#464646;stroke-linejoin:miter;" x="364.7" xlink:href="#m4f768af4c0" y="140.792727"/>
    </g>
   </g>
   <g id="line2d_36">
    <path clip-path="url(#p410facad0f)" d="M 408.1 110.467934 
L 408.1 161.009256 
" style="fill:none;stroke:#464646;stroke-linecap:round;stroke-width:1.5;"/>
   </g>
   <g id="line2d_37">
    <path clip-path="url(#p410facad0f)" d="M 408.1 76.773719 
L 408.1 66.665455 
" style="fill:none;stroke:#464646;stroke-linecap:round;stroke-width:1.5;"/>
   </g>
   <g id="line2d_38">
    <path clip-path="url(#p410facad0f)" d="M 399.42 161.009256 
L 416.78 161.009256 
" style="fill:none;stroke:#464646;stroke-linecap:round;stroke-width:1.5;"/>
   </g>
   <g id="line2d_39">
    <path clip-path="url(#p410facad0f)" d="M 399.42 66.665455 
L 416.78 66.665455 
" style="fill:none;stroke:#464646;stroke-linecap:round;stroke-width:1.5;"/>
   </g>
   <g id="line2d_40">
    <g clip-path="url(#p410facad0f)">
     <use style="fill:#464646;stroke:#464646;stroke-linejoin:miter;" x="408.1" xlink:href="#m4f768af4c0" y="184.595207"/>
     <use style="fill:#464646;stroke:#464646;stroke-linejoin:miter;" x="408.1" xlink:href="#m4f768af4c0" y="177.856364"/>
     <use style="fill:#464646;stroke:#464646;stroke-linejoin:miter;" x="408.1" xlink:href="#m4f768af4c0" y="177.856364"/>
     <use style="fill:#464646;stroke:#464646;stroke-linejoin:miter;" x="408.1" xlink:href="#m4f768af4c0" y="174.486942"/>
     <use style="fill:#464646;stroke:#464646;stroke-linejoin:miter;" x="408.1" xlink:href="#m4f768af4c0" y="174.486942"/>
     <use style="fill:#464646;stroke:#464646;stroke-linejoin:miter;" x="408.1" xlink:href="#m4f768af4c0" y="171.117521"/>
     <use style="fill:#464646;stroke:#464646;stroke-linejoin:miter;" x="408.1" xlink:href="#m4f768af4c0" y="171.117521"/>
     <use style="fill:#464646;stroke:#464646;stroke-linejoin:miter;" x="408.1" xlink:href="#m4f768af4c0" y="167.748099"/>
     <use style="fill:#464646;stroke:#464646;stroke-linejoin:miter;" x="408.1" xlink:href="#m4f768af4c0" y="164.378678"/>
     <use style="fill:#464646;stroke:#464646;stroke-linejoin:miter;" x="408.1" xlink:href="#m4f768af4c0" y="164.378678"/>
    </g>
   </g>
   <g id="line2d_41">
    <path clip-path="url(#p410facad0f)" d="M 451.5 127.315041 
L 451.5 181.225785 
" style="fill:none;stroke:#464646;stroke-linecap:round;stroke-width:1.5;"/>
   </g>
   <g id="line2d_42">
    <path clip-path="url(#p410facad0f)" d="M 451.5 80.985496 
L 451.5 70.034876 
" style="fill:none;stroke:#464646;stroke-linecap:round;stroke-width:1.5;"/>
   </g>
   <g id="line2d_43">
    <path clip-path="url(#p410facad0f)" d="M 442.82 181.225785 
L 460.18 181.225785 
" style="fill:none;stroke:#464646;stroke-linecap:round;stroke-width:1.5;"/>
   </g>
   <g id="line2d_44">
    <path clip-path="url(#p410facad0f)" d="M 442.82 70.034876 
L 460.18 70.034876 
" style="fill:none;stroke:#464646;stroke-linecap:round;stroke-width:1.5;"/>
   </g>
   <g id="line2d_45"/>
   <g id="line2d_46">
    <path clip-path="url(#p410facad0f)" d="M 494.9 119.733843 
L 494.9 167.748099 
" style="fill:none;stroke:#464646;stroke-linecap:round;stroke-width:1.5;"/>
   </g>
   <g id="line2d_47">
    <path clip-path="url(#p410facad0f)" d="M 494.9 77.616074 
L 494.9 66.665455 
" style="fill:none;stroke:#464646;stroke-linecap:round;stroke-width:1.5;"/>
   </g>
   <g id="line2d_48">
    <path clip-path="url(#p410facad0f)" d="M 486.22 167.748099 
L 503.58 167.748099 
" style="fill:none;stroke:#464646;stroke-linecap:round;stroke-width:1.5;"/>
   </g>
   <g id="line2d_49">
    <path clip-path="url(#p410facad0f)" d="M 486.22 66.665455 
L 503.58 66.665455 
" style="fill:none;stroke:#464646;stroke-linecap:round;stroke-width:1.5;"/>
   </g>
   <g id="line2d_50">
    <g clip-path="url(#p410facad0f)">
     <use style="fill:#464646;stroke:#464646;stroke-linejoin:miter;" x="494.9" xlink:href="#m4f768af4c0" y="191.33405"/>
    </g>
   </g>
   <g id="line2d_51">
    <path clip-path="url(#p410facad0f)" d="M 538.3 103.729091 
L 538.3 137.423306 
" style="fill:none;stroke:#464646;stroke-linecap:round;stroke-width:1.5;"/>
   </g>
   <g id="line2d_52">
    <path clip-path="url(#p410facad0f)" d="M 538.3 76.773719 
L 538.3 66.665455 
" style="fill:none;stroke:#464646;stroke-linecap:round;stroke-width:1.5;"/>
   </g>
   <g id="line2d_53">
    <path clip-path="url(#p410facad0f)" d="M 529.62 137.423306 
L 546.98 137.423306 
" style="fill:none;stroke:#464646;stroke-linecap:round;stroke-width:1.5;"/>
   </g>
   <g id="line2d_54">
    <path clip-path="url(#p410facad0f)" d="M 529.62 66.665455 
L 546.98 66.665455 
" style="fill:none;stroke:#464646;stroke-linecap:round;stroke-width:1.5;"/>
   </g>
   <g id="line2d_55">
    <g clip-path="url(#p410facad0f)">
     <use style="fill:#464646;stroke:#464646;stroke-linejoin:miter;" x="538.3" xlink:href="#m4f768af4c0" y="147.53157"/>
    </g>
   </g>
   <g id="line2d_56">
    <path clip-path="url(#p410facad0f)" d="M 581.7 100.359669 
L 581.7 123.94562 
" style="fill:none;stroke:#464646;stroke-linecap:round;stroke-width:1.5;"/>
   </g>
   <g id="line2d_57">
    <path clip-path="url(#p410facad0f)" d="M 581.7 80.14314 
L 581.7 73.404298 
" style="fill:none;stroke:#464646;stroke-linecap:round;stroke-width:1.5;"/>
   </g>
   <g id="line2d_58">
    <path clip-path="url(#p410facad0f)" d="M 573.02 123.94562 
L 590.38 123.94562 
" style="fill:none;stroke:#464646;stroke-linecap:round;stroke-width:1.5;"/>
   </g>
   <g id="line2d_59">
    <path clip-path="url(#p410facad0f)" d="M 573.02 73.404298 
L 590.38 73.404298 
" style="fill:none;stroke:#464646;stroke-linecap:round;stroke-width:1.5;"/>
   </g>
   <g id="line2d_60">
    <g clip-path="url(#p410facad0f)">
     <use style="fill:#464646;stroke:#464646;stroke-linejoin:miter;" x="581.7" xlink:href="#m4f768af4c0" y="154.270413"/>
    </g>
   </g>
   <g id="line2d_61">
    <path clip-path="url(#p410facad0f)" d="M 625.1 147.53157 
L 625.1 218.289421 
" style="fill:none;stroke:#464646;stroke-linecap:round;stroke-width:1.5;"/>
   </g>
   <g id="line2d_62">
    <path clip-path="url(#p410facad0f)" d="M 625.1 99.517314 
L 625.1 66.665455 
" style="fill:none;stroke:#464646;stroke-linecap:round;stroke-width:1.5;"/>
   </g>
   <g id="line2d_63">
    <path clip-path="url(#p410facad0f)" d="M 616.42 218.289421 
L 633.78 218.289421 
" style="fill:none;stroke:#464646;stroke-linecap:round;stroke-width:1.5;"/>
   </g>
   <g id="line2d_64">
    <path clip-path="url(#p410facad0f)" d="M 616.42 66.665455 
L 633.78 66.665455 
" style="fill:none;stroke:#464646;stroke-linecap:round;stroke-width:1.5;"/>
   </g>
   <g id="line2d_65">
    <g clip-path="url(#p410facad0f)">
     <use style="fill:#464646;stroke:#464646;stroke-linejoin:miter;" x="625.1" xlink:href="#m4f768af4c0" y="235.136529"/>
    </g>
   </g>
   <g id="line2d_66">
    <path clip-path="url(#p410facad0f)" d="M 668.5 157.639835 
L 668.5 231.767107 
" style="fill:none;stroke:#464646;stroke-linecap:round;stroke-width:1.5;"/>
   </g>
   <g id="line2d_67">
    <path clip-path="url(#p410facad0f)" d="M 668.5 107.098512 
L 668.5 66.665455 
" style="fill:none;stroke:#464646;stroke-linecap:round;stroke-width:1.5;"/>
   </g>
   <g id="line2d_68">
    <path clip-path="url(#p410facad0f)" d="M 659.82 231.767107 
L 677.18 231.767107 
" style="fill:none;stroke:#464646;stroke-linecap:round;stroke-width:1.5;"/>
   </g>
   <g id="line2d_69">
    <path clip-path="url(#p410facad0f)" d="M 659.82 66.665455 
L 677.18 66.665455 
" style="fill:none;stroke:#464646;stroke-linecap:round;stroke-width:1.5;"/>
   </g>
   <g id="line2d_70">
    <g clip-path="url(#p410facad0f)">
     <use style="fill:#464646;stroke:#464646;stroke-linejoin:miter;" x="668.5" xlink:href="#m4f768af4c0" y="251.983636"/>
     <use style="fill:#464646;stroke:#464646;stroke-linejoin:miter;" x="668.5" xlink:href="#m4f768af4c0" y="245.244793"/>
     <use style="fill:#464646;stroke:#464646;stroke-linejoin:miter;" x="668.5" xlink:href="#m4f768af4c0" y="241.875372"/>
    </g>
   </g>
   <g id="line2d_71">
    <path clip-path="url(#p410facad0f)" d="M 711.9 157.639835 
L 711.9 228.397686 
" style="fill:none;stroke:#464646;stroke-linecap:round;stroke-width:1.5;"/>
   </g>
   <g id="line2d_72">
    <path clip-path="url(#p410facad0f)" d="M 711.9 110.467934 
L 711.9 66.665455 
" style="fill:none;stroke:#464646;stroke-linecap:round;stroke-width:1.5;"/>
   </g>
   <g id="line2d_73">
    <path clip-path="url(#p410facad0f)" d="M 703.22 228.397686 
L 720.58 228.397686 
" style="fill:none;stroke:#464646;stroke-linecap:round;stroke-width:1.5;"/>
   </g>
   <g id="line2d_74">
    <path clip-path="url(#p410facad0f)" d="M 703.22 66.665455 
L 720.58 66.665455 
" style="fill:none;stroke:#464646;stroke-linecap:round;stroke-width:1.5;"/>
   </g>
   <g id="line2d_75">
    <g clip-path="url(#p410facad0f)">
     <use style="fill:#464646;stroke:#464646;stroke-linejoin:miter;" x="711.9" xlink:href="#m4f768af4c0" y="235.136529"/>
     <use style="fill:#464646;stroke:#464646;stroke-linejoin:miter;" x="711.9" xlink:href="#m4f768af4c0" y="235.136529"/>
     <use style="fill:#464646;stroke:#464646;stroke-linejoin:miter;" x="711.9" xlink:href="#m4f768af4c0" y="235.136529"/>
     <use style="fill:#464646;stroke:#464646;stroke-linejoin:miter;" x="711.9" xlink:href="#m4f768af4c0" y="231.767107"/>
    </g>
   </g>
   <g id="line2d_76">
    <path clip-path="url(#p410facad0f)" d="M 755.3 161.009256 
L 755.3 221.658843 
" style="fill:none;stroke:#464646;stroke-linecap:round;stroke-width:1.5;"/>
   </g>
   <g id="line2d_77">
    <path clip-path="url(#p410facad0f)" d="M 755.3 117.206777 
L 755.3 66.665455 
" style="fill:none;stroke:#464646;stroke-linecap:round;stroke-width:1.5;"/>
   </g>
   <g id="line2d_78">
    <path clip-path="url(#p410facad0f)" d="M 746.62 221.658843 
L 763.98 221.658843 
" style="fill:none;stroke:#464646;stroke-linecap:round;stroke-width:1.5;"/>
   </g>
   <g id="line2d_79">
    <path clip-path="url(#p410facad0f)" d="M 746.62 66.665455 
L 763.98 66.665455 
" style="fill:none;stroke:#464646;stroke-linecap:round;stroke-width:1.5;"/>
   </g>
   <g id="line2d_80"/>
   <g id="line2d_81">
    <path clip-path="url(#p410facad0f)" d="M 798.7 130.684463 
L 798.7 130.684463 
" style="fill:none;stroke:#464646;stroke-linecap:round;stroke-width:1.5;"/>
   </g>
   <g id="line2d_82">
    <path clip-path="url(#p410facad0f)" d="M 798.7 130.684463 
L 798.7 130.684463 
" style="fill:none;stroke:#464646;stroke-linecap:round;stroke-width:1.5;"/>
   </g>
   <g id="line2d_83">
    <path clip-path="url(#p410facad0f)" d="M 790.02 130.684463 
L 807.38 130.684463 
" style="fill:none;stroke:#464646;stroke-linecap:round;stroke-width:1.5;"/>
   </g>
   <g id="line2d_84">
    <path clip-path="url(#p410facad0f)" d="M 790.02 130.684463 
L 807.38 130.684463 
" style="fill:none;stroke:#464646;stroke-linecap:round;stroke-width:1.5;"/>
   </g>
   <g id="line2d_85"/>
   <g id="line2d_86">
    <path clip-path="url(#p410facad0f)" d="M 842.1 184.595207 
L 842.1 248.614215 
" style="fill:none;stroke:#464646;stroke-linecap:round;stroke-width:1.5;"/>
   </g>
   <g id="line2d_87">
    <path clip-path="url(#p410facad0f)" d="M 842.1 130.684463 
L 842.1 66.665455 
" style="fill:none;stroke:#464646;stroke-linecap:round;stroke-width:1.5;"/>
   </g>
   <g id="line2d_88">
    <path clip-path="url(#p410facad0f)" d="M 833.42 248.614215 
L 850.78 248.614215 
" style="fill:none;stroke:#464646;stroke-linecap:round;stroke-width:1.5;"/>
   </g>
   <g id="line2d_89">
    <path clip-path="url(#p410facad0f)" d="M 833.42 66.665455 
L 850.78 66.665455 
" style="fill:none;stroke:#464646;stroke-linecap:round;stroke-width:1.5;"/>
   </g>
   <g id="line2d_90"/>
   <g id="line2d_91">
    <path clip-path="url(#p410facad0f)" d="M 885.5 177.856364 
L 885.5 258.722479 
" style="fill:none;stroke:#464646;stroke-linecap:round;stroke-width:1.5;"/>
   </g>
   <g id="line2d_92">
    <path clip-path="url(#p410facad0f)" d="M 885.5 123.94562 
L 885.5 66.665455 
" style="fill:none;stroke:#464646;stroke-linecap:round;stroke-width:1.5;"/>
   </g>
   <g id="line2d_93">
    <path clip-path="url(#p410facad0f)" d="M 876.82 258.722479 
L 894.18 258.722479 
" style="fill:none;stroke:#464646;stroke-linecap:round;stroke-width:1.5;"/>
   </g>
   <g id="line2d_94">
    <path clip-path="url(#p410facad0f)" d="M 876.82 66.665455 
L 894.18 66.665455 
" style="fill:none;stroke:#464646;stroke-linecap:round;stroke-width:1.5;"/>
   </g>
   <g id="line2d_95">
    <g clip-path="url(#p410facad0f)">
     <use style="fill:#464646;stroke:#464646;stroke-linejoin:miter;" x="885.5" xlink:href="#m4f768af4c0" y="299.155537"/>
     <use style="fill:#464646;stroke:#464646;stroke-linejoin:miter;" x="885.5" xlink:href="#m4f768af4c0" y="363.174545"/>
    </g>
   </g>
   <g id="line2d_96">
    <path clip-path="url(#p410facad0f)" d="M 130.34 86.881983 
L 165.06 86.881983 
" style="fill:none;stroke:#464646;stroke-linecap:round;stroke-width:1.5;"/>
   </g>
   <g id="line2d_97">
    <path clip-path="url(#p410facad0f)" d="M 173.74 76.773719 
L 208.46 76.773719 
" style="fill:none;stroke:#464646;stroke-linecap:round;stroke-width:1.5;"/>
   </g>
   <g id="line2d_98">
    <path clip-path="url(#p410facad0f)" d="M 217.14 70.034876 
L 251.86 70.034876 
" style="fill:none;stroke:#464646;stroke-linecap:round;stroke-width:1.5;"/>
   </g>
   <g id="line2d_99">
    <path clip-path="url(#p410facad0f)" d="M 260.54 83.512562 
L 295.26 83.512562 
" style="fill:none;stroke:#464646;stroke-linecap:round;stroke-width:1.5;"/>
   </g>
   <g id="line2d_100">
    <path clip-path="url(#p410facad0f)" d="M 303.94 86.881983 
L 338.66 86.881983 
" style="fill:none;stroke:#464646;stroke-linecap:round;stroke-width:1.5;"/>
   </g>
   <g id="line2d_101">
    <path clip-path="url(#p410facad0f)" d="M 347.34 83.512562 
L 382.06 83.512562 
" style="fill:none;stroke:#464646;stroke-linecap:round;stroke-width:1.5;"/>
   </g>
   <g id="line2d_102">
    <path clip-path="url(#p410facad0f)" d="M 390.74 91.936116 
L 425.46 91.936116 
" style="fill:none;stroke:#464646;stroke-linecap:round;stroke-width:1.5;"/>
   </g>
   <g id="line2d_103">
    <path clip-path="url(#p410facad0f)" d="M 434.14 98.674959 
L 468.86 98.674959 
" style="fill:none;stroke:#464646;stroke-linecap:round;stroke-width:1.5;"/>
   </g>
   <g id="line2d_104">
    <path clip-path="url(#p410facad0f)" d="M 477.54 98.674959 
L 512.26 98.674959 
" style="fill:none;stroke:#464646;stroke-linecap:round;stroke-width:1.5;"/>
   </g>
   <g id="line2d_105">
    <path clip-path="url(#p410facad0f)" d="M 520.94 86.881983 
L 555.66 86.881983 
" style="fill:none;stroke:#464646;stroke-linecap:round;stroke-width:1.5;"/>
   </g>
   <g id="line2d_106">
    <path clip-path="url(#p410facad0f)" d="M 564.34 86.881983 
L 599.06 86.881983 
" style="fill:none;stroke:#464646;stroke-linecap:round;stroke-width:1.5;"/>
   </g>
   <g id="line2d_107">
    <path clip-path="url(#p410facad0f)" d="M 607.74 120.576198 
L 642.46 120.576198 
" style="fill:none;stroke:#464646;stroke-linecap:round;stroke-width:1.5;"/>
   </g>
   <g id="line2d_108">
    <path clip-path="url(#p410facad0f)" d="M 651.14 123.94562 
L 685.86 123.94562 
" style="fill:none;stroke:#464646;stroke-linecap:round;stroke-width:1.5;"/>
   </g>
   <g id="line2d_109">
    <path clip-path="url(#p410facad0f)" d="M 694.54 134.053884 
L 729.26 134.053884 
" style="fill:none;stroke:#464646;stroke-linecap:round;stroke-width:1.5;"/>
   </g>
   <g id="line2d_110">
    <path clip-path="url(#p410facad0f)" d="M 737.94 134.053884 
L 772.66 134.053884 
" style="fill:none;stroke:#464646;stroke-linecap:round;stroke-width:1.5;"/>
   </g>
   <g id="line2d_111">
    <path clip-path="url(#p410facad0f)" d="M 781.34 130.684463 
L 816.06 130.684463 
" style="fill:none;stroke:#464646;stroke-linecap:round;stroke-width:1.5;"/>
   </g>
   <g id="line2d_112">
    <path clip-path="url(#p410facad0f)" d="M 824.74 161.009256 
L 859.46 161.009256 
" style="fill:none;stroke:#464646;stroke-linecap:round;stroke-width:1.5;"/>
   </g>
   <g id="line2d_113">
    <path clip-path="url(#p410facad0f)" d="M 868.14 150.900992 
L 902.86 150.900992 
" style="fill:none;stroke:#464646;stroke-linecap:round;stroke-width:1.5;"/>
   </g>
   <g id="patch_21">
    <path d="M 126 378 
L 126 51.84 
" style="fill:none;stroke:#ffffff;stroke-linecap:square;stroke-linejoin:miter;stroke-width:1.25;"/>
   </g>
   <g id="patch_22">
    <path d="M 907.2 378 
L 907.2 51.84 
" style="fill:none;stroke:#ffffff;stroke-linecap:square;stroke-linejoin:miter;stroke-width:1.25;"/>
   </g>
   <g id="patch_23">
    <path d="M 126 378 
L 907.2 378 
" style="fill:none;stroke:#ffffff;stroke-linecap:square;stroke-linejoin:miter;stroke-width:1.25;"/>
   </g>
   <g id="patch_24">
    <path d="M 126 51.84 
L 907.2 51.84 
" style="fill:none;stroke:#ffffff;stroke-linecap:square;stroke-linejoin:miter;stroke-width:1.25;"/>
   </g>
  </g>
 </g>
 <defs>
  <clipPath id="p410facad0f">
   <rect height="326.16" width="781.2" x="126" y="51.84"/>
  </clipPath>
 </defs>
</svg>
