<?xml version="1.0" encoding="utf-8" standalone="no"?>
<!DOCTYPE svg PUBLIC "-//W3C//DTD SVG 1.1//EN"
  "http://www.w3.org/Graphics/SVG/1.1/DTD/svg11.dtd">
<!-- Created with matplotlib (https://matplotlib.org/) -->
<svg height="360pt" version="1.1" viewBox="0 0 1440 360" width="1440pt" xmlns="http://www.w3.org/2000/svg" xmlns:xlink="http://www.w3.org/1999/xlink">
 <defs>
  <style type="text/css">
*{stroke-linecap:butt;stroke-linejoin:round;}
  </style>
 </defs>
 <g id="figure_1">
  <g id="patch_1">
   <path d="M 0 360 
L 1440 360 
L 1440 0 
L 0 0 
z
" style="fill:#ffffff;"/>
  </g>
  <g id="axes_1">
   <g id="patch_2">
    <path d="M 180 315 
L 1296 315 
L 1296 43.2 
L 180 43.2 
z
" style="fill:#eaeaf2;"/>
   </g>
   <g id="matplotlib.axis_1">
    <g id="xtick_1">
     <g id="text_1">
      <!-- 0 -->
      <defs>
       <path d="M 4.15625 35.296875 
Q 4.15625 48 6.765625 55.734375 
Q 9.375 63.484375 14.515625 67.671875 
Q 19.671875 71.875 27.484375 71.875 
Q 33.25 71.875 37.59375 69.546875 
Q 41.9375 67.234375 44.765625 62.859375 
Q 47.609375 58.5 49.21875 52.21875 
Q 50.828125 45.953125 50.828125 35.296875 
Q 50.828125 22.703125 48.234375 14.96875 
Q 45.65625 7.234375 40.5 3 
Q 35.359375 -1.21875 27.484375 -1.21875 
Q 17.140625 -1.21875 11.234375 6.203125 
Q 4.15625 15.140625 4.15625 35.296875 
z
M 13.1875 35.296875 
Q 13.1875 17.671875 17.3125 11.828125 
Q 21.4375 6 27.484375 6 
Q 33.546875 6 37.671875 11.859375 
Q 41.796875 17.71875 41.796875 35.296875 
Q 41.796875 52.984375 37.671875 58.78125 
Q 33.546875 64.59375 27.390625 64.59375 
Q 21.34375 64.59375 17.71875 59.46875 
Q 13.1875 52.9375 13.1875 35.296875 
z
" id="ArialMT-48"/>
      </defs>
      <g style="fill:#262626;" transform="translate(227.668757 332.373594)scale(0.11 -0.11)">
       <use xlink:href="#ArialMT-48"/>
      </g>
     </g>
    </g>
    <g id="xtick_2">
     <g id="text_2">
      <!-- 1 -->
      <defs>
       <path d="M 37.25 0 
L 28.46875 0 
L 28.46875 56 
Q 25.296875 52.984375 20.140625 49.953125 
Q 14.984375 46.921875 10.890625 45.40625 
L 10.890625 53.90625 
Q 18.265625 57.375 23.78125 62.296875 
Q 29.296875 67.234375 31.59375 71.875 
L 37.25 71.875 
z
" id="ArialMT-49"/>
      </defs>
      <g style="fill:#262626;" transform="translate(329.123303 332.373594)scale(0.11 -0.11)">
       <use xlink:href="#ArialMT-49"/>
      </g>
     </g>
    </g>
    <g id="xtick_3">
     <g id="text_3">
      <!-- 2 -->
      <defs>
       <path d="M 50.34375 8.453125 
L 50.34375 0 
L 3.03125 0 
Q 2.9375 3.171875 4.046875 6.109375 
Q 5.859375 10.9375 9.828125 15.625 
Q 13.8125 20.3125 21.34375 26.46875 
Q 33.015625 36.03125 37.109375 41.625 
Q 41.21875 47.21875 41.21875 52.203125 
Q 41.21875 57.421875 37.46875 61 
Q 33.734375 64.59375 27.734375 64.59375 
Q 21.390625 64.59375 17.578125 60.78125 
Q 13.765625 56.984375 13.71875 50.25 
L 4.6875 51.171875 
Q 5.609375 61.28125 11.65625 66.578125 
Q 17.71875 71.875 27.9375 71.875 
Q 38.234375 71.875 44.234375 66.15625 
Q 50.25 60.453125 50.25 52 
Q 50.25 47.703125 48.484375 43.546875 
Q 46.734375 39.40625 42.65625 34.8125 
Q 38.578125 30.21875 29.109375 22.21875 
Q 21.1875 15.578125 18.9375 13.203125 
Q 16.703125 10.84375 15.234375 8.453125 
z
" id="ArialMT-50"/>
      </defs>
      <g style="fill:#262626;" transform="translate(430.577848 332.373594)scale(0.11 -0.11)">
       <use xlink:href="#ArialMT-50"/>
      </g>
     </g>
    </g>
    <g id="xtick_4">
     <g id="text_4">
      <!-- 3 -->
      <defs>
       <path d="M 4.203125 18.890625 
L 12.984375 20.0625 
Q 14.5 12.59375 18.140625 9.296875 
Q 21.78125 6 27 6 
Q 33.203125 6 37.46875 10.296875 
Q 41.75 14.59375 41.75 20.953125 
Q 41.75 27 37.796875 30.921875 
Q 33.84375 34.859375 27.734375 34.859375 
Q 25.25 34.859375 21.53125 33.890625 
L 22.515625 41.609375 
Q 23.390625 41.5 23.921875 41.5 
Q 29.546875 41.5 34.03125 44.421875 
Q 38.53125 47.359375 38.53125 53.46875 
Q 38.53125 58.296875 35.25 61.46875 
Q 31.984375 64.65625 26.8125 64.65625 
Q 21.6875 64.65625 18.265625 61.421875 
Q 14.84375 58.203125 13.875 51.765625 
L 5.078125 53.328125 
Q 6.6875 62.15625 12.390625 67.015625 
Q 18.109375 71.875 26.609375 71.875 
Q 32.46875 71.875 37.390625 69.359375 
Q 42.328125 66.84375 44.9375 62.5 
Q 47.5625 58.15625 47.5625 53.265625 
Q 47.5625 48.640625 45.0625 44.828125 
Q 42.578125 41.015625 37.703125 38.765625 
Q 44.046875 37.3125 47.5625 32.6875 
Q 51.078125 28.078125 51.078125 21.140625 
Q 51.078125 11.765625 44.234375 5.25 
Q 37.40625 -1.265625 26.953125 -1.265625 
Q 17.53125 -1.265625 11.296875 4.34375 
Q 5.078125 9.96875 4.203125 18.890625 
z
" id="ArialMT-51"/>
      </defs>
      <g style="fill:#262626;" transform="translate(532.032393 332.373594)scale(0.11 -0.11)">
       <use xlink:href="#ArialMT-51"/>
      </g>
     </g>
    </g>
    <g id="xtick_5">
     <g id="text_5">
      <!-- 4 -->
      <defs>
       <path d="M 32.328125 0 
L 32.328125 17.140625 
L 1.265625 17.140625 
L 1.265625 25.203125 
L 33.9375 71.578125 
L 41.109375 71.578125 
L 41.109375 25.203125 
L 50.78125 25.203125 
L 50.78125 17.140625 
L 41.109375 17.140625 
L 41.109375 0 
z
M 32.328125 25.203125 
L 32.328125 57.46875 
L 9.90625 25.203125 
z
" id="ArialMT-52"/>
      </defs>
      <g style="fill:#262626;" transform="translate(633.486939 332.373594)scale(0.11 -0.11)">
       <use xlink:href="#ArialMT-52"/>
      </g>
     </g>
    </g>
    <g id="xtick_6">
     <g id="text_6">
      <!-- 5 -->
      <defs>
       <path d="M 4.15625 18.75 
L 13.375 19.53125 
Q 14.40625 12.796875 18.140625 9.390625 
Q 21.875 6 27.15625 6 
Q 33.5 6 37.890625 10.78125 
Q 42.28125 15.578125 42.28125 23.484375 
Q 42.28125 31 38.0625 35.34375 
Q 33.84375 39.703125 27 39.703125 
Q 22.75 39.703125 19.328125 37.765625 
Q 15.921875 35.84375 13.96875 32.765625 
L 5.71875 33.84375 
L 12.640625 70.609375 
L 48.25 70.609375 
L 48.25 62.203125 
L 19.671875 62.203125 
L 15.828125 42.96875 
Q 22.265625 47.46875 29.34375 47.46875 
Q 38.71875 47.46875 45.15625 40.96875 
Q 51.609375 34.46875 51.609375 24.265625 
Q 51.609375 14.546875 45.953125 7.46875 
Q 39.0625 -1.21875 27.15625 -1.21875 
Q 17.390625 -1.21875 11.203125 4.25 
Q 5.03125 9.71875 4.15625 18.75 
z
" id="ArialMT-53"/>
      </defs>
      <g style="fill:#262626;" transform="translate(734.941484 332.373594)scale(0.11 -0.11)">
       <use xlink:href="#ArialMT-53"/>
      </g>
     </g>
    </g>
    <g id="xtick_7">
     <g id="text_7">
      <!-- 6 -->
      <defs>
       <path d="M 49.75 54.046875 
L 41.015625 53.375 
Q 39.84375 58.546875 37.703125 60.890625 
Q 34.125 64.65625 28.90625 64.65625 
Q 24.703125 64.65625 21.53125 62.3125 
Q 17.390625 59.28125 14.984375 53.46875 
Q 12.59375 47.65625 12.5 36.921875 
Q 15.671875 41.75 20.265625 44.09375 
Q 24.859375 46.4375 29.890625 46.4375 
Q 38.671875 46.4375 44.84375 39.96875 
Q 51.03125 33.5 51.03125 23.25 
Q 51.03125 16.5 48.125 10.71875 
Q 45.21875 4.9375 40.140625 1.859375 
Q 35.0625 -1.21875 28.609375 -1.21875 
Q 17.625 -1.21875 10.6875 6.859375 
Q 3.765625 14.9375 3.765625 33.5 
Q 3.765625 54.25 11.421875 63.671875 
Q 18.109375 71.875 29.4375 71.875 
Q 37.890625 71.875 43.28125 67.140625 
Q 48.6875 62.40625 49.75 54.046875 
z
M 13.875 23.1875 
Q 13.875 18.65625 15.796875 14.5 
Q 17.71875 10.359375 21.1875 8.171875 
Q 24.65625 6 28.46875 6 
Q 34.03125 6 38.03125 10.484375 
Q 42.046875 14.984375 42.046875 22.703125 
Q 42.046875 30.125 38.078125 34.390625 
Q 34.125 38.671875 28.125 38.671875 
Q 22.171875 38.671875 18.015625 34.390625 
Q 13.875 30.125 13.875 23.1875 
z
" id="ArialMT-54"/>
      </defs>
      <g style="fill:#262626;" transform="translate(836.39603 332.373594)scale(0.11 -0.11)">
       <use xlink:href="#ArialMT-54"/>
      </g>
     </g>
    </g>
    <g id="xtick_8">
     <g id="text_8">
      <!-- 7 -->
      <defs>
       <path d="M 4.734375 62.203125 
L 4.734375 70.65625 
L 51.078125 70.65625 
L 51.078125 63.8125 
Q 44.234375 56.546875 37.515625 44.484375 
Q 30.8125 32.421875 27.15625 19.671875 
Q 24.515625 10.6875 23.78125 0 
L 14.75 0 
Q 14.890625 8.453125 18.0625 20.40625 
Q 21.234375 32.375 27.171875 43.484375 
Q 33.109375 54.59375 39.796875 62.203125 
z
" id="ArialMT-55"/>
      </defs>
      <g style="fill:#262626;" transform="translate(937.850575 332.373594)scale(0.11 -0.11)">
       <use xlink:href="#ArialMT-55"/>
      </g>
     </g>
    </g>
    <g id="xtick_9">
     <g id="text_9">
      <!-- 8 -->
      <defs>
       <path d="M 17.671875 38.8125 
Q 12.203125 40.828125 9.5625 44.53125 
Q 6.9375 48.25 6.9375 53.421875 
Q 6.9375 61.234375 12.546875 66.546875 
Q 18.171875 71.875 27.484375 71.875 
Q 36.859375 71.875 42.578125 66.421875 
Q 48.296875 60.984375 48.296875 53.171875 
Q 48.296875 48.1875 45.671875 44.5 
Q 43.0625 40.828125 37.75 38.8125 
Q 44.34375 36.671875 47.78125 31.875 
Q 51.21875 27.09375 51.21875 20.453125 
Q 51.21875 11.28125 44.71875 5.03125 
Q 38.234375 -1.21875 27.640625 -1.21875 
Q 17.046875 -1.21875 10.546875 5.046875 
Q 4.046875 11.328125 4.046875 20.703125 
Q 4.046875 27.6875 7.59375 32.390625 
Q 11.140625 37.109375 17.671875 38.8125 
z
M 15.921875 53.71875 
Q 15.921875 48.640625 19.1875 45.40625 
Q 22.46875 42.1875 27.6875 42.1875 
Q 32.765625 42.1875 36.015625 45.375 
Q 39.265625 48.578125 39.265625 53.21875 
Q 39.265625 58.0625 35.90625 61.359375 
Q 32.5625 64.65625 27.59375 64.65625 
Q 22.5625 64.65625 19.234375 61.421875 
Q 15.921875 58.203125 15.921875 53.71875 
z
M 13.09375 20.65625 
Q 13.09375 16.890625 14.875 13.375 
Q 16.65625 9.859375 20.171875 7.921875 
Q 23.6875 6 27.734375 6 
Q 34.03125 6 38.125 10.046875 
Q 42.234375 14.109375 42.234375 20.359375 
Q 42.234375 26.703125 38.015625 30.859375 
Q 33.796875 35.015625 27.4375 35.015625 
Q 21.234375 35.015625 17.15625 30.90625 
Q 13.09375 26.8125 13.09375 20.65625 
z
" id="ArialMT-56"/>
      </defs>
      <g style="fill:#262626;" transform="translate(1039.305121 332.373594)scale(0.11 -0.11)">
       <use xlink:href="#ArialMT-56"/>
      </g>
     </g>
    </g>
    <g id="xtick_10">
     <g id="text_10">
      <!-- 9 -->
      <defs>
       <path d="M 5.46875 16.546875 
L 13.921875 17.328125 
Q 14.984375 11.375 18.015625 8.6875 
Q 21.046875 6 25.78125 6 
Q 29.828125 6 32.875 7.859375 
Q 35.9375 9.71875 37.890625 12.8125 
Q 39.84375 15.921875 41.15625 21.1875 
Q 42.484375 26.46875 42.484375 31.9375 
Q 42.484375 32.515625 42.4375 33.6875 
Q 39.796875 29.5 35.234375 26.875 
Q 30.671875 24.265625 25.34375 24.265625 
Q 16.453125 24.265625 10.296875 30.703125 
Q 4.15625 37.15625 4.15625 47.703125 
Q 4.15625 58.59375 10.578125 65.234375 
Q 17 71.875 26.65625 71.875 
Q 33.640625 71.875 39.421875 68.109375 
Q 45.21875 64.359375 48.21875 57.390625 
Q 51.21875 50.4375 51.21875 37.25 
Q 51.21875 23.53125 48.234375 15.40625 
Q 45.265625 7.28125 39.375 3.03125 
Q 33.5 -1.21875 25.59375 -1.21875 
Q 17.1875 -1.21875 11.859375 3.4375 
Q 6.546875 8.109375 5.46875 16.546875 
z
M 41.453125 48.140625 
Q 41.453125 55.71875 37.421875 60.15625 
Q 33.40625 64.59375 27.734375 64.59375 
Q 21.875 64.59375 17.53125 59.8125 
Q 13.1875 55.03125 13.1875 47.40625 
Q 13.1875 40.578125 17.3125 36.296875 
Q 21.4375 32.03125 27.484375 32.03125 
Q 33.59375 32.03125 37.515625 36.296875 
Q 41.453125 40.578125 41.453125 48.140625 
z
" id="ArialMT-57"/>
      </defs>
      <g style="fill:#262626;" transform="translate(1140.759666 332.373594)scale(0.11 -0.11)">
       <use xlink:href="#ArialMT-57"/>
      </g>
     </g>
    </g>
    <g id="xtick_11">
     <g id="text_11">
      <!-- 10 -->
      <g style="fill:#262626;" transform="translate(1239.155696 332.373594)scale(0.11 -0.11)">
       <use xlink:href="#ArialMT-49"/>
       <use x="55.615234" xlink:href="#ArialMT-48"/>
      </g>
     </g>
    </g>
    <g id="text_12">
     <!-- gen -->
     <defs>
      <path d="M 4.984375 -4.296875 
L 13.53125 -5.5625 
Q 14.0625 -9.515625 16.5 -11.328125 
Q 19.78125 -13.765625 25.4375 -13.765625 
Q 31.546875 -13.765625 34.859375 -11.328125 
Q 38.1875 -8.890625 39.359375 -4.5 
Q 40.046875 -1.8125 39.984375 6.78125 
Q 34.234375 0 25.640625 0 
Q 14.9375 0 9.078125 7.71875 
Q 3.21875 15.4375 3.21875 26.21875 
Q 3.21875 33.640625 5.90625 39.90625 
Q 8.59375 46.1875 13.6875 49.609375 
Q 18.796875 53.03125 25.6875 53.03125 
Q 34.859375 53.03125 40.828125 45.609375 
L 40.828125 51.859375 
L 48.921875 51.859375 
L 48.921875 7.03125 
Q 48.921875 -5.078125 46.453125 -10.125 
Q 44 -15.1875 38.640625 -18.109375 
Q 33.296875 -21.046875 25.484375 -21.046875 
Q 16.21875 -21.046875 10.5 -16.875 
Q 4.78125 -12.703125 4.984375 -4.296875 
z
M 12.25 26.859375 
Q 12.25 16.65625 16.296875 11.96875 
Q 20.359375 7.28125 26.46875 7.28125 
Q 32.515625 7.28125 36.609375 11.9375 
Q 40.71875 16.609375 40.71875 26.5625 
Q 40.71875 36.078125 36.5 40.90625 
Q 32.28125 45.75 26.3125 45.75 
Q 20.453125 45.75 16.34375 40.984375 
Q 12.25 36.234375 12.25 26.859375 
z
" id="ArialMT-103"/>
      <path d="M 42.09375 16.703125 
L 51.171875 15.578125 
Q 49.03125 7.625 43.21875 3.21875 
Q 37.40625 -1.171875 28.375 -1.171875 
Q 17 -1.171875 10.328125 5.828125 
Q 3.65625 12.84375 3.65625 25.484375 
Q 3.65625 38.578125 10.390625 45.796875 
Q 17.140625 53.03125 27.875 53.03125 
Q 38.28125 53.03125 44.875 45.953125 
Q 51.46875 38.875 51.46875 26.03125 
Q 51.46875 25.25 51.421875 23.6875 
L 12.75 23.6875 
Q 13.234375 15.140625 17.578125 10.59375 
Q 21.921875 6.0625 28.421875 6.0625 
Q 33.25 6.0625 36.671875 8.59375 
Q 40.09375 11.140625 42.09375 16.703125 
z
M 13.234375 30.90625 
L 42.1875 30.90625 
Q 41.609375 37.453125 38.875 40.71875 
Q 34.671875 45.796875 27.984375 45.796875 
Q 21.921875 45.796875 17.796875 41.75 
Q 13.671875 37.703125 13.234375 30.90625 
z
" id="ArialMT-101"/>
      <path d="M 6.59375 0 
L 6.59375 51.859375 
L 14.5 51.859375 
L 14.5 44.484375 
Q 20.21875 53.03125 31 53.03125 
Q 35.6875 53.03125 39.625 51.34375 
Q 43.5625 49.65625 45.515625 46.921875 
Q 47.46875 44.1875 48.25 40.4375 
Q 48.734375 37.984375 48.734375 31.890625 
L 48.734375 0 
L 39.9375 0 
L 39.9375 31.546875 
Q 39.9375 36.921875 38.90625 39.578125 
Q 37.890625 42.234375 35.28125 43.8125 
Q 32.671875 45.40625 29.15625 45.40625 
Q 23.53125 45.40625 19.453125 41.84375 
Q 15.375 38.28125 15.375 28.328125 
L 15.375 0 
z
" id="ArialMT-110"/>
     </defs>
     <g style="fill:#262626;" transform="translate(727.990312 347.008594)scale(0.12 -0.12)">
      <use xlink:href="#ArialMT-103"/>
      <use x="55.615234" xlink:href="#ArialMT-101"/>
      <use x="111.230469" xlink:href="#ArialMT-110"/>
     </g>
    </g>
   </g>
   <g id="matplotlib.axis_2">
    <g id="ytick_1">
     <g id="line2d_1">
      <path clip-path="url(#pec44fc406b)" d="M 180 295.652922 
L 1296 295.652922 
" style="fill:none;stroke:#ffffff;stroke-linecap:round;"/>
     </g>
     <g id="text_13">
      <!-- −14 -->
      <defs>
       <path d="M 52.828125 31.203125 
L 5.5625 31.203125 
L 5.5625 39.40625 
L 52.828125 39.40625 
z
" id="ArialMT-8722"/>
      </defs>
      <g style="fill:#262626;" transform="translate(151.84125 299.589719)scale(0.11 -0.11)">
       <use xlink:href="#ArialMT-8722"/>
       <use x="58.398438" xlink:href="#ArialMT-49"/>
       <use x="114.013672" xlink:href="#ArialMT-52"/>
      </g>
     </g>
    </g>
    <g id="ytick_2">
     <g id="line2d_2">
      <path clip-path="url(#pec44fc406b)" d="M 180 260.423482 
L 1296 260.423482 
" style="fill:none;stroke:#ffffff;stroke-linecap:round;"/>
     </g>
     <g id="text_14">
      <!-- −13 -->
      <g style="fill:#262626;" transform="translate(151.84125 264.360279)scale(0.11 -0.11)">
       <use xlink:href="#ArialMT-8722"/>
       <use x="58.398438" xlink:href="#ArialMT-49"/>
       <use x="114.013672" xlink:href="#ArialMT-51"/>
      </g>
     </g>
    </g>
    <g id="ytick_3">
     <g id="line2d_3">
      <path clip-path="url(#pec44fc406b)" d="M 180 225.194042 
L 1296 225.194042 
" style="fill:none;stroke:#ffffff;stroke-linecap:round;"/>
     </g>
     <g id="text_15">
      <!-- −12 -->
      <g style="fill:#262626;" transform="translate(151.84125 229.130839)scale(0.11 -0.11)">
       <use xlink:href="#ArialMT-8722"/>
       <use x="58.398438" xlink:href="#ArialMT-49"/>
       <use x="114.013672" xlink:href="#ArialMT-50"/>
      </g>
     </g>
    </g>
    <g id="ytick_4">
     <g id="line2d_4">
      <path clip-path="url(#pec44fc406b)" d="M 180 189.964602 
L 1296 189.964602 
" style="fill:none;stroke:#ffffff;stroke-linecap:round;"/>
     </g>
     <g id="text_16">
      <!-- −11 -->
      <g style="fill:#262626;" transform="translate(151.853281 193.901399)scale(0.11 -0.11)">
       <use xlink:href="#ArialMT-8722"/>
       <use x="58.398438" xlink:href="#ArialMT-49"/>
       <use x="113.904297" xlink:href="#ArialMT-49"/>
      </g>
     </g>
    </g>
    <g id="ytick_5">
     <g id="line2d_5">
      <path clip-path="url(#pec44fc406b)" d="M 180 154.735163 
L 1296 154.735163 
" style="fill:none;stroke:#ffffff;stroke-linecap:round;"/>
     </g>
     <g id="text_17">
      <!-- −10 -->
      <g style="fill:#262626;" transform="translate(151.84125 158.671959)scale(0.11 -0.11)">
       <use xlink:href="#ArialMT-8722"/>
       <use x="58.398438" xlink:href="#ArialMT-49"/>
       <use x="114.013672" xlink:href="#ArialMT-48"/>
      </g>
     </g>
    </g>
    <g id="ytick_6">
     <g id="line2d_6">
      <path clip-path="url(#pec44fc406b)" d="M 180 119.505723 
L 1296 119.505723 
" style="fill:none;stroke:#ffffff;stroke-linecap:round;"/>
     </g>
     <g id="text_18">
      <!-- −9 -->
      <g style="fill:#262626;" transform="translate(157.958281 123.44252)scale(0.11 -0.11)">
       <use xlink:href="#ArialMT-8722"/>
       <use x="58.398438" xlink:href="#ArialMT-57"/>
      </g>
     </g>
    </g>
    <g id="ytick_7">
     <g id="line2d_7">
      <path clip-path="url(#pec44fc406b)" d="M 180 84.276283 
L 1296 84.276283 
" style="fill:none;stroke:#ffffff;stroke-linecap:round;"/>
     </g>
     <g id="text_19">
      <!-- −8 -->
      <g style="fill:#262626;" transform="translate(157.958281 88.21308)scale(0.11 -0.11)">
       <use xlink:href="#ArialMT-8722"/>
       <use x="58.398438" xlink:href="#ArialMT-56"/>
      </g>
     </g>
    </g>
    <g id="ytick_8">
     <g id="line2d_8">
      <path clip-path="url(#pec44fc406b)" d="M 180 49.046843 
L 1296 49.046843 
" style="fill:none;stroke:#ffffff;stroke-linecap:round;"/>
     </g>
     <g id="text_20">
      <!-- −7 -->
      <g style="fill:#262626;" transform="translate(157.958281 52.98364)scale(0.11 -0.11)">
       <use xlink:href="#ArialMT-8722"/>
       <use x="58.398438" xlink:href="#ArialMT-55"/>
      </g>
     </g>
    </g>
    <g id="text_21">
     <!-- score -->
     <defs>
      <path d="M 3.078125 15.484375 
L 11.765625 16.84375 
Q 12.5 11.625 15.84375 8.84375 
Q 19.1875 6.0625 25.203125 6.0625 
Q 31.25 6.0625 34.171875 8.515625 
Q 37.109375 10.984375 37.109375 14.3125 
Q 37.109375 17.28125 34.515625 19 
Q 32.71875 20.171875 25.53125 21.96875 
Q 15.875 24.421875 12.140625 26.203125 
Q 8.40625 27.984375 6.46875 31.125 
Q 4.546875 34.28125 4.546875 38.09375 
Q 4.546875 41.546875 6.125 44.5 
Q 7.71875 47.46875 10.453125 49.421875 
Q 12.5 50.921875 16.03125 51.96875 
Q 19.578125 53.03125 23.640625 53.03125 
Q 29.734375 53.03125 34.34375 51.265625 
Q 38.96875 49.515625 41.15625 46.5 
Q 43.359375 43.5 44.1875 38.484375 
L 35.59375 37.3125 
Q 35.015625 41.3125 32.203125 43.546875 
Q 29.390625 45.796875 24.265625 45.796875 
Q 18.21875 45.796875 15.625 43.796875 
Q 13.03125 41.796875 13.03125 39.109375 
Q 13.03125 37.40625 14.109375 36.03125 
Q 15.1875 34.625 17.484375 33.6875 
Q 18.796875 33.203125 25.25 31.453125 
Q 34.578125 28.953125 38.25 27.359375 
Q 41.9375 25.78125 44.03125 22.75 
Q 46.140625 19.734375 46.140625 15.234375 
Q 46.140625 10.84375 43.578125 6.953125 
Q 41.015625 3.078125 36.171875 0.953125 
Q 31.34375 -1.171875 25.25 -1.171875 
Q 15.140625 -1.171875 9.84375 3.03125 
Q 4.546875 7.234375 3.078125 15.484375 
z
" id="ArialMT-115"/>
      <path d="M 40.4375 19 
L 49.078125 17.875 
Q 47.65625 8.9375 41.8125 3.875 
Q 35.984375 -1.171875 27.484375 -1.171875 
Q 16.84375 -1.171875 10.375 5.78125 
Q 3.90625 12.75 3.90625 25.734375 
Q 3.90625 34.125 6.6875 40.421875 
Q 9.46875 46.734375 15.15625 49.875 
Q 20.84375 53.03125 27.546875 53.03125 
Q 35.984375 53.03125 41.359375 48.75 
Q 46.734375 44.484375 48.25 36.625 
L 39.703125 35.296875 
Q 38.484375 40.53125 35.375 43.15625 
Q 32.28125 45.796875 27.875 45.796875 
Q 21.234375 45.796875 17.078125 41.03125 
Q 12.9375 36.28125 12.9375 25.984375 
Q 12.9375 15.53125 16.9375 10.796875 
Q 20.953125 6.0625 27.390625 6.0625 
Q 32.5625 6.0625 36.03125 9.234375 
Q 39.5 12.40625 40.4375 19 
z
" id="ArialMT-99"/>
      <path d="M 3.328125 25.921875 
Q 3.328125 40.328125 11.328125 47.265625 
Q 18.015625 53.03125 27.640625 53.03125 
Q 38.328125 53.03125 45.109375 46.015625 
Q 51.90625 39.015625 51.90625 26.65625 
Q 51.90625 16.65625 48.90625 10.90625 
Q 45.90625 5.171875 40.15625 2 
Q 34.421875 -1.171875 27.640625 -1.171875 
Q 16.75 -1.171875 10.03125 5.8125 
Q 3.328125 12.796875 3.328125 25.921875 
z
M 12.359375 25.921875 
Q 12.359375 15.96875 16.703125 11.015625 
Q 21.046875 6.0625 27.640625 6.0625 
Q 34.1875 6.0625 38.53125 11.03125 
Q 42.875 16.015625 42.875 26.21875 
Q 42.875 35.84375 38.5 40.796875 
Q 34.125 45.75 27.640625 45.75 
Q 21.046875 45.75 16.703125 40.8125 
Q 12.359375 35.890625 12.359375 25.921875 
z
" id="ArialMT-111"/>
      <path d="M 6.5 0 
L 6.5 51.859375 
L 14.40625 51.859375 
L 14.40625 44 
Q 17.4375 49.515625 20 51.265625 
Q 22.5625 53.03125 25.640625 53.03125 
Q 30.078125 53.03125 34.671875 50.203125 
L 31.640625 42.046875 
Q 28.421875 43.953125 25.203125 43.953125 
Q 22.3125 43.953125 20.015625 42.21875 
Q 17.71875 40.484375 16.75 37.40625 
Q 15.28125 32.71875 15.28125 27.15625 
L 15.28125 0 
z
" id="ArialMT-114"/>
     </defs>
     <g style="fill:#262626;" transform="translate(145.45625 193.770938)rotate(-90)scale(0.12 -0.12)">
      <use xlink:href="#ArialMT-115"/>
      <use x="50" xlink:href="#ArialMT-99"/>
      <use x="100" xlink:href="#ArialMT-111"/>
      <use x="155.615234" xlink:href="#ArialMT-114"/>
      <use x="188.916016" xlink:href="#ArialMT-101"/>
     </g>
    </g>
   </g>
   <g id="PolyCollection_1">
    <defs>
     <path d="M 231.026831 -180.066044 
L 230.427714 -180.066044 
L 230.346704 -181.322401 
L 230.249795 -182.578759 
L 230.13562 -183.835117 
L 230.003171 -185.091475 
L 229.85193 -186.347832 
L 229.681991 -187.60419 
L 229.494174 -188.860548 
L 229.290102 -190.116905 
L 229.072244 -191.373263 
L 228.843898 -192.629621 
L 228.609132 -193.885978 
L 228.372645 -195.142336 
L 228.139583 -196.398694 
L 227.915303 -197.655051 
L 227.705089 -198.911409 
L 227.513865 -200.167767 
L 227.345893 -201.424124 
L 227.204509 -202.680482 
L 227.091898 -203.93684 
L 227.008932 -205.193197 
L 226.955099 -206.449555 
L 226.928502 -207.705913 
L 226.925948 -208.962271 
L 226.943117 -210.218628 
L 226.974779 -211.474986 
L 227.015049 -212.731344 
L 227.057655 -213.987701 
L 227.096189 -215.244059 
L 227.124318 -216.500417 
L 227.135946 -217.756774 
L 227.12531 -219.013132 
L 227.087012 -220.26949 
L 227.015995 -221.525847 
L 226.907482 -222.782205 
L 226.756891 -224.038563 
L 226.559755 -225.29492 
L 226.311669 -226.551278 
L 226.008276 -227.807636 
L 225.645317 -229.063993 
L 225.218741 -230.320351 
L 224.72488 -231.576709 
L 224.16067 -232.833067 
L 223.523922 -234.089424 
L 222.8136 -235.345782 
L 222.030094 -236.60214 
L 221.175477 -237.858497 
L 220.25369 -239.114855 
L 219.270677 -240.371213 
L 218.234412 -241.62757 
L 217.154837 -242.883928 
L 216.043689 -244.140286 
L 214.914216 -245.396643 
L 213.780794 -246.653001 
L 212.658457 -247.909359 
L 211.562362 -249.165716 
L 210.507221 -250.422074 
L 209.506736 -251.678432 
L 208.573073 -252.934789 
L 207.71642 -254.191147 
L 206.944667 -255.447505 
L 206.263236 -256.703863 
L 205.675075 -257.96022 
L 205.180838 -259.216578 
L 204.779222 -260.472936 
L 204.467446 -261.729293 
L 204.241829 -262.985651 
L 204.098417 -264.242009 
L 204.033603 -265.498366 
L 204.044678 -266.754724 
L 204.130253 -268.011082 
L 204.290528 -269.267439 
L 204.527345 -270.523797 
L 204.844046 -271.780155 
L 205.245112 -273.036512 
L 205.735625 -274.29287 
L 206.320601 -275.549228 
L 207.004226 -276.805585 
L 207.789099 -278.061943 
L 208.675523 -279.318301 
L 209.660925 -280.574659 
L 210.739468 -281.831016 
L 211.90189 -283.087374 
L 213.135593 -284.343732 
L 214.424993 -285.600089 
L 215.752091 -286.856447 
L 217.097239 -288.112805 
L 218.440019 -289.369162 
L 219.760191 -290.62552 
L 221.038602 -291.881878 
L 222.258021 -293.138235 
L 223.403812 -294.394593 
L 224.464427 -295.650951 
L 225.431675 -296.907308 
L 226.300786 -298.163666 
L 227.070266 -299.420024 
L 227.741586 -300.676381 
L 228.31875 -301.932739 
L 228.807774 -303.189097 
L 229.216135 -304.445455 
L 232.23841 -304.445455 
L 232.23841 -304.445455 
L 232.646772 -303.189097 
L 233.135795 -301.932739 
L 233.71296 -300.676381 
L 234.38428 -299.420024 
L 235.153759 -298.163666 
L 236.02287 -296.907308 
L 236.990119 -295.650951 
L 238.050733 -294.394593 
L 239.196525 -293.138235 
L 240.415943 -291.881878 
L 241.694355 -290.62552 
L 243.014526 -289.369162 
L 244.357307 -288.112805 
L 245.702454 -286.856447 
L 247.029552 -285.600089 
L 248.318952 -284.343732 
L 249.552655 -283.087374 
L 250.715077 -281.831016 
L 251.793621 -280.574659 
L 252.779023 -279.318301 
L 253.665446 -278.061943 
L 254.45032 -276.805585 
L 255.133945 -275.549228 
L 255.71892 -274.29287 
L 256.209434 -273.036512 
L 256.610499 -271.780155 
L 256.927201 -270.523797 
L 257.164018 -269.267439 
L 257.324292 -268.011082 
L 257.409868 -266.754724 
L 257.420942 -265.498366 
L 257.356129 -264.242009 
L 257.212717 -262.985651 
L 256.987099 -261.729293 
L 256.675323 -260.472936 
L 256.273707 -259.216578 
L 255.779471 -257.96022 
L 255.19131 -256.703863 
L 254.509878 -255.447505 
L 253.738125 -254.191147 
L 252.881472 -252.934789 
L 251.947809 -251.678432 
L 250.947324 -250.422074 
L 249.892184 -249.165716 
L 248.796088 -247.909359 
L 247.673751 -246.653001 
L 246.540329 -245.396643 
L 245.410856 -244.140286 
L 244.299708 -242.883928 
L 243.220134 -241.62757 
L 242.183869 -240.371213 
L 241.200855 -239.114855 
L 240.279069 -237.858497 
L 239.424451 -236.60214 
L 238.640946 -235.345782 
L 237.930623 -234.089424 
L 237.293875 -232.833067 
L 236.729666 -231.576709 
L 236.235804 -230.320351 
L 235.809228 -229.063993 
L 235.446269 -227.807636 
L 235.142876 -226.551278 
L 234.89479 -225.29492 
L 234.697654 -224.038563 
L 234.547063 -222.782205 
L 234.43855 -221.525847 
L 234.367533 -220.26949 
L 234.329235 -219.013132 
L 234.3186 -217.756774 
L 234.330228 -216.500417 
L 234.358357 -215.244059 
L 234.39689 -213.987701 
L 234.439497 -212.731344 
L 234.479766 -211.474986 
L 234.511428 -210.218628 
L 234.528598 -208.962271 
L 234.526044 -207.705913 
L 234.499446 -206.449555 
L 234.445613 -205.193197 
L 234.362648 -203.93684 
L 234.250036 -202.680482 
L 234.108652 -201.424124 
L 233.940681 -200.167767 
L 233.749456 -198.911409 
L 233.539243 -197.655051 
L 233.314962 -196.398694 
L 233.081901 -195.142336 
L 232.845413 -193.885978 
L 232.610647 -192.629621 
L 232.382302 -191.373263 
L 232.164443 -190.116905 
L 231.960371 -188.860548 
L 231.772554 -187.60419 
L 231.602615 -186.347832 
L 231.451374 -185.091475 
L 231.318926 -183.835117 
L 231.204751 -182.578759 
L 231.107841 -181.322401 
L 231.026831 -180.066044 
z
" id="m1f87fc4224" style="stroke:#474747;stroke-width:1.5;"/>
    </defs>
    <g clip-path="url(#pec44fc406b)">
     <use style="fill:#ea96a3;stroke:#474747;stroke-width:1.5;" x="0" xlink:href="#m1f87fc4224" y="360"/>
    </g>
   </g>
   <g id="PolyCollection_2">
    <defs>
     <path d="M 332.347138 -185.657293 
L 332.016498 -185.657293 
L 331.9643 -186.800696 
L 331.901327 -187.944099 
L 331.827322 -189.087502 
L 331.742688 -190.230905 
L 331.648611 -191.374308 
L 331.547123 -192.517712 
L 331.441076 -193.661115 
L 331.334007 -194.804518 
L 331.229893 -195.947921 
L 331.132802 -197.091324 
L 331.04646 -198.234727 
L 330.973789 -199.378131 
L 330.916454 -200.521534 
L 330.874491 -201.664937 
L 330.846064 -202.80834 
L 330.827401 -203.951743 
L 330.81293 -205.095146 
L 330.795639 -206.23855 
L 330.767608 -207.381953 
L 330.720706 -208.525356 
L 330.647357 -209.668759 
L 330.541311 -210.812162 
L 330.398334 -211.955565 
L 330.216715 -213.098969 
L 329.99754 -214.242372 
L 329.744652 -215.385775 
L 329.464306 -216.529178 
L 329.164503 -217.672581 
L 328.85409 -218.815984 
L 328.541693 -219.959387 
L 328.234629 -221.102791 
L 327.93791 -222.246194 
L 327.653494 -223.389597 
L 327.379861 -224.533 
L 327.11201 -225.676403 
L 326.841844 -226.819806 
L 326.558934 -227.96321 
L 326.25153 -229.106613 
L 325.907718 -230.250016 
L 325.516559 -231.393419 
L 325.069106 -232.536822 
L 324.55919 -233.680225 
L 323.98393 -234.823629 
L 323.343961 -235.967032 
L 322.643383 -237.110435 
L 321.889499 -238.253838 
L 321.092366 -239.397241 
L 320.2642 -240.540644 
L 319.418663 -241.684048 
L 318.570043 -242.827451 
L 317.732346 -243.970854 
L 316.918327 -245.114257 
L 316.138515 -246.25766 
L 315.400305 -247.401063 
L 314.707209 -248.544467 
L 314.05836 -249.68787 
L 313.44836 -250.831273 
L 312.867507 -251.974676 
L 312.302426 -253.118079 
L 311.737058 -254.261482 
L 311.153932 -255.404886 
L 310.53562 -256.548289 
L 309.866266 -257.691692 
L 309.133079 -258.835095 
L 308.32772 -259.978498 
L 307.44749 -261.121901 
L 306.496285 -262.265304 
L 305.485265 -263.408708 
L 304.433177 -264.552111 
L 303.366289 -265.695514 
L 302.317864 -266.838917 
L 301.327128 -267.98232 
L 300.437712 -269.125723 
L 299.695569 -270.269127 
L 299.146469 -271.41253 
L 298.833191 -272.555933 
L 298.792624 -273.699336 
L 299.053027 -274.842739 
L 299.631682 -275.986142 
L 300.5332 -277.129546 
L 301.748656 -278.272949 
L 303.255661 -279.416352 
L 305.019395 -280.559755 
L 306.994528 -281.703158 
L 309.127844 -282.846561 
L 311.361373 -283.989965 
L 313.635735 -285.133368 
L 315.893424 -286.276771 
L 318.081784 -287.420174 
L 320.155439 -288.563577 
L 322.078042 -289.70698 
L 323.823251 -290.850384 
L 325.374935 -291.993787 
L 326.726679 -293.13719 
L 327.8807 -294.280593 
L 328.846353 -295.423996 
L 329.638405 -296.567399 
L 330.275243 -297.710803 
L 330.777182 -298.854206 
L 333.586454 -298.854206 
L 333.586454 -298.854206 
L 334.088393 -297.710803 
L 334.725231 -296.567399 
L 335.517283 -295.423996 
L 336.482937 -294.280593 
L 337.636957 -293.13719 
L 338.988701 -291.993787 
L 340.540386 -290.850384 
L 342.285594 -289.70698 
L 344.208197 -288.563577 
L 346.281852 -287.420174 
L 348.470212 -286.276771 
L 350.727902 -285.133368 
L 353.002263 -283.989965 
L 355.235793 -282.846561 
L 357.369109 -281.703158 
L 359.344241 -280.559755 
L 361.107976 -279.416352 
L 362.61498 -278.272949 
L 363.830436 -277.129546 
L 364.731954 -275.986142 
L 365.310609 -274.842739 
L 365.571012 -273.699336 
L 365.530446 -272.555933 
L 365.217167 -271.41253 
L 364.668067 -270.269127 
L 363.925924 -269.125723 
L 363.036508 -267.98232 
L 362.045773 -266.838917 
L 360.997347 -265.695514 
L 359.930459 -264.552111 
L 358.878371 -263.408708 
L 357.867351 -262.265304 
L 356.916146 -261.121901 
L 356.035916 -259.978498 
L 355.230557 -258.835095 
L 354.497371 -257.691692 
L 353.828016 -256.548289 
L 353.209704 -255.404886 
L 352.626579 -254.261482 
L 352.061211 -253.118079 
L 351.496129 -251.974676 
L 350.915276 -250.831273 
L 350.305276 -249.68787 
L 349.656428 -248.544467 
L 348.963331 -247.401063 
L 348.225122 -246.25766 
L 347.445309 -245.114257 
L 346.63129 -243.970854 
L 345.793593 -242.827451 
L 344.944974 -241.684048 
L 344.099437 -240.540644 
L 343.271271 -239.397241 
L 342.474138 -238.253838 
L 341.720254 -237.110435 
L 341.019675 -235.967032 
L 340.379706 -234.823629 
L 339.804447 -233.680225 
L 339.29453 -232.536822 
L 338.847077 -231.393419 
L 338.455918 -230.250016 
L 338.112106 -229.106613 
L 337.804703 -227.96321 
L 337.521792 -226.819806 
L 337.251627 -225.676403 
L 336.983775 -224.533 
L 336.710143 -223.389597 
L 336.425726 -222.246194 
L 336.129007 -221.102791 
L 335.821943 -219.959387 
L 335.509547 -218.815984 
L 335.199133 -217.672581 
L 334.89933 -216.529178 
L 334.618984 -215.385775 
L 334.366097 -214.242372 
L 334.146921 -213.098969 
L 333.965303 -211.955565 
L 333.822325 -210.812162 
L 333.716279 -209.668759 
L 333.64293 -208.525356 
L 333.596028 -207.381953 
L 333.567998 -206.23855 
L 333.550706 -205.095146 
L 333.536236 -203.951743 
L 333.517572 -202.80834 
L 333.489145 -201.664937 
L 333.447182 -200.521534 
L 333.389847 -199.378131 
L 333.317176 -198.234727 
L 333.230835 -197.091324 
L 333.133743 -195.947921 
L 333.029629 -194.804518 
L 332.92256 -193.661115 
L 332.816513 -192.517712 
L 332.715025 -191.374308 
L 332.620949 -190.230905 
L 332.536315 -189.087502 
L 332.46231 -187.944099 
L 332.399336 -186.800696 
L 332.347138 -185.657293 
z
" id="mf074d6be88" style="stroke:#474747;stroke-width:1.5;"/>
    </defs>
    <g clip-path="url(#pec44fc406b)">
     <use style="fill:#dc924e;stroke:#474747;stroke-width:1.5;" x="0" xlink:href="#mf074d6be88" y="360"/>
    </g>
   </g>
   <g id="PolyCollection_3">
    <defs>
     <path d="M 433.867744 -187.341435 
L 433.404983 -187.341435 
L 433.339794 -188.4864 
L 433.2623 -189.631366 
L 433.172047 -190.776331 
L 433.069111 -191.921296 
L 432.954207 -193.066262 
L 432.828743 -194.211227 
L 432.694831 -195.356193 
L 432.555218 -196.501158 
L 432.413148 -197.646123 
L 432.272143 -198.791089 
L 432.135731 -199.936054 
L 432.007123 -201.081019 
L 431.888891 -202.225985 
L 431.782659 -203.37095 
L 431.688873 -204.515916 
L 431.606654 -205.660881 
L 431.533783 -206.805846 
L 431.466812 -207.950812 
L 431.40132 -209.095777 
L 431.332272 -210.240743 
L 431.254473 -211.385708 
L 431.163066 -212.530673 
L 431.054016 -213.675639 
L 430.924564 -214.820604 
L 430.773572 -215.965569 
L 430.601756 -217.110535 
L 430.411768 -218.2555 
L 430.208125 -219.400466 
L 429.996995 -220.545431 
L 429.785834 -221.690396 
L 429.582933 -222.835362 
L 429.396866 -223.980327 
L 429.235899 -225.125292 
L 429.107394 -226.270258 
L 429.017227 -227.415223 
L 428.969276 -228.560189 
L 428.964998 -229.705154 
L 429.003135 -230.850119 
L 429.079559 -231.995085 
L 429.187289 -233.14005 
L 429.316667 -234.285015 
L 429.455707 -235.429981 
L 429.59058 -236.574946 
L 429.706217 -237.719912 
L 429.786986 -238.864877 
L 429.81739 -240.009842 
L 429.782731 -241.154808 
L 429.669696 -242.299773 
L 429.466807 -243.444738 
L 429.164709 -244.589704 
L 428.756273 -245.734669 
L 428.236512 -246.879635 
L 427.602348 -248.0246 
L 426.85225 -249.169565 
L 425.98582 -250.314531 
L 425.003389 -251.459496 
L 423.90569 -252.604461 
L 422.693673 -253.749427 
L 421.368514 -254.894392 
L 419.931834 -256.039358 
L 418.386126 -257.184323 
L 416.735363 -258.329288 
L 414.985733 -259.474254 
L 413.146427 -260.619219 
L 411.230404 -261.764185 
L 409.255047 -262.90915 
L 407.242649 -264.054115 
L 405.220653 -265.199081 
L 403.221616 -266.344046 
L 401.282846 -267.489011 
L 399.445709 -268.633977 
L 397.754585 -269.778942 
L 396.255482 -270.923908 
L 394.994345 -272.068873 
L 394.015078 -273.213838 
L 393.35739 -274.358804 
L 393.054545 -275.503769 
L 393.131188 -276.648734 
L 393.601386 -277.7937 
L 394.467096 -278.938665 
L 395.717216 -280.083631 
L 397.327365 -281.228596 
L 399.260487 -282.373561 
L 401.468286 -283.518527 
L 403.893435 -284.663492 
L 406.472403 -285.808457 
L 409.138682 -286.953423 
L 411.826166 -288.098388 
L 414.472393 -289.243354 
L 417.021398 -290.388319 
L 419.425968 -291.533284 
L 421.64916 -292.67825 
L 423.665015 -293.823215 
L 425.458494 -294.96818 
L 427.024729 -296.113146 
L 428.367734 -297.258111 
L 429.498752 -298.403077 
L 430.434428 -299.548042 
L 431.194967 -300.693007 
L 436.07776 -300.693007 
L 436.07776 -300.693007 
L 436.838299 -299.548042 
L 437.773975 -298.403077 
L 438.904994 -297.258111 
L 440.247998 -296.113146 
L 441.814233 -294.96818 
L 443.607712 -293.823215 
L 445.623567 -292.67825 
L 447.846759 -291.533284 
L 450.251329 -290.388319 
L 452.800334 -289.243354 
L 455.446561 -288.098388 
L 458.134045 -286.953423 
L 460.800324 -285.808457 
L 463.379292 -284.663492 
L 465.804441 -283.518527 
L 468.01224 -282.373561 
L 469.945362 -281.228596 
L 471.555511 -280.083631 
L 472.805631 -278.938665 
L 473.671342 -277.7937 
L 474.141539 -276.648734 
L 474.218182 -275.503769 
L 473.915337 -274.358804 
L 473.257649 -273.213838 
L 472.278382 -272.068873 
L 471.017245 -270.923908 
L 469.518143 -269.778942 
L 467.827018 -268.633977 
L 465.989881 -267.489011 
L 464.051111 -266.344046 
L 462.052074 -265.199081 
L 460.030079 -264.054115 
L 458.01768 -262.90915 
L 456.042324 -261.764185 
L 454.1263 -260.619219 
L 452.286995 -259.474254 
L 450.537364 -258.329288 
L 448.886601 -257.184323 
L 447.340893 -256.039358 
L 445.904213 -254.894392 
L 444.579055 -253.749427 
L 443.367038 -252.604461 
L 442.269338 -251.459496 
L 441.286907 -250.314531 
L 440.420477 -249.169565 
L 439.670379 -248.0246 
L 439.036215 -246.879635 
L 438.516454 -245.734669 
L 438.108018 -244.589704 
L 437.80592 -243.444738 
L 437.603032 -242.299773 
L 437.489997 -241.154808 
L 437.455337 -240.009842 
L 437.485741 -238.864877 
L 437.566511 -237.719912 
L 437.682148 -236.574946 
L 437.81702 -235.429981 
L 437.95606 -234.285015 
L 438.085439 -233.14005 
L 438.193168 -231.995085 
L 438.269592 -230.850119 
L 438.307729 -229.705154 
L 438.303451 -228.560189 
L 438.2555 -227.415223 
L 438.165333 -226.270258 
L 438.036828 -225.125292 
L 437.875862 -223.980327 
L 437.689794 -222.835362 
L 437.486893 -221.690396 
L 437.275733 -220.545431 
L 437.064602 -219.400466 
L 436.86096 -218.2555 
L 436.670972 -217.110535 
L 436.499156 -215.965569 
L 436.348164 -214.820604 
L 436.218711 -213.675639 
L 436.109662 -212.530673 
L 436.018254 -211.385708 
L 435.940456 -210.240743 
L 435.871407 -209.095777 
L 435.805915 -207.950812 
L 435.738944 -206.805846 
L 435.666073 -205.660881 
L 435.583854 -204.515916 
L 435.490068 -203.37095 
L 435.383837 -202.225985 
L 435.265604 -201.081019 
L 435.136996 -199.936054 
L 435.000584 -198.791089 
L 434.85958 -197.646123 
L 434.717509 -196.501158 
L 434.577896 -195.356193 
L 434.443984 -194.211227 
L 434.318521 -193.066262 
L 434.203616 -191.921296 
L 434.100681 -190.776331 
L 434.010427 -189.631366 
L 433.932933 -188.4864 
L 433.867744 -187.341435 
z
" id="mba25e2b9db" style="stroke:#474747;stroke-width:1.5;"/>
    </defs>
    <g clip-path="url(#pec44fc406b)">
     <use style="fill:#b39d48;stroke:#474747;stroke-width:1.5;" x="0" xlink:href="#mba25e2b9db" y="360"/>
    </g>
   </g>
   <g id="PolyCollection_4">
    <defs>
     <path d="M 535.121026 -125.968134 
L 535.060792 -125.968134 
L 535.044738 -127.712429 
L 535.023172 -129.456723 
L 534.995673 -131.201018 
L 534.962356 -132.945313 
L 534.923927 -134.689608 
L 534.881612 -136.433902 
L 534.836958 -138.178197 
L 534.791592 -139.922492 
L 534.747034 -141.666787 
L 534.704663 -143.411082 
L 534.665821 -145.155376 
L 534.631988 -146.899671 
L 534.604841 -148.643966 
L 534.586061 -150.388261 
L 534.576815 -152.132555 
L 534.577041 -153.87685 
L 534.584761 -155.621145 
L 534.595761 -157.36544 
L 534.603875 -159.109735 
L 534.601948 -160.854029 
L 534.583328 -162.598324 
L 534.543534 -164.342619 
L 534.481623 -166.086914 
L 534.400861 -167.831208 
L 534.308414 -169.575503 
L 534.214075 -171.319798 
L 534.128303 -173.064093 
L 534.060053 -174.808388 
L 534.014908 -176.552682 
L 533.993953 -178.296977 
L 533.993577 -180.041272 
L 534.006145 -181.785567 
L 534.021315 -183.529861 
L 534.027682 -185.274156 
L 534.014474 -187.018451 
L 533.973087 -188.762746 
L 533.898271 -190.507041 
L 533.788788 -192.251335 
L 533.647394 -193.99563 
L 533.480049 -195.739925 
L 533.294455 -197.48422 
L 533.098213 -199.228515 
L 532.897047 -200.972809 
L 532.693588 -202.717104 
L 532.487033 -204.461399 
L 532.273744 -206.205694 
L 532.048577 -207.949988 
L 531.806523 -209.694283 
L 531.544173 -211.438578 
L 531.260616 -213.182873 
L 530.957522 -214.927168 
L 530.638391 -216.671462 
L 530.307177 -218.415757 
L 529.966657 -220.160052 
L 529.617012 -221.904347 
L 529.255021 -223.648641 
L 528.874091 -225.392936 
L 528.465062 -227.137231 
L 528.017482 -228.881526 
L 527.521002 -230.625821 
L 526.966589 -232.370115 
L 526.34754 -234.11441 
L 525.660436 -235.858705 
L 524.906162 -237.603 
L 524.090922 -239.347294 
L 523.226787 -241.091589 
L 522.331194 -242.835884 
L 521.424874 -244.580179 
L 520.528207 -246.324474 
L 519.656648 -248.068768 
L 518.816377 -249.813063 
L 518.001496 -251.557358 
L 517.193735 -253.301653 
L 516.365018 -255.045947 
L 515.482449 -256.790242 
L 514.514835 -258.534537 
L 513.439638 -260.278832 
L 512.249468 -262.023127 
L 510.957493 -263.767421 
L 509.601398 -265.511716 
L 508.245505 -267.256011 
L 506.980431 -269.000306 
L 505.919293 -270.7446 
L 505.189433 -272.488895 
L 504.919068 -274.23319 
L 505.219504 -275.977485 
L 506.165262 -277.72178 
L 507.776126 -279.466074 
L 510.005908 -281.210369 
L 512.741984 -282.954664 
L 515.817326 -284.698959 
L 519.033367 -286.443253 
L 522.188877 -288.187548 
L 525.108234 -289.931843 
L 527.662796 -291.676138 
L 529.781309 -293.420433 
L 531.448643 -295.164727 
L 532.695166 -296.909022 
L 533.581007 -298.653317 
L 536.600811 -298.653317 
L 536.600811 -298.653317 
L 537.486652 -296.909022 
L 538.733175 -295.164727 
L 540.400509 -293.420433 
L 542.519022 -291.676138 
L 545.073584 -289.931843 
L 547.992942 -288.187548 
L 551.148451 -286.443253 
L 554.364492 -284.698959 
L 557.439834 -282.954664 
L 560.17591 -281.210369 
L 562.405692 -279.466074 
L 564.016557 -277.72178 
L 564.962315 -275.977485 
L 565.26275 -274.23319 
L 564.992385 -272.488895 
L 564.262525 -270.7446 
L 563.201387 -269.000306 
L 561.936313 -267.256011 
L 560.580421 -265.511716 
L 559.224325 -263.767421 
L 557.93235 -262.023127 
L 556.74218 -260.278832 
L 555.666983 -258.534537 
L 554.699369 -256.790242 
L 553.8168 -255.045947 
L 552.988083 -253.301653 
L 552.180323 -251.557358 
L 551.365441 -249.813063 
L 550.52517 -248.068768 
L 549.653611 -246.324474 
L 548.756944 -244.580179 
L 547.850624 -242.835884 
L 546.955031 -241.091589 
L 546.090896 -239.347294 
L 545.275656 -237.603 
L 544.521382 -235.858705 
L 543.834278 -234.11441 
L 543.215229 -232.370115 
L 542.660816 -230.625821 
L 542.164336 -228.881526 
L 541.716757 -227.137231 
L 541.307727 -225.392936 
L 540.926797 -223.648641 
L 540.564806 -221.904347 
L 540.215161 -220.160052 
L 539.874642 -218.415757 
L 539.543427 -216.671462 
L 539.224296 -214.927168 
L 538.921202 -213.182873 
L 538.637645 -211.438578 
L 538.375295 -209.694283 
L 538.133241 -207.949988 
L 537.908075 -206.205694 
L 537.694786 -204.461399 
L 537.48823 -202.717104 
L 537.284772 -200.972809 
L 537.083605 -199.228515 
L 536.887363 -197.48422 
L 536.70177 -195.739925 
L 536.534425 -193.99563 
L 536.39303 -192.251335 
L 536.283547 -190.507041 
L 536.208731 -188.762746 
L 536.167345 -187.018451 
L 536.154137 -185.274156 
L 536.160503 -183.529861 
L 536.175673 -181.785567 
L 536.188242 -180.041272 
L 536.187865 -178.296977 
L 536.166911 -176.552682 
L 536.121765 -174.808388 
L 536.053515 -173.064093 
L 535.967743 -171.319798 
L 535.873404 -169.575503 
L 535.780957 -167.831208 
L 535.700196 -166.086914 
L 535.638285 -164.342619 
L 535.59849 -162.598324 
L 535.57987 -160.854029 
L 535.577943 -159.109735 
L 535.586057 -157.36544 
L 535.597058 -155.621145 
L 535.604777 -153.87685 
L 535.605003 -152.132555 
L 535.595758 -150.388261 
L 535.576977 -148.643966 
L 535.54983 -146.899671 
L 535.515997 -145.155376 
L 535.477155 -143.411082 
L 535.434784 -141.666787 
L 535.390226 -139.922492 
L 535.34486 -138.178197 
L 535.300206 -136.433902 
L 535.257891 -134.689608 
L 535.219463 -132.945313 
L 535.186145 -131.201018 
L 535.158646 -129.456723 
L 535.13708 -127.712429 
L 535.121026 -125.968134 
z
" id="mcab04fdf7d" style="stroke:#474747;stroke-width:1.5;"/>
    </defs>
    <g clip-path="url(#pec44fc406b)">
     <use style="fill:#8ea546;stroke:#474747;stroke-width:1.5;" x="0" xlink:href="#mcab04fdf7d" y="360"/>
    </g>
   </g>
   <g id="PolyCollection_5">
    <defs>
     <path d="M 636.564484 -140.568256 
L 636.526425 -140.568256 
L 636.514371 -142.124355 
L 636.498064 -143.680453 
L 636.478015 -145.236552 
L 636.455873 -146.792651 
L 636.434377 -148.34875 
L 636.416861 -149.904848 
L 636.406396 -151.460947 
L 636.404822 -153.017046 
L 636.412039 -154.573144 
L 636.425801 -156.129243 
L 636.442084 -157.685342 
L 636.455815 -159.24144 
L 636.461704 -160.797539 
L 636.454969 -162.353638 
L 636.431945 -163.909736 
L 636.390626 -165.465835 
L 636.331192 -167.021934 
L 636.256377 -168.578033 
L 636.171395 -170.134131 
L 636.083202 -171.69023 
L 635.999038 -173.246329 
L 635.924558 -174.802427 
L 635.862066 -176.358526 
L 635.809461 -177.914625 
L 635.760347 -179.470723 
L 635.705454 -181.026822 
L 635.635109 -182.582921 
L 635.542076 -184.139019 
L 635.423859 -185.695118 
L 635.283614 -187.251217 
L 635.129311 -188.807316 
L 634.971451 -190.363414 
L 634.820262 -191.919513 
L 634.683426 -193.475612 
L 634.565044 -195.03171 
L 634.465889 -196.587809 
L 634.384487 -198.143908 
L 634.318331 -199.700006 
L 634.26475 -201.256105 
L 634.221211 -202.812204 
L 634.18505 -204.368302 
L 634.152721 -205.924401 
L 634.118679 -207.4805 
L 634.07421 -209.036599 
L 634.006811 -210.592697 
L 633.900831 -212.148796 
L 633.739929 -213.704895 
L 633.511105 -215.260993 
L 633.209195 -216.817092 
L 632.840081 -218.373191 
L 632.420963 -219.929289 
L 631.976968 -221.485388 
L 631.534686 -223.041487 
L 631.114381 -224.597585 
L 630.723186 -226.153684 
L 630.351381 -227.709783 
L 629.973045 -229.265881 
L 629.551181 -230.82198 
L 629.04624 -232.378079 
L 628.426006 -233.934178 
L 627.674384 -235.490276 
L 626.796798 -237.046375 
L 625.820529 -238.602474 
L 624.789212 -240.158572 
L 623.751895 -241.714671 
L 622.74863 -243.27077 
L 621.796365 -244.826868 
L 620.880188 -246.382967 
L 619.954572 -247.939066 
L 618.956343 -249.495164 
L 617.826299 -251.051263 
L 616.53185 -252.607362 
L 615.081538 -254.163461 
L 613.525288 -255.719559 
L 611.94061 -257.275658 
L 610.411361 -258.831757 
L 609.008466 -260.387855 
L 607.779753 -261.943954 
L 606.750493 -263.500053 
L 605.930986 -265.056151 
L 605.325568 -266.61225 
L 604.939148 -268.168349 
L 604.780795 -269.724447 
L 604.866358 -271.280546 
L 605.221936 -272.836645 
L 605.887606 -274.392744 
L 606.917887 -275.948842 
L 608.37426 -277.504941 
L 610.307166 -279.06104 
L 612.730156 -280.617138 
L 615.59493 -282.173237 
L 618.77911 -283.729336 
L 622.095791 -285.285434 
L 625.32543 -286.841533 
L 628.260496 -288.397632 
L 630.747203 -289.95373 
L 632.710061 -291.509829 
L 634.153015 -293.065928 
L 635.140749 -294.622027 
L 637.95016 -294.622027 
L 637.95016 -294.622027 
L 638.937894 -293.065928 
L 640.380848 -291.509829 
L 642.343706 -289.95373 
L 644.830413 -288.397632 
L 647.765479 -286.841533 
L 650.995118 -285.285434 
L 654.311799 -283.729336 
L 657.495979 -282.173237 
L 660.360753 -280.617138 
L 662.783743 -279.06104 
L 664.716649 -277.504941 
L 666.173022 -275.948842 
L 667.203303 -274.392744 
L 667.868973 -272.836645 
L 668.224552 -271.280546 
L 668.310114 -269.724447 
L 668.151761 -268.168349 
L 667.765341 -266.61225 
L 667.159924 -265.056151 
L 666.340416 -263.500053 
L 665.311156 -261.943954 
L 664.082443 -260.387855 
L 662.679548 -258.831757 
L 661.150299 -257.275658 
L 659.565621 -255.719559 
L 658.009371 -254.163461 
L 656.559059 -252.607362 
L 655.26461 -251.051263 
L 654.134566 -249.495164 
L 653.136337 -247.939066 
L 652.210721 -246.382967 
L 651.294544 -244.826868 
L 650.342279 -243.27077 
L 649.339014 -241.714671 
L 648.301697 -240.158572 
L 647.27038 -238.602474 
L 646.294111 -237.046375 
L 645.416525 -235.490276 
L 644.664903 -233.934178 
L 644.044669 -232.378079 
L 643.539728 -230.82198 
L 643.117864 -229.265881 
L 642.739528 -227.709783 
L 642.367724 -226.153684 
L 641.976528 -224.597585 
L 641.556223 -223.041487 
L 641.113941 -221.485388 
L 640.669946 -219.929289 
L 640.250828 -218.373191 
L 639.881714 -216.817092 
L 639.579804 -215.260993 
L 639.35098 -213.704895 
L 639.190078 -212.148796 
L 639.084099 -210.592697 
L 639.016699 -209.036599 
L 638.972231 -207.4805 
L 638.938188 -205.924401 
L 638.905859 -204.368302 
L 638.869698 -202.812204 
L 638.826159 -201.256105 
L 638.772578 -199.700006 
L 638.706422 -198.143908 
L 638.62502 -196.587809 
L 638.525865 -195.03171 
L 638.407483 -193.475612 
L 638.270647 -191.919513 
L 638.119458 -190.363414 
L 637.961598 -188.807316 
L 637.807295 -187.251217 
L 637.66705 -185.695118 
L 637.548833 -184.139019 
L 637.4558 -182.582921 
L 637.385455 -181.026822 
L 637.330562 -179.470723 
L 637.281448 -177.914625 
L 637.228843 -176.358526 
L 637.166351 -174.802427 
L 637.091871 -173.246329 
L 637.007707 -171.69023 
L 636.919514 -170.134131 
L 636.834532 -168.578033 
L 636.759717 -167.021934 
L 636.700283 -165.465835 
L 636.658964 -163.909736 
L 636.63594 -162.353638 
L 636.629206 -160.797539 
L 636.635094 -159.24144 
L 636.648825 -157.685342 
L 636.665108 -156.129243 
L 636.67887 -154.573144 
L 636.686087 -153.017046 
L 636.684514 -151.460947 
L 636.674048 -149.904848 
L 636.656532 -148.34875 
L 636.635036 -146.792651 
L 636.612894 -145.236552 
L 636.592845 -143.680453 
L 636.576538 -142.124355 
L 636.564484 -140.568256 
z
" id="m9b00c276c8" style="stroke:#474747;stroke-width:1.5;"/>
    </defs>
    <g clip-path="url(#pec44fc406b)">
     <use style="fill:#48b067;stroke:#474747;stroke-width:1.5;" x="0" xlink:href="#m9b00c276c8" y="360"/>
    </g>
   </g>
   <g id="PolyCollection_6">
    <defs>
     <path d="M 738.116008 -138.268517 
L 737.883992 -138.268517 
L 737.840103 -139.942246 
L 737.784902 -141.615975 
L 737.717588 -143.289703 
L 737.638097 -144.963432 
L 737.547339 -146.63716 
L 737.44736 -148.310889 
L 737.341398 -149.984618 
L 737.233787 -151.658346 
L 737.129693 -153.332075 
L 737.034679 -155.005804 
L 736.954152 -156.679532 
L 736.892729 -158.353261 
L 736.853631 -160.02699 
L 736.838175 -161.700718 
L 736.845445 -163.374447 
L 736.872206 -165.048176 
L 736.913066 -166.721904 
L 736.960879 -168.395633 
L 737.007336 -170.069362 
L 737.043674 -171.74309 
L 737.061403 -173.416819 
L 737.053003 -175.090547 
L 737.01249 -176.764276 
L 736.935838 -178.438005 
L 736.821221 -180.111733 
L 736.669089 -181.785462 
L 736.482098 -183.459191 
L 736.264915 -185.132919 
L 736.023957 -186.806648 
L 735.767055 -188.480377 
L 735.503098 -190.154105 
L 735.241632 -191.827834 
L 734.992427 -193.501563 
L 734.765007 -195.175291 
L 734.568121 -196.84902 
L 734.409203 -198.522749 
L 734.293818 -200.196477 
L 734.225157 -201.870206 
L 734.203647 -203.543934 
L 734.2267 -205.217663 
L 734.288668 -206.891392 
L 734.380989 -208.56512 
L 734.492518 -210.238849 
L 734.609985 -211.912578 
L 734.71854 -213.586306 
L 734.802304 -215.260035 
L 734.844935 -216.933764 
L 734.83015 -218.607492 
L 734.742269 -220.281221 
L 734.566763 -221.95495 
L 734.290862 -223.628678 
L 733.904216 -225.302407 
L 733.399568 -226.976136 
L 732.773393 -228.649864 
L 732.026395 -230.323593 
L 731.163772 -231.997321 
L 730.195159 -233.67105 
L 729.13419 -235.344779 
L 727.997696 -237.018507 
L 726.804585 -238.692236 
L 725.574535 -240.365965 
L 724.326643 -242.039693 
L 723.078218 -243.713422 
L 721.843865 -245.387151 
L 720.635001 -247.060879 
L 719.459869 -248.734608 
L 718.324054 -250.408337 
L 717.231453 -252.082065 
L 716.185576 -253.755794 
L 715.191031 -255.429523 
L 714.254997 -257.103251 
L 713.388512 -258.77698 
L 712.607355 -260.450708 
L 711.932394 -262.124437 
L 711.389225 -263.798166 
L 711.007062 -265.471894 
L 710.816864 -267.145623 
L 710.848797 -268.819352 
L 711.129247 -270.49308 
L 711.677658 -272.166809 
L 712.503605 -273.840538 
L 713.60446 -275.514266 
L 714.964043 -277.187995 
L 716.552514 -278.861724 
L 718.327619 -280.535452 
L 720.237222 -282.209181 
L 722.222862 -283.88291 
L 724.223952 -285.556638 
L 726.182103 -287.230367 
L 728.045087 -288.904096 
L 729.770005 -290.577824 
L 731.325354 -292.251553 
L 732.691864 -293.925281 
L 733.862151 -295.59901 
L 734.839373 -297.272739 
L 735.635186 -298.946467 
L 736.267328 -300.620196 
L 736.757171 -302.293925 
L 737.127488 -303.967653 
L 738.872512 -303.967653 
L 738.872512 -303.967653 
L 739.242829 -302.293925 
L 739.732672 -300.620196 
L 740.364814 -298.946467 
L 741.160627 -297.272739 
L 742.137849 -295.59901 
L 743.308136 -293.925281 
L 744.674646 -292.251553 
L 746.229995 -290.577824 
L 747.954913 -288.904096 
L 749.817897 -287.230367 
L 751.776048 -285.556638 
L 753.777138 -283.88291 
L 755.762778 -282.209181 
L 757.672381 -280.535452 
L 759.447486 -278.861724 
L 761.035957 -277.187995 
L 762.39554 -275.514266 
L 763.496395 -273.840538 
L 764.322342 -272.166809 
L 764.870753 -270.49308 
L 765.151203 -268.819352 
L 765.183136 -267.145623 
L 764.992938 -265.471894 
L 764.610775 -263.798166 
L 764.067606 -262.124437 
L 763.392645 -260.450708 
L 762.611488 -258.77698 
L 761.745003 -257.103251 
L 760.808969 -255.429523 
L 759.814424 -253.755794 
L 758.768547 -252.082065 
L 757.675946 -250.408337 
L 756.540131 -248.734608 
L 755.364999 -247.060879 
L 754.156135 -245.387151 
L 752.921782 -243.713422 
L 751.673357 -242.039693 
L 750.425465 -240.365965 
L 749.195415 -238.692236 
L 748.002304 -237.018507 
L 746.86581 -235.344779 
L 745.804841 -233.67105 
L 744.836228 -231.997321 
L 743.973605 -230.323593 
L 743.226607 -228.649864 
L 742.600432 -226.976136 
L 742.095784 -225.302407 
L 741.709138 -223.628678 
L 741.433237 -221.95495 
L 741.257731 -220.281221 
L 741.16985 -218.607492 
L 741.155065 -216.933764 
L 741.197696 -215.260035 
L 741.28146 -213.586306 
L 741.390015 -211.912578 
L 741.507482 -210.238849 
L 741.619011 -208.56512 
L 741.711332 -206.891392 
L 741.7733 -205.217663 
L 741.796353 -203.543934 
L 741.774843 -201.870206 
L 741.706182 -200.196477 
L 741.590797 -198.522749 
L 741.431879 -196.84902 
L 741.234993 -195.175291 
L 741.007573 -193.501563 
L 740.758368 -191.827834 
L 740.496902 -190.154105 
L 740.232945 -188.480377 
L 739.976043 -186.806648 
L 739.735085 -185.132919 
L 739.517902 -183.459191 
L 739.330911 -181.785462 
L 739.178779 -180.111733 
L 739.064162 -178.438005 
L 738.98751 -176.764276 
L 738.946997 -175.090547 
L 738.938597 -173.416819 
L 738.956326 -171.74309 
L 738.992664 -170.069362 
L 739.039121 -168.395633 
L 739.086934 -166.721904 
L 739.127794 -165.048176 
L 739.154555 -163.374447 
L 739.161825 -161.700718 
L 739.146369 -160.02699 
L 739.107271 -158.353261 
L 739.045848 -156.679532 
L 738.965321 -155.005804 
L 738.870307 -153.332075 
L 738.766213 -151.658346 
L 738.658602 -149.984618 
L 738.55264 -148.310889 
L 738.452661 -146.63716 
L 738.361903 -144.963432 
L 738.282412 -143.289703 
L 738.215098 -141.615975 
L 738.159897 -139.942246 
L 738.116008 -138.268517 
z
" id="m4c57704b44" style="stroke:#474747;stroke-width:1.5;"/>
    </defs>
    <g clip-path="url(#pec44fc406b)">
     <use style="fill:#4aac98;stroke:#474747;stroke-width:1.5;" x="0" xlink:href="#m4c57704b44" y="360"/>
    </g>
   </g>
   <g id="PolyCollection_7">
    <defs>
     <path d="M 839.465361 -102.818756 
L 839.443729 -102.818756 
L 839.435808 -104.781618 
L 839.424011 -106.74448 
L 839.407555 -108.707342 
L 839.385953 -110.670204 
L 839.359121 -112.633066 
L 839.327451 -114.595928 
L 839.291863 -116.55879 
L 839.253886 -118.521652 
L 839.215718 -120.484514 
L 839.180125 -122.447376 
L 839.150028 -124.410238 
L 839.127812 -126.373099 
L 839.114615 -128.335961 
L 839.109982 -130.298823 
L 839.112193 -132.261685 
L 839.119132 -134.224547 
L 839.129251 -136.187409 
L 839.142043 -138.150271 
L 839.157723 -140.113133 
L 839.176318 -142.075995 
L 839.196666 -144.038857 
L 839.215828 -146.001719 
L 839.229073 -147.964581 
L 839.230285 -149.927443 
L 839.212558 -151.890304 
L 839.168914 -153.853166 
L 839.093306 -155.816028 
L 838.981985 -157.77889 
L 838.83501 -159.741752 
L 838.657233 -161.704614 
L 838.457999 -163.667476 
L 838.249122 -165.630338 
L 838.041509 -167.5932 
L 837.841546 -169.556062 
L 837.648814 -171.518924 
L 837.456314 -173.481786 
L 837.253438 -175.444647 
L 837.030645 -177.407509 
L 836.783978 -179.370371 
L 836.517454 -181.333233 
L 836.242147 -183.296095 
L 835.972111 -185.258957 
L 835.718585 -187.221819 
L 835.484713 -189.184681 
L 835.26296 -191.147543 
L 835.036414 -193.110405 
L 834.783575 -195.073267 
L 834.484664 -197.036129 
L 834.126803 -198.99899 
L 833.706087 -200.961852 
L 833.226237 -202.924714 
L 832.695325 -204.887576 
L 832.122794 -206.850438 
L 831.518315 -208.8133 
L 830.892473 -210.776162 
L 830.25801 -212.739024 
L 829.630139 -214.701886 
L 829.025224 -216.664748 
L 828.458203 -218.62761 
L 827.939636 -220.590472 
L 827.473188 -222.553333 
L 827.053986 -224.516195 
L 826.6682 -226.479057 
L 826.294375 -228.441919 
L 825.907046 -230.404781 
L 825.482634 -232.367643 
L 825.006535 -234.330505 
L 824.479138 -236.293367 
L 823.918117 -238.256229 
L 823.354973 -240.219091 
L 822.825815 -242.181953 
L 822.358958 -244.144815 
L 821.964113 -246.107676 
L 821.628385 -248.070538 
L 821.322073 -250.0334 
L 821.012897 -251.996262 
L 820.682803 -253.959124 
L 820.33948 -255.921986 
L 820.016864 -257.884848 
L 819.764334 -259.84771 
L 819.630025 -261.810572 
L 819.646638 -263.773434 
L 819.826506 -265.736296 
L 820.167803 -267.699158 
L 820.66799 -269.662019 
L 821.336955 -271.624881 
L 822.202095 -273.587743 
L 823.301101 -275.550605 
L 824.66387 -277.513467 
L 826.290566 -279.476329 
L 828.135634 -281.439191 
L 830.105986 -283.402053 
L 832.075857 -285.364915 
L 833.913607 -287.327777 
L 835.510645 -289.290639 
L 836.802153 -291.253501 
L 837.773527 -293.216362 
L 838.452772 -295.179224 
L 838.894246 -297.142086 
L 840.014845 -297.142086 
L 840.014845 -297.142086 
L 840.456319 -295.179224 
L 841.135564 -293.216362 
L 842.106938 -291.253501 
L 843.398446 -289.290639 
L 844.995484 -287.327777 
L 846.833234 -285.364915 
L 848.803105 -283.402053 
L 850.773457 -281.439191 
L 852.618525 -279.476329 
L 854.245221 -277.513467 
L 855.60799 -275.550605 
L 856.706996 -273.587743 
L 857.572136 -271.624881 
L 858.241101 -269.662019 
L 858.741288 -267.699158 
L 859.082585 -265.736296 
L 859.262453 -263.773434 
L 859.279066 -261.810572 
L 859.144757 -259.84771 
L 858.892227 -257.884848 
L 858.569611 -255.921986 
L 858.226288 -253.959124 
L 857.896194 -251.996262 
L 857.587018 -250.0334 
L 857.280705 -248.070538 
L 856.944978 -246.107676 
L 856.550133 -244.144815 
L 856.083276 -242.181953 
L 855.554118 -240.219091 
L 854.990974 -238.256229 
L 854.429953 -236.293367 
L 853.902556 -234.330505 
L 853.426457 -232.367643 
L 853.002045 -230.404781 
L 852.614716 -228.441919 
L 852.240891 -226.479057 
L 851.855105 -224.516195 
L 851.435903 -222.553333 
L 850.969455 -220.590472 
L 850.450888 -218.62761 
L 849.883867 -216.664748 
L 849.278952 -214.701886 
L 848.651081 -212.739024 
L 848.016618 -210.776162 
L 847.390776 -208.8133 
L 846.786297 -206.850438 
L 846.213766 -204.887576 
L 845.682854 -202.924714 
L 845.203004 -200.961852 
L 844.782288 -198.99899 
L 844.424427 -197.036129 
L 844.125516 -195.073267 
L 843.872677 -193.110405 
L 843.646131 -191.147543 
L 843.424377 -189.184681 
L 843.190506 -187.221819 
L 842.93698 -185.258957 
L 842.666944 -183.296095 
L 842.391637 -181.333233 
L 842.125113 -179.370371 
L 841.878446 -177.407509 
L 841.655653 -175.444647 
L 841.452777 -173.481786 
L 841.260277 -171.518924 
L 841.067544 -169.556062 
L 840.867582 -167.5932 
L 840.659969 -165.630338 
L 840.451092 -163.667476 
L 840.251858 -161.704614 
L 840.074081 -159.741752 
L 839.927106 -157.77889 
L 839.815785 -155.816028 
L 839.740177 -153.853166 
L 839.696533 -151.890304 
L 839.678806 -149.927443 
L 839.680018 -147.964581 
L 839.693263 -146.001719 
L 839.712425 -144.038857 
L 839.732773 -142.075995 
L 839.751368 -140.113133 
L 839.767048 -138.150271 
L 839.77984 -136.187409 
L 839.789959 -134.224547 
L 839.796898 -132.261685 
L 839.799109 -130.298823 
L 839.794476 -128.335961 
L 839.781279 -126.373099 
L 839.759063 -124.410238 
L 839.728966 -122.447376 
L 839.693372 -120.484514 
L 839.655205 -118.521652 
L 839.617228 -116.55879 
L 839.58164 -114.595928 
L 839.54997 -112.633066 
L 839.523138 -110.670204 
L 839.501536 -108.707342 
L 839.48508 -106.74448 
L 839.473283 -104.781618 
L 839.465361 -102.818756 
z
" id="mc5597c12c2" style="stroke:#474747;stroke-width:1.5;"/>
    </defs>
    <g clip-path="url(#pec44fc406b)">
     <use style="fill:#4dabb0;stroke:#474747;stroke-width:1.5;" x="0" xlink:href="#mc5597c12c2" y="360"/>
    </g>
   </g>
   <g id="PolyCollection_8">
    <defs>
     <path d="M 940.93076 -117.228788 
L 940.887422 -117.228788 
L 940.874673 -119.078465 
L 940.856348 -120.928141 
L 940.831054 -122.777818 
L 940.797536 -124.627495 
L 940.754902 -126.477171 
L 940.702869 -128.326848 
L 940.641959 -130.176524 
L 940.573579 -132.026201 
L 940.499925 -133.875878 
L 940.423668 -135.725554 
L 940.347455 -137.575231 
L 940.2733 -139.424908 
L 940.202029 -141.274584 
L 940.132928 -143.124261 
L 940.063742 -144.973937 
L 939.99106 -146.823614 
L 939.91099 -148.673291 
L 939.819954 -150.522967 
L 939.715331 -152.372644 
L 939.59575 -154.222321 
L 939.460945 -156.071997 
L 939.311251 -157.921674 
L 939.146954 -159.771351 
L 938.967781 -161.621027 
L 938.772766 -163.470704 
L 938.560575 -165.32038 
L 938.330209 -167.170057 
L 938.081794 -169.019734 
L 937.817165 -170.86941 
L 937.539947 -172.719087 
L 937.255014 -174.568764 
L 936.967434 -176.41844 
L 936.681197 -178.268117 
L 936.398113 -180.117794 
L 936.117302 -181.96747 
L 935.835478 -183.817147 
L 935.548022 -185.666823 
L 935.250543 -187.5165 
L 934.94042 -189.366177 
L 934.617793 -191.215853 
L 934.285607 -193.06553 
L 933.94864 -194.915207 
L 933.611789 -196.764883 
L 933.278191 -198.61456 
L 932.947811 -200.464237 
L 932.616969 -202.313913 
L 932.278913 -204.16359 
L 931.925163 -206.013266 
L 931.547115 -207.862943 
L 931.137387 -209.71262 
L 930.690667 -211.562296 
L 930.204135 -213.411973 
L 929.677814 -215.26165 
L 929.115137 -217.111326 
L 928.52378 -218.961003 
L 927.916383 -220.810679 
L 927.310579 -222.660356 
L 926.727775 -224.510033 
L 926.190621 -226.359709 
L 925.719617 -228.209386 
L 925.329803 -230.059063 
L 925.028523 -231.908739 
L 924.81493 -233.758416 
L 924.681266 -235.608093 
L 924.615373 -237.457769 
L 924.603568 -239.307446 
L 924.633046 -241.157122 
L 924.693303 -243.006799 
L 924.776504 -244.856476 
L 924.877018 -246.706152 
L 924.990536 -248.555829 
L 925.113166 -250.405506 
L 925.240838 -252.255182 
L 925.369281 -254.104859 
L 925.494705 -255.954536 
L 925.61517 -257.804212 
L 925.732392 -259.653889 
L 925.853524 -261.503565 
L 925.992276 -263.353242 
L 926.168829 -265.202919 
L 926.408273 -267.052595 
L 926.737682 -268.902272 
L 927.182343 -270.751949 
L 927.761846 -272.601625 
L 928.486706 -274.451302 
L 929.356023 -276.300978 
L 930.356456 -278.150655 
L 931.462603 -280.000332 
L 932.63879 -281.850008 
L 933.842173 -283.699685 
L 935.026911 -285.549362 
L 936.148925 -287.399038 
L 937.170554 -289.248715 
L 938.064293 -291.098392 
L 938.814948 -292.948068 
L 939.419847 -294.797745 
L 939.887221 -296.647421 
L 940.233283 -298.497098 
L 940.478725 -300.346775 
L 941.339456 -300.346775 
L 941.339456 -300.346775 
L 941.584899 -298.497098 
L 941.93096 -296.647421 
L 942.398335 -294.797745 
L 943.003233 -292.948068 
L 943.753889 -291.098392 
L 944.647628 -289.248715 
L 945.669256 -287.399038 
L 946.791271 -285.549362 
L 947.976009 -283.699685 
L 949.179392 -281.850008 
L 950.355579 -280.000332 
L 951.461726 -278.150655 
L 952.462159 -276.300978 
L 953.331476 -274.451302 
L 954.056335 -272.601625 
L 954.635839 -270.751949 
L 955.0805 -268.902272 
L 955.409909 -267.052595 
L 955.649352 -265.202919 
L 955.825906 -263.353242 
L 955.964657 -261.503565 
L 956.08579 -259.653889 
L 956.203012 -257.804212 
L 956.323476 -255.954536 
L 956.448901 -254.104859 
L 956.577344 -252.255182 
L 956.705016 -250.405506 
L 956.827645 -248.555829 
L 956.941164 -246.706152 
L 957.041678 -244.856476 
L 957.124879 -243.006799 
L 957.185136 -241.157122 
L 957.214614 -239.307446 
L 957.202809 -237.457769 
L 957.136916 -235.608093 
L 957.003252 -233.758416 
L 956.789659 -231.908739 
L 956.488379 -230.059063 
L 956.098565 -228.209386 
L 955.627561 -226.359709 
L 955.090407 -224.510033 
L 954.507603 -222.660356 
L 953.901798 -220.810679 
L 953.294402 -218.961003 
L 952.703045 -217.111326 
L 952.140368 -215.26165 
L 951.614047 -213.411973 
L 951.127515 -211.562296 
L 950.680794 -209.71262 
L 950.271067 -207.862943 
L 949.893019 -206.013266 
L 949.539269 -204.16359 
L 949.201213 -202.313913 
L 948.870371 -200.464237 
L 948.53999 -198.61456 
L 948.206392 -196.764883 
L 947.869542 -194.915207 
L 947.532575 -193.06553 
L 947.200389 -191.215853 
L 946.877762 -189.366177 
L 946.567639 -187.5165 
L 946.27016 -185.666823 
L 945.982704 -183.817147 
L 945.70088 -181.96747 
L 945.420069 -180.117794 
L 945.136985 -178.268117 
L 944.850748 -176.41844 
L 944.563168 -174.568764 
L 944.278235 -172.719087 
L 944.001017 -170.86941 
L 943.736388 -169.019734 
L 943.487973 -167.170057 
L 943.257606 -165.32038 
L 943.045416 -163.470704 
L 942.8504 -161.621027 
L 942.671228 -159.771351 
L 942.506931 -157.921674 
L 942.357237 -156.071997 
L 942.222432 -154.222321 
L 942.102851 -152.372644 
L 941.998228 -150.522967 
L 941.907192 -148.673291 
L 941.827122 -146.823614 
L 941.754439 -144.973937 
L 941.685254 -143.124261 
L 941.616153 -141.274584 
L 941.544882 -139.424908 
L 941.470727 -137.575231 
L 941.394514 -135.725554 
L 941.318257 -133.875878 
L 941.244603 -132.026201 
L 941.176223 -130.176524 
L 941.115313 -128.326848 
L 941.06328 -126.477171 
L 941.020646 -124.627495 
L 940.987127 -122.777818 
L 940.961834 -120.928141 
L 940.943508 -119.078465 
L 940.93076 -117.228788 
z
" id="m168546ceec" style="stroke:#474747;stroke-width:1.5;"/>
    </defs>
    <g clip-path="url(#pec44fc406b)">
     <use style="fill:#54acd3;stroke:#474747;stroke-width:1.5;" x="0" xlink:href="#m168546ceec" y="360"/>
    </g>
   </g>
   <g id="PolyCollection_9">
    <defs>
     <path d="M 1042.380188 -106.455603 
L 1042.347085 -106.455603 
L 1042.337201 -108.416164 
L 1042.323064 -110.376724 
L 1042.303679 -112.337285 
L 1042.278119 -114.297846 
L 1042.245583 -116.258407 
L 1042.205405 -118.218968 
L 1042.157007 -120.179529 
L 1042.099819 -122.14009 
L 1042.033221 -124.10065 
L 1041.956568 -126.061211 
L 1041.869346 -128.021772 
L 1041.771457 -129.982333 
L 1041.663575 -131.942894 
L 1041.547446 -133.903455 
L 1041.425973 -135.864016 
L 1041.302952 -137.824576 
L 1041.182387 -139.785137 
L 1041.067436 -141.745698 
L 1040.959186 -143.706259 
L 1040.855589 -145.66682 
L 1040.750939 -147.627381 
L 1040.636215 -149.587942 
L 1040.500424 -151.548503 
L 1040.332759 -153.509063 
L 1040.125115 -155.469624 
L 1039.87427 -157.430185 
L 1039.583061 -159.390746 
L 1039.260066 -161.351307 
L 1038.917751 -163.311868 
L 1038.569465 -165.272429 
L 1038.22612 -167.232989 
L 1037.89352 -169.19355 
L 1037.571247 -171.154111 
L 1037.25352 -173.114672 
L 1036.931873 -175.075233 
L 1036.598813 -177.035794 
L 1036.251232 -178.996355 
L 1035.892348 -180.956915 
L 1035.531357 -182.917476 
L 1035.180794 -184.878037 
L 1034.852363 -186.838598 
L 1034.552572 -188.799159 
L 1034.279613 -190.75972 
L 1034.022485 -192.720281 
L 1033.76268 -194.680842 
L 1033.477969 -196.641402 
L 1033.14723 -198.601963 
L 1032.75511 -200.562524 
L 1032.295463 -202.523085 
L 1031.772918 -204.483646 
L 1031.202459 -206.444207 
L 1030.607286 -208.404768 
L 1030.015494 -210.365328 
L 1029.456159 -212.325889 
L 1028.955431 -214.28645 
L 1028.533091 -216.247011 
L 1028.200029 -218.207572 
L 1027.956991 -220.168133 
L 1027.79487 -222.128694 
L 1027.696639 -224.089254 
L 1027.640732 -226.049815 
L 1027.605337 -228.010376 
L 1027.572813 -229.970937 
L 1027.533287 -231.931498 
L 1027.486621 -233.892059 
L 1027.442291 -235.85262 
L 1027.417144 -237.81318 
L 1027.43151 -239.773741 
L 1027.504461 -241.734302 
L 1027.649242 -243.694863 
L 1027.869871 -245.655424 
L 1028.159733 -247.615985 
L 1028.502577 -249.576546 
L 1028.875784 -251.537107 
L 1029.255162 -253.497667 
L 1029.620081 -255.458228 
L 1029.957633 -257.418789 
L 1030.264834 -259.37935 
L 1030.548484 -261.339911 
L 1030.823061 -263.300472 
L 1031.107561 -265.261033 
L 1031.422336 -267.221593 
L 1031.786658 -269.182154 
L 1032.217225 -271.142715 
L 1032.727232 -273.103276 
L 1033.325423 -275.063837 
L 1034.014682 -277.024398 
L 1034.790233 -278.984959 
L 1035.638058 -280.945519 
L 1036.534459 -282.90608 
L 1037.447507 -284.866641 
L 1038.340552 -286.827202 
L 1039.17718 -288.787763 
L 1039.92645 -290.748324 
L 1040.567048 -292.708885 
L 1041.089379 -294.669445 
L 1041.495288 -296.630006 
L 1041.795782 -298.590567 
L 1042.007641 -300.551128 
L 1042.719632 -300.551128 
L 1042.719632 -300.551128 
L 1042.931491 -298.590567 
L 1043.231985 -296.630006 
L 1043.637893 -294.669445 
L 1044.160225 -292.708885 
L 1044.800822 -290.748324 
L 1045.550093 -288.787763 
L 1046.386721 -286.827202 
L 1047.279765 -284.866641 
L 1048.192814 -282.90608 
L 1049.089215 -280.945519 
L 1049.93704 -278.984959 
L 1050.712591 -277.024398 
L 1051.40185 -275.063837 
L 1052.000041 -273.103276 
L 1052.510048 -271.142715 
L 1052.940615 -269.182154 
L 1053.304937 -267.221593 
L 1053.619711 -265.261033 
L 1053.904212 -263.300472 
L 1054.178788 -261.339911 
L 1054.462438 -259.37935 
L 1054.76964 -257.418789 
L 1055.107192 -255.458228 
L 1055.47211 -253.497667 
L 1055.851489 -251.537107 
L 1056.224696 -249.576546 
L 1056.56754 -247.615985 
L 1056.857401 -245.655424 
L 1057.078031 -243.694863 
L 1057.222812 -241.734302 
L 1057.295763 -239.773741 
L 1057.310128 -237.81318 
L 1057.284982 -235.85262 
L 1057.240652 -233.892059 
L 1057.193986 -231.931498 
L 1057.154459 -229.970937 
L 1057.121936 -228.010376 
L 1057.086541 -226.049815 
L 1057.030633 -224.089254 
L 1056.932403 -222.128694 
L 1056.770282 -220.168133 
L 1056.527244 -218.207572 
L 1056.194182 -216.247011 
L 1055.771842 -214.28645 
L 1055.271114 -212.325889 
L 1054.711779 -210.365328 
L 1054.119986 -208.404768 
L 1053.524814 -206.444207 
L 1052.954355 -204.483646 
L 1052.43181 -202.523085 
L 1051.972163 -200.562524 
L 1051.580043 -198.601963 
L 1051.249304 -196.641402 
L 1050.964593 -194.680842 
L 1050.704788 -192.720281 
L 1050.447659 -190.75972 
L 1050.174701 -188.799159 
L 1049.87491 -186.838598 
L 1049.546478 -184.878037 
L 1049.195916 -182.917476 
L 1048.834925 -180.956915 
L 1048.476041 -178.996355 
L 1048.12846 -177.035794 
L 1047.795399 -175.075233 
L 1047.473752 -173.114672 
L 1047.156026 -171.154111 
L 1046.833752 -169.19355 
L 1046.501153 -167.232989 
L 1046.157807 -165.272429 
L 1045.809522 -163.311868 
L 1045.467206 -161.351307 
L 1045.144212 -159.390746 
L 1044.853002 -157.430185 
L 1044.602158 -155.469624 
L 1044.394514 -153.509063 
L 1044.226849 -151.548503 
L 1044.091058 -149.587942 
L 1043.976334 -147.627381 
L 1043.871684 -145.66682 
L 1043.768087 -143.706259 
L 1043.659837 -141.745698 
L 1043.544886 -139.785137 
L 1043.424321 -137.824576 
L 1043.3013 -135.864016 
L 1043.179827 -133.903455 
L 1043.063698 -131.942894 
L 1042.955816 -129.982333 
L 1042.857926 -128.021772 
L 1042.770704 -126.061211 
L 1042.694052 -124.10065 
L 1042.627454 -122.14009 
L 1042.570266 -120.179529 
L 1042.521868 -118.218968 
L 1042.48169 -116.258407 
L 1042.449154 -114.297846 
L 1042.423594 -112.337285 
L 1042.404209 -110.376724 
L 1042.390071 -108.416164 
L 1042.380188 -106.455603 
z
" id="m17d6a78e61" style="stroke:#474747;stroke-width:1.5;"/>
    </defs>
    <g clip-path="url(#pec44fc406b)">
     <use style="fill:#a9aceb;stroke:#474747;stroke-width:1.5;" x="0" xlink:href="#m17d6a78e61" y="360"/>
    </g>
   </g>
   <g id="PolyCollection_10">
    <defs>
     <path d="M 1143.828092 -91.008786 
L 1143.808272 -91.008786 
L 1143.801819 -93.103478 
L 1143.793022 -95.198169 
L 1143.782132 -97.29286 
L 1143.769989 -99.387552 
L 1143.757933 -101.482243 
L 1143.747438 -103.576934 
L 1143.739543 -105.671626 
L 1143.734293 -107.766317 
L 1143.730436 -109.861008 
L 1143.725604 -111.955699 
L 1143.71695 -114.050391 
L 1143.702043 -116.145082 
L 1143.679658 -118.239773 
L 1143.650121 -120.334465 
L 1143.615057 -122.429156 
L 1143.576643 -124.523847 
L 1143.536699 -126.618538 
L 1143.495992 -128.71323 
L 1143.454039 -130.807921 
L 1143.409404 -132.902612 
L 1143.360269 -134.997304 
L 1143.30495 -137.091995 
L 1143.242139 -139.186686 
L 1143.170805 -141.281377 
L 1143.089821 -143.376069 
L 1142.997456 -145.47076 
L 1142.890917 -147.565451 
L 1142.766175 -149.660143 
L 1142.618343 -151.754834 
L 1142.442643 -153.849525 
L 1142.235629 -155.944217 
L 1141.995967 -158.038908 
L 1141.724222 -160.133599 
L 1141.421716 -162.22829 
L 1141.089315 -164.322982 
L 1140.727282 -166.417673 
L 1140.33663 -168.512364 
L 1139.921192 -170.607056 
L 1139.488583 -172.701747 
L 1139.048523 -174.796438 
L 1138.608489 -176.891129 
L 1138.168799 -178.985821 
L 1137.720309 -181.080512 
L 1137.247106 -183.175203 
L 1136.733954 -185.269895 
L 1136.175322 -187.364586 
L 1135.581315 -189.459277 
L 1134.976916 -191.553969 
L 1134.394066 -193.64866 
L 1133.859711 -195.743351 
L 1133.385036 -197.838042 
L 1132.960778 -199.932734 
L 1132.560801 -202.027425 
L 1132.152509 -204.122116 
L 1131.709676 -206.216808 
L 1131.222382 -208.311499 
L 1130.700168 -210.40619 
L 1130.167633 -212.500881 
L 1129.654866 -214.595573 
L 1129.187041 -216.690264 
L 1128.777346 -218.784955 
L 1128.425512 -220.879647 
L 1128.12155 -222.974338 
L 1127.852202 -225.069029 
L 1127.606969 -227.16372 
L 1127.381573 -229.258412 
L 1127.178579 -231.353103 
L 1127.00646 -233.447794 
L 1126.878631 -235.542486 
L 1126.812967 -237.637177 
L 1126.830943 -239.731868 
L 1126.955013 -241.82656 
L 1127.20376 -243.921251 
L 1127.58605 -246.015942 
L 1128.096711 -248.110633 
L 1128.716062 -250.205325 
L 1129.413959 -252.300016 
L 1130.156792 -254.394707 
L 1130.914459 -256.489399 
L 1131.664556 -258.58409 
L 1132.392736 -260.678781 
L 1133.090442 -262.773472 
L 1133.752606 -264.868164 
L 1134.377571 -266.962855 
L 1134.969641 -269.057546 
L 1135.542312 -271.152238 
L 1136.119059 -273.246929 
L 1136.72933 -275.34162 
L 1137.399878 -277.436311 
L 1138.144355 -279.531003 
L 1138.95558 -281.625694 
L 1139.804151 -283.720385 
L 1140.644475 -285.815077 
L 1141.426107 -287.909768 
L 1142.106148 -290.004459 
L 1142.658358 -292.099151 
L 1143.076402 -294.193842 
L 1143.371271 -296.288533 
L 1143.564991 -298.383224 
L 1144.071373 -298.383224 
L 1144.071373 -298.383224 
L 1144.265093 -296.288533 
L 1144.559961 -294.193842 
L 1144.978005 -292.099151 
L 1145.530215 -290.004459 
L 1146.210257 -287.909768 
L 1146.991889 -285.815077 
L 1147.832213 -283.720385 
L 1148.680784 -281.625694 
L 1149.492009 -279.531003 
L 1150.236486 -277.436311 
L 1150.907034 -275.34162 
L 1151.517305 -273.246929 
L 1152.094052 -271.152238 
L 1152.666723 -269.057546 
L 1153.258793 -266.962855 
L 1153.883757 -264.868164 
L 1154.545921 -262.773472 
L 1155.243628 -260.678781 
L 1155.971808 -258.58409 
L 1156.721904 -256.489399 
L 1157.479571 -254.394707 
L 1158.222404 -252.300016 
L 1158.920302 -250.205325 
L 1159.539653 -248.110633 
L 1160.050314 -246.015942 
L 1160.432604 -243.921251 
L 1160.681351 -241.82656 
L 1160.80542 -239.731868 
L 1160.823396 -237.637177 
L 1160.757733 -235.542486 
L 1160.629903 -233.447794 
L 1160.457784 -231.353103 
L 1160.254791 -229.258412 
L 1160.029395 -227.16372 
L 1159.784162 -225.069029 
L 1159.514814 -222.974338 
L 1159.210851 -220.879647 
L 1158.859017 -218.784955 
L 1158.449323 -216.690264 
L 1157.981498 -214.595573 
L 1157.468731 -212.500881 
L 1156.936196 -210.40619 
L 1156.413982 -208.311499 
L 1155.926687 -206.216808 
L 1155.483855 -204.122116 
L 1155.075562 -202.027425 
L 1154.675586 -199.932734 
L 1154.251327 -197.838042 
L 1153.776653 -195.743351 
L 1153.242298 -193.64866 
L 1152.659448 -191.553969 
L 1152.055049 -189.459277 
L 1151.461042 -187.364586 
L 1150.90241 -185.269895 
L 1150.389258 -183.175203 
L 1149.916054 -181.080512 
L 1149.467565 -178.985821 
L 1149.027875 -176.891129 
L 1148.58784 -174.796438 
L 1148.14778 -172.701747 
L 1147.715172 -170.607056 
L 1147.299733 -168.512364 
L 1146.909082 -166.417673 
L 1146.547048 -164.322982 
L 1146.214648 -162.22829 
L 1145.912141 -160.133599 
L 1145.640397 -158.038908 
L 1145.400735 -155.944217 
L 1145.193721 -153.849525 
L 1145.018021 -151.754834 
L 1144.870188 -149.660143 
L 1144.745447 -147.565451 
L 1144.638908 -145.47076 
L 1144.546543 -143.376069 
L 1144.465558 -141.281377 
L 1144.394224 -139.186686 
L 1144.331414 -137.091995 
L 1144.276095 -134.997304 
L 1144.226959 -132.902612 
L 1144.182325 -130.807921 
L 1144.140372 -128.71323 
L 1144.099665 -126.618538 
L 1144.05972 -124.523847 
L 1144.021307 -122.429156 
L 1143.986243 -120.334465 
L 1143.956706 -118.239773 
L 1143.934321 -116.145082 
L 1143.919414 -114.050391 
L 1143.910759 -111.955699 
L 1143.905927 -109.861008 
L 1143.902071 -107.766317 
L 1143.89682 -105.671626 
L 1143.888926 -103.576934 
L 1143.878431 -101.482243 
L 1143.866374 -99.387552 
L 1143.854232 -97.29286 
L 1143.843342 -95.198169 
L 1143.834545 -93.103478 
L 1143.828092 -91.008786 
z
" id="mc0bd02a4b0" style="stroke:#474747;stroke-width:1.5;"/>
    </defs>
    <g clip-path="url(#pec44fc406b)">
     <use style="fill:#d795e8;stroke:#474747;stroke-width:1.5;" x="0" xlink:href="#mc0bd02a4b0" y="360"/>
    </g>
   </g>
   <g id="PolyCollection_11">
    <defs>
     <path d="M 1245.28014 -57.354545 
L 1245.265314 -57.354545 
L 1245.260254 -59.808853 
L 1245.253308 -62.26316 
L 1245.244743 -64.717467 
L 1245.235373 -67.171775 
L 1245.226471 -69.626082 
L 1245.219433 -72.080389 
L 1245.215282 -74.534697 
L 1245.214209 -76.989004 
L 1245.215396 -79.443311 
L 1245.217247 -81.897619 
L 1245.217935 -84.351926 
L 1245.216005 -86.806233 
L 1245.210745 -89.260541 
L 1245.202137 -91.714848 
L 1245.190458 -94.169155 
L 1245.175792 -96.623462 
L 1245.157718 -99.07777 
L 1245.135326 -101.532077 
L 1245.107452 -103.986384 
L 1245.072917 -106.440692 
L 1245.030587 -108.894999 
L 1244.979331 -111.349306 
L 1244.918047 -113.803614 
L 1244.845891 -116.257921 
L 1244.762655 -118.712228 
L 1244.668965 -121.166536 
L 1244.566072 -123.620843 
L 1244.455181 -126.07515 
L 1244.336613 -128.529458 
L 1244.209193 -130.983765 
L 1244.070201 -133.438072 
L 1243.915907 -135.89238 
L 1243.742493 -138.346687 
L 1243.546932 -140.800994 
L 1243.327501 -143.255301 
L 1243.083765 -145.709609 
L 1242.816286 -148.163916 
L 1242.52656 -150.618223 
L 1242.217588 -153.072531 
L 1241.894948 -155.526838 
L 1241.567507 -157.981145 
L 1241.246706 -160.435453 
L 1240.943863 -162.88976 
L 1240.666106 -165.344067 
L 1240.412521 -167.798375 
L 1240.172322 -170.252682 
L 1239.9262 -172.706989 
L 1239.650898 -175.161297 
L 1239.325918 -177.615604 
L 1238.940322 -180.069911 
L 1238.497145 -182.524219 
L 1238.013338 -184.978526 
L 1237.514678 -187.432833 
L 1237.02731 -189.88714 
L 1236.569342 -192.341448 
L 1236.14599 -194.795755 
L 1235.749989 -197.250062 
L 1235.366408 -199.70437 
L 1234.979133 -202.158677 
L 1234.576162 -204.612984 
L 1234.152104 -207.067292 
L 1233.707886 -209.521599 
L 1233.248833 -211.975906 
L 1232.782501 -214.430214 
L 1232.317302 -216.884521 
L 1231.862265 -219.338828 
L 1231.427708 -221.793136 
L 1231.02616 -224.247443 
L 1230.672705 -226.70175 
L 1230.38405 -229.156057 
L 1230.176154 -231.610365 
L 1230.061057 -234.064672 
L 1230.044234 -236.518979 
L 1230.123837 -238.973287 
L 1230.292322 -241.427594 
L 1230.539752 -243.881901 
L 1230.857196 -246.336209 
L 1231.238647 -248.790516 
L 1231.680681 -251.244823 
L 1232.180183 -253.699131 
L 1232.731414 -256.153438 
L 1233.324184 -258.607745 
L 1233.944644 -261.062053 
L 1234.579056 -263.51636 
L 1235.219266 -265.970667 
L 1235.867354 -268.424975 
L 1236.53678 -270.879282 
L 1237.248653 -273.333589 
L 1238.023705 -275.787896 
L 1238.872489 -278.242204 
L 1239.787338 -280.696511 
L 1240.739407 -283.150818 
L 1241.682579 -285.605126 
L 1242.563444 -288.059433 
L 1243.334057 -290.51374 
L 1243.962861 -292.968048 
L 1244.440054 -295.422355 
L 1244.776187 -297.876662 
L 1244.995652 -300.33097 
L 1245.549803 -300.33097 
L 1245.549803 -300.33097 
L 1245.769268 -297.876662 
L 1246.1054 -295.422355 
L 1246.582594 -292.968048 
L 1247.211398 -290.51374 
L 1247.982011 -288.059433 
L 1248.862876 -285.605126 
L 1249.806047 -283.150818 
L 1250.758117 -280.696511 
L 1251.672965 -278.242204 
L 1252.52175 -275.787896 
L 1253.296802 -273.333589 
L 1254.008675 -270.879282 
L 1254.678101 -268.424975 
L 1255.326188 -265.970667 
L 1255.966399 -263.51636 
L 1256.60081 -261.062053 
L 1257.221271 -258.607745 
L 1257.81404 -256.153438 
L 1258.365271 -253.699131 
L 1258.864774 -251.244823 
L 1259.306808 -248.790516 
L 1259.688258 -246.336209 
L 1260.005702 -243.881901 
L 1260.253132 -241.427594 
L 1260.421617 -238.973287 
L 1260.50122 -236.518979 
L 1260.484398 -234.064672 
L 1260.3693 -231.610365 
L 1260.161405 -229.156057 
L 1259.87275 -226.70175 
L 1259.519295 -224.247443 
L 1259.117747 -221.793136 
L 1258.683189 -219.338828 
L 1258.228153 -216.884521 
L 1257.762954 -214.430214 
L 1257.296622 -211.975906 
L 1256.837568 -209.521599 
L 1256.393351 -207.067292 
L 1255.969292 -204.612984 
L 1255.566322 -202.158677 
L 1255.179046 -199.70437 
L 1254.795466 -197.250062 
L 1254.399465 -194.795755 
L 1253.976112 -192.341448 
L 1253.518144 -189.88714 
L 1253.030776 -187.432833 
L 1252.532116 -184.978526 
L 1252.048309 -182.524219 
L 1251.605133 -180.069911 
L 1251.219536 -177.615604 
L 1250.894557 -175.161297 
L 1250.619255 -172.706989 
L 1250.373132 -170.252682 
L 1250.132934 -167.798375 
L 1249.879349 -165.344067 
L 1249.601591 -162.88976 
L 1249.298749 -160.435453 
L 1248.977948 -157.981145 
L 1248.650507 -155.526838 
L 1248.327866 -153.072531 
L 1248.018895 -150.618223 
L 1247.729168 -148.163916 
L 1247.461689 -145.709609 
L 1247.217953 -143.255301 
L 1246.998523 -140.800994 
L 1246.802962 -138.346687 
L 1246.629547 -135.89238 
L 1246.475254 -133.438072 
L 1246.336261 -130.983765 
L 1246.208842 -128.529458 
L 1246.090273 -126.07515 
L 1245.979382 -123.620843 
L 1245.876489 -121.166536 
L 1245.7828 -118.712228 
L 1245.699563 -116.257921 
L 1245.627408 -113.803614 
L 1245.566123 -111.349306 
L 1245.514868 -108.894999 
L 1245.472538 -106.440692 
L 1245.438002 -103.986384 
L 1245.410129 -101.532077 
L 1245.387736 -99.07777 
L 1245.369662 -96.623462 
L 1245.354996 -94.169155 
L 1245.343318 -91.714848 
L 1245.334709 -89.260541 
L 1245.329449 -86.806233 
L 1245.32752 -84.351926 
L 1245.328207 -81.897619 
L 1245.330059 -79.443311 
L 1245.331246 -76.989004 
L 1245.330172 -74.534697 
L 1245.326021 -72.080389 
L 1245.318984 -69.626082 
L 1245.310081 -67.171775 
L 1245.300711 -64.717467 
L 1245.292147 -62.26316 
L 1245.285201 -59.808853 
L 1245.28014 -57.354545 
z
" id="m012de57ea9" style="stroke:#474747;stroke-width:1.5;"/>
    </defs>
    <g clip-path="url(#pec44fc406b)">
     <use style="fill:#e88fc9;stroke:#474747;stroke-width:1.5;" x="0" xlink:href="#m012de57ea9" y="360"/>
    </g>
   </g>
   <g id="line2d_9">
    <path clip-path="url(#pec44fc406b)" d="M 230.727273 133.597499 
L 230.727273 77.230395 
" style="fill:none;stroke:#474747;stroke-linecap:round;stroke-width:1.5;"/>
   </g>
   <g id="line2d_10">
    <path clip-path="url(#pec44fc406b)" d="M 230.727273 106.294683 
L 230.727273 84.276283 
" style="fill:none;stroke:#474747;stroke-linecap:round;stroke-width:4.5;"/>
   </g>
   <g id="line2d_11">
    <path clip-path="url(#pec44fc406b)" d="M 332.181818 137.120443 
L 332.181818 77.230395 
" style="fill:none;stroke:#474747;stroke-linecap:round;stroke-width:1.5;"/>
   </g>
   <g id="line2d_12">
    <path clip-path="url(#pec44fc406b)" d="M 332.181818 108.936891 
L 332.181818 84.276283 
" style="fill:none;stroke:#474747;stroke-linecap:round;stroke-width:4.5;"/>
   </g>
   <g id="line2d_13">
    <path clip-path="url(#pec44fc406b)" d="M 433.636364 105.413947 
L 433.636364 77.230395 
" style="fill:none;stroke:#474747;stroke-linecap:round;stroke-width:1.5;"/>
   </g>
   <g id="line2d_14">
    <path clip-path="url(#pec44fc406b)" d="M 433.636364 92.202907 
L 433.636364 80.753339 
" style="fill:none;stroke:#474747;stroke-linecap:round;stroke-width:4.5;"/>
   </g>
   <g id="line2d_15">
    <path clip-path="url(#pec44fc406b)" d="M 535.090909 154.735163 
L 535.090909 77.230395 
" style="fill:none;stroke:#474747;stroke-linecap:round;stroke-width:1.5;"/>
   </g>
   <g id="line2d_16">
    <path clip-path="url(#pec44fc406b)" d="M 535.090909 112.459835 
L 535.090909 84.276283 
" style="fill:none;stroke:#474747;stroke-linecap:round;stroke-width:4.5;"/>
   </g>
   <g id="line2d_17">
    <path clip-path="url(#pec44fc406b)" d="M 636.545455 147.689275 
L 636.545455 77.230395 
" style="fill:none;stroke:#474747;stroke-linecap:round;stroke-width:1.5;"/>
   </g>
   <g id="line2d_18">
    <path clip-path="url(#pec44fc406b)" d="M 636.545455 112.459835 
L 636.545455 87.799227 
" style="fill:none;stroke:#474747;stroke-linecap:round;stroke-width:4.5;"/>
   </g>
   <g id="line2d_19">
    <path clip-path="url(#pec44fc406b)" d="M 738 144.166331 
L 738 77.230395 
" style="fill:none;stroke:#474747;stroke-linecap:round;stroke-width:1.5;"/>
   </g>
   <g id="line2d_20">
    <path clip-path="url(#pec44fc406b)" d="M 738 112.459835 
L 738 87.799227 
" style="fill:none;stroke:#474747;stroke-linecap:round;stroke-width:4.5;"/>
   </g>
   <g id="line2d_21">
    <path clip-path="url(#pec44fc406b)" d="M 839.454545 197.01049 
L 839.454545 77.230395 
" style="fill:none;stroke:#474747;stroke-linecap:round;stroke-width:1.5;"/>
   </g>
   <g id="line2d_22">
    <path clip-path="url(#pec44fc406b)" d="M 839.454545 136.239707 
L 839.454545 94.845115 
" style="fill:none;stroke:#474747;stroke-linecap:round;stroke-width:4.5;"/>
   </g>
   <g id="line2d_23">
    <path clip-path="url(#pec44fc406b)" d="M 940.909091 204.056378 
L 940.909091 77.230395 
" style="fill:none;stroke:#474747;stroke-linecap:round;stroke-width:1.5;"/>
   </g>
   <g id="line2d_24">
    <path clip-path="url(#pec44fc406b)" d="M 940.909091 144.166331 
L 940.909091 101.891003 
" style="fill:none;stroke:#474747;stroke-linecap:round;stroke-width:4.5;"/>
   </g>
   <g id="line2d_25">
    <path clip-path="url(#pec44fc406b)" d="M 1042.363636 221.671098 
L 1042.363636 77.230395 
" style="fill:none;stroke:#474747;stroke-linecap:round;stroke-width:1.5;"/>
   </g>
   <g id="line2d_26">
    <path clip-path="url(#pec44fc406b)" d="M 1042.363636 154.735163 
L 1042.363636 108.936891 
" style="fill:none;stroke:#474747;stroke-linecap:round;stroke-width:4.5;"/>
   </g>
   <g id="line2d_27">
    <path clip-path="url(#pec44fc406b)" d="M 1143.818182 221.671098 
L 1143.818182 77.230395 
" style="fill:none;stroke:#474747;stroke-linecap:round;stroke-width:1.5;"/>
   </g>
   <g id="line2d_28">
    <path clip-path="url(#pec44fc406b)" d="M 1143.818182 154.735163 
L 1143.818182 108.936891 
" style="fill:none;stroke:#474747;stroke-linecap:round;stroke-width:4.5;"/>
   </g>
   <g id="line2d_29">
    <path clip-path="url(#pec44fc406b)" d="M 1245.272727 232.23993 
L 1245.272727 77.230395 
" style="fill:none;stroke:#474747;stroke-linecap:round;stroke-width:1.5;"/>
   </g>
   <g id="line2d_30">
    <path clip-path="url(#pec44fc406b)" d="M 1245.272727 158.258107 
L 1245.272727 108.936891 
" style="fill:none;stroke:#474747;stroke-linecap:round;stroke-width:4.5;"/>
   </g>
   <g id="patch_3">
    <path d="M 180 315 
L 180 43.2 
" style="fill:none;stroke:#ffffff;stroke-linecap:square;stroke-linejoin:miter;stroke-width:1.25;"/>
   </g>
   <g id="patch_4">
    <path d="M 1296 315 
L 1296 43.2 
" style="fill:none;stroke:#ffffff;stroke-linecap:square;stroke-linejoin:miter;stroke-width:1.25;"/>
   </g>
   <g id="patch_5">
    <path d="M 180 315 
L 1296 315 
" style="fill:none;stroke:#ffffff;stroke-linecap:square;stroke-linejoin:miter;stroke-width:1.25;"/>
   </g>
   <g id="patch_6">
    <path d="M 180 43.2 
L 1296 43.2 
" style="fill:none;stroke:#ffffff;stroke-linecap:square;stroke-linejoin:miter;stroke-width:1.25;"/>
   </g>
   <g id="PathCollection_1">
    <defs>
     <path d="M 0 1.5 
C 0.397805 1.5 0.77937 1.341951 1.06066 1.06066 
C 1.341951 0.77937 1.5 0.397805 1.5 0 
C 1.5 -0.397805 1.341951 -0.77937 1.06066 -1.06066 
C 0.77937 -1.341951 0.397805 -1.5 0 -1.5 
C -0.397805 -1.5 -0.77937 -1.341951 -1.06066 -1.06066 
C -1.341951 -0.77937 -1.5 -0.397805 -1.5 0 
C -1.5 0.397805 -1.341951 0.77937 -1.06066 1.06066 
C -0.77937 1.341951 -0.397805 1.5 0 1.5 
z
" id="m7fa5569bd3" style="stroke:#474747;"/>
    </defs>
    <g clip-path="url(#pec44fc406b)">
     <use style="fill:#ffffff;stroke:#474747;" x="230.727273" xlink:href="#m7fa5569bd3" y="98.368059"/>
    </g>
   </g>
   <g id="PathCollection_2">
    <g clip-path="url(#pec44fc406b)">
     <use style="fill:#ffffff;stroke:#474747;" x="332.181818" xlink:href="#m7fa5569bd3" y="93.083643"/>
    </g>
   </g>
   <g id="PathCollection_3">
    <g clip-path="url(#pec44fc406b)">
     <use style="fill:#ffffff;stroke:#474747;" x="433.636364" xlink:href="#m7fa5569bd3" y="84.276283"/>
    </g>
   </g>
   <g id="PathCollection_4">
    <g clip-path="url(#pec44fc406b)">
     <use style="fill:#ffffff;stroke:#474747;" x="535.090909" xlink:href="#m7fa5569bd3" y="94.845115"/>
    </g>
   </g>
   <g id="PathCollection_5">
    <g clip-path="url(#pec44fc406b)">
     <use style="fill:#ffffff;stroke:#474747;" x="636.545455" xlink:href="#m7fa5569bd3" y="98.368059"/>
    </g>
   </g>
   <g id="PathCollection_6">
    <g clip-path="url(#pec44fc406b)">
     <use style="fill:#ffffff;stroke:#474747;" x="738" xlink:href="#m7fa5569bd3" y="98.368059"/>
    </g>
   </g>
   <g id="PathCollection_7">
    <g clip-path="url(#pec44fc406b)">
     <use style="fill:#ffffff;stroke:#474747;" x="839.454545" xlink:href="#m7fa5569bd3" y="112.459835"/>
    </g>
   </g>
   <g id="PathCollection_8">
    <g clip-path="url(#pec44fc406b)">
     <use style="fill:#ffffff;stroke:#474747;" x="940.909091" xlink:href="#m7fa5569bd3" y="121.267195"/>
    </g>
   </g>
   <g id="PathCollection_9">
    <g clip-path="url(#pec44fc406b)">
     <use style="fill:#ffffff;stroke:#474747;" x="1042.363636" xlink:href="#m7fa5569bd3" y="130.074555"/>
    </g>
   </g>
   <g id="PathCollection_10">
    <g clip-path="url(#pec44fc406b)">
     <use style="fill:#ffffff;stroke:#474747;" x="1143.818182" xlink:href="#m7fa5569bd3" y="130.074555"/>
    </g>
   </g>
   <g id="PathCollection_11">
    <g clip-path="url(#pec44fc406b)">
     <use style="fill:#ffffff;stroke:#474747;" x="1245.272727" xlink:href="#m7fa5569bd3" y="133.597499"/>
    </g>
   </g>
  </g>
 </g>
 <defs>
  <clipPath id="pec44fc406b">
   <rect height="271.8" width="1116" x="180" y="43.2"/>
  </clipPath>
 </defs>
</svg>
